<?xml version="1.0" encoding="UTF-8" standalone="no"?>
<!DOCTYPE svg PUBLIC "-//W3C//DTD SVG 1.1//EN" "http://www.w3.org/Graphics/SVG/1.1/DTD/svg11.dtd">
<svg width="100%" height="100%" viewBox="0 0 568 150" version="1.1" xmlns="http://www.w3.org/2000/svg" xmlns:xlink="http://www.w3.org/1999/xlink" xml:space="preserve" xmlns:serif="http://www.serif.com/" style="fill-rule:evenodd;clip-rule:evenodd;stroke-linejoin:round;stroke-miterlimit:2;">
    <g transform="matrix(0.68932,0,0,1,0,0)">
        <rect x="0" y="0" width="824" height="150"/>
    </g>
    <g transform="matrix(0.155135,1.3123e-33,3.9369e-33,0.0754506,-589.732,10.8392)">
        <path d="M3934.12,207.03L3983.41,207.03L3970.4,250.647L3977.77,259.918L3995.71,199.023L3977.88,138.76L3970.5,147.82L3983.41,190.805L3934.12,190.805L3934.12,207.03Z" style="fill:white;fill-rule:nonzero;"/>
        <path d="M4034.14,271.929L4046.23,271.929L4046.23,217.144L4062.83,217.144C4077.9,217.144 4087.22,199.655 4087.22,170.998C4087.22,141.71 4077.08,124.432 4062.73,124.432L4034.14,124.432L4034.14,271.929ZM4046.23,194.177L4046.23,147.399L4062.42,147.399C4068.67,147.399 4074.82,153.51 4074.82,170.998C4074.82,185.959 4069.29,194.177 4062.53,194.177L4046.23,194.177Z" style="fill:white;fill-rule:nonzero;"/>
        <path d="M4123.81,252.122C4113.87,252.122 4105.47,236.74 4105.47,196.916C4105.47,160.674 4114.07,144.449 4123.81,144.449C4133.44,144.449 4142.05,161.095 4142.05,197.127C4142.05,237.162 4133.65,252.122 4123.81,252.122ZM4123.81,275.089C4139.49,275.089 4154.55,253.597 4154.55,197.127C4154.55,146.345 4139.39,121.271 4123.81,121.271C4108.13,121.271 4092.86,146.135 4092.86,196.916C4092.86,253.386 4108.03,275.089 4123.81,275.089Z" style="fill:white;fill-rule:nonzero;"/>
        <rect x="4163.78" y="192.28" width="33.716" height="19.175" style="fill:white;fill-rule:nonzero;"/>
        <path d="M4207.74,271.929L4256.93,271.929L4256.93,248.118L4220.86,248.118C4220.86,242.219 4221.27,238.004 4222.6,233.79C4224.65,227.469 4228.34,223.887 4237.36,214.405C4246.68,204.501 4256.52,192.702 4256.52,166.363C4256.52,138.971 4246.78,121.271 4232.95,121.271C4217.78,121.271 4208.15,139.181 4207.23,170.998L4218.7,173.948C4219.52,154.142 4224.03,143.395 4232.34,143.395C4240.74,143.395 4245.04,153.931 4245.04,164.677C4245.04,181.955 4238.79,187.434 4228.24,198.812C4221.16,206.187 4215.53,213.141 4212.15,221.78C4209.07,229.997 4207.74,240.111 4207.74,253.386L4207.74,271.929Z" style="fill:white;fill-rule:nonzero;"/>
        <path d="M4267.69,271.929L4316.88,271.929L4316.88,248.118L4280.81,248.118C4280.81,242.219 4281.22,238.004 4282.55,233.79C4284.6,227.469 4288.29,223.887 4297.31,214.405C4306.63,204.501 4316.47,192.702 4316.47,166.363C4316.47,138.971 4306.74,121.271 4292.9,121.271C4277.73,121.271 4268.1,139.181 4267.18,170.998L4278.66,173.948C4279.48,154.142 4283.98,143.395 4292.29,143.395C4300.69,143.395 4304.99,153.931 4304.99,164.677C4304.99,181.955 4298.74,187.434 4288.19,198.812C4281.12,206.187 4275.48,213.141 4272.1,221.78C4269.02,229.997 4267.69,240.111 4267.69,253.386L4267.69,271.929Z" style="fill:white;fill-rule:nonzero;"/>
        <path d="M3930.34,387.284L3963.58,455.83L3941.1,466.498L3942.73,481.313L3973.48,465.905L3981.07,401.902L3973.96,398.544L3968.67,445.361L3935.34,376.814L3930.34,387.284Z" style="fill:white;fill-rule:nonzero;"/>
        <path d="M4044.57,498.302C4059.66,498.302 4070.32,477.56 4070.32,441.015L4070.32,427.582L4045.44,427.582L4045.44,442.595L4062.35,442.595C4062.63,467.683 4055.72,482.894 4044.57,482.894C4033.33,482.894 4024.49,464.127 4024.49,424.817C4024.49,386.889 4033.81,369.703 4044.57,369.703C4055.43,369.703 4059.94,384.716 4061.77,402.692L4069.74,399.729C4067.53,372.863 4057.93,354.097 4044.57,354.097C4029.97,354.097 4016.13,377.604 4016.13,424.817C4016.13,477.56 4029.78,498.302 4044.57,498.302Z" style="fill:white;fill-rule:nonzero;"/>
        <path d="M4119.03,463.139C4117.2,470.053 4114.13,483.684 4103.85,483.684C4093.28,483.684 4088.38,466.3 4088.29,447.731L4126.52,447.731L4126.52,442.99C4126.52,408.026 4117.01,387.679 4103.66,387.679C4090.21,387.679 4080.41,409.013 4080.41,442.99C4080.41,476.967 4090.4,498.302 4104.04,498.302C4115.19,498.302 4122.01,485.264 4125.37,471.634L4119.03,463.139ZM4088.48,434.891C4088.58,422.051 4092.71,402.297 4103.66,402.297C4114.71,402.297 4118.55,419.68 4118.74,434.891L4088.48,434.891Z" style="fill:white;fill-rule:nonzero;"/>
        <path d="M4135.65,459.781C4136.71,480.523 4143.05,498.302 4157.27,498.302C4171.3,498.302 4176.68,482.301 4176.68,467.683C4176.58,451.287 4172.74,442.398 4159.29,434.496C4147.18,427.385 4144.78,425.014 4144.78,416.125C4144.78,409.013 4148.05,401.507 4155.15,401.507C4162.55,401.507 4166.3,409.408 4168.12,421.458L4174.95,417.705C4172.93,400.914 4166.97,387.679 4155.15,387.679C4143.63,387.679 4137.48,401.902 4137.48,416.52C4137.48,431.928 4142.19,439.632 4154.58,446.744C4166.49,453.46 4169.28,457.213 4169.28,467.683C4169.28,477.165 4165.53,484.276 4157.17,484.276C4148.62,484.276 4144.01,474.992 4143.05,456.818L4135.65,459.781Z" style="fill:white;fill-rule:nonzero;"/>
        <path d="M4190.99,464.917C4190.99,484.474 4194.74,495.339 4204.63,495.339L4208.86,495.339L4208.86,479.733L4205.02,479.733C4199.83,479.733 4198.77,474.597 4198.77,462.942L4198.77,405.062L4211.26,405.062L4211.26,390.642L4198.68,390.642L4198.68,364.962L4191.18,364.962L4191.18,390.642L4183.88,390.642L4183.88,405.062L4190.99,405.062L4190.99,464.917Z" style="fill:white;fill-rule:nonzero;"/>
        <path d="M4252.38,495.339L4259.3,495.339L4259.3,424.817C4259.3,398.148 4251.33,387.679 4240.18,387.679C4229.13,387.679 4222.5,401.112 4220.97,418.693L4228.08,422.841C4229.32,411.186 4232.49,402.099 4240.47,402.099C4248.15,402.099 4251.13,409.408 4251.13,417.705C4251.13,427.977 4245.66,430.94 4236.53,435.681C4224.14,442.2 4219.43,451.089 4219.43,468.473C4219.43,484.474 4224.71,498.302 4236.63,498.302C4245.75,498.302 4250.75,489.017 4252.19,483.881L4252.38,483.881L4252.38,495.339ZM4238.36,448.126C4248.83,442.2 4250.75,438.644 4251.42,435.681L4251.61,435.681L4251.61,461.757C4251.61,473.412 4246.91,483.881 4237.2,483.881C4229.61,483.881 4227.11,476.967 4227.11,467.485C4227.11,458.794 4229.23,453.262 4238.36,448.126Z" style="fill:white;fill-rule:nonzero;"/>
        <rect x="4274.67" y="351.134" width="7.974" height="144.205" style="fill:white;fill-rule:nonzero;"/>
        <path d="M4300.81,464.917C4300.81,484.474 4304.55,495.339 4314.45,495.339L4318.68,495.339L4318.68,479.733L4314.83,479.733C4309.64,479.733 4308.59,474.597 4308.59,462.942L4308.59,405.062L4321.08,405.062L4321.08,390.642L4308.49,390.642L4308.49,364.962L4301,364.962L4301,390.642L4293.69,390.642L4293.69,405.062L4300.81,405.062L4300.81,464.917Z" style="fill:white;fill-rule:nonzero;"/>
        <path d="M4333.09,458.794C4333.09,485.857 4340.1,498.302 4351.05,498.302C4360.27,498.302 4364.6,485.264 4364.6,485.264L4364.79,485.264L4364.79,495.339L4372.48,495.339L4372.48,390.642L4364.69,390.642L4364.69,455.633C4364.69,473.016 4360.47,483.289 4352.78,483.289C4344.33,483.289 4340.96,475.98 4340.96,456.423L4340.96,390.642L4333.09,390.642L4333.09,458.794Z" style="fill:white;fill-rule:nonzero;"/>
        <path d="M4388.81,495.339L4396.69,495.339L4396.69,428.57C4396.69,411.976 4402.07,402.494 4409.85,402.494C4417.82,402.494 4421.57,412.767 4421.57,431.73L4421.57,495.339L4429.35,495.339L4429.35,426.594C4429.35,402.297 4421.95,387.679 4411,387.679C4405.05,387.679 4399.38,393.408 4396.69,400.717L4396.49,400.717L4396.49,390.642L4388.81,390.642L4388.81,495.339Z" style="fill:white;fill-rule:nonzero;"/>
        <path d="M4445.69,514.302C4448.38,530.501 4455.01,542.748 4465.86,542.748C4478.35,542.748 4486.33,527.34 4486.33,496.919L4486.33,390.642L4478.64,390.642L4478.64,400.717L4478.45,400.717C4475.37,392.815 4470.57,387.679 4464.13,387.679C4451.74,387.679 4441.84,408.816 4441.84,442.99C4441.84,477.165 4450.97,498.302 4464.23,498.302C4471.72,498.302 4476.05,491.783 4478.35,486.252L4478.54,486.252L4478.54,500.277C4478.54,517.858 4473.93,528.328 4465.67,528.328C4457.5,528.328 4454.24,518.253 4452.32,507.389L4445.69,514.302ZM4478.54,460.966C4478.54,472.819 4473.07,483.684 4465.38,483.684C4455.2,483.684 4449.72,468.473 4449.72,442.99C4449.72,417.507 4455.29,402.297 4465.38,402.297C4473.84,402.297 4478.54,415.927 4478.54,427.78L4478.54,460.966Z" style="fill:white;fill-rule:nonzero;"/>
        <path d="M4561.46,463.139C4559.63,470.053 4556.56,483.684 4546.28,483.684C4535.71,483.684 4530.81,466.3 4530.71,447.731L4568.95,447.731L4568.95,442.99C4568.95,408.026 4559.44,387.679 4546.08,387.679C4532.63,387.679 4522.83,409.013 4522.83,442.99C4522.83,476.967 4532.83,498.302 4546.47,498.302C4557.61,498.302 4564.44,485.264 4567.8,471.634L4561.46,463.139ZM4530.9,434.891C4531,422.051 4535.13,402.297 4546.08,402.297C4557.13,402.297 4560.98,419.68 4561.17,434.891L4530.9,434.891Z" style="fill:white;fill-rule:nonzero;"/>
        <path d="M4582.5,495.339L4590.38,495.339L4590.38,390.642L4582.5,390.642L4582.5,495.339ZM4581.92,369.505L4590.95,369.505L4590.95,351.134L4581.92,351.134L4581.92,369.505Z" style="fill:white;fill-rule:nonzero;"/>
        <path d="M4607.28,495.339L4615.16,495.339L4615.16,428.57C4615.16,411.976 4620.54,402.494 4628.32,402.494C4636.3,402.494 4640.05,412.767 4640.05,431.73L4640.05,495.339L4647.83,495.339L4647.83,426.594C4647.83,402.297 4640.43,387.679 4629.48,387.679C4623.52,387.679 4617.85,393.408 4615.16,400.717L4614.97,400.717L4614.97,390.642L4607.28,390.642L4607.28,495.339Z" style="fill:white;fill-rule:nonzero;"/>
        <path d="M4698.94,463.139C4697.11,470.053 4694.04,483.684 4683.76,483.684C4673.19,483.684 4668.29,466.3 4668.2,447.731L4706.43,447.731L4706.43,442.99C4706.43,408.026 4696.92,387.679 4683.57,387.679C4670.12,387.679 4660.32,409.013 4660.32,442.99C4660.32,476.967 4670.31,498.302 4683.95,498.302C4695.1,498.302 4701.92,485.264 4705.28,471.634L4698.94,463.139ZM4668.39,434.891C4668.48,422.051 4672.61,402.297 4683.57,402.297C4694.62,402.297 4698.46,419.68 4698.65,434.891L4668.39,434.891Z" style="fill:white;fill-rule:nonzero;"/>
        <path d="M4715.56,459.781C4716.62,480.523 4722.96,498.302 4737.18,498.302C4751.2,498.302 4756.59,482.301 4756.59,467.683C4756.49,451.287 4752.65,442.398 4739.19,434.496C4727.09,427.385 4724.69,425.014 4724.69,416.125C4724.69,409.013 4727.95,401.507 4735.06,401.507C4742.46,401.507 4746.21,409.408 4748.03,421.458L4754.86,417.705C4752.84,400.914 4746.88,387.679 4735.06,387.679C4723.53,387.679 4717.39,401.902 4717.39,416.52C4717.39,431.928 4722.09,439.632 4734.49,446.744C4746.4,453.46 4749.19,457.213 4749.19,467.683C4749.19,477.165 4745.44,484.276 4737.08,484.276C4728.53,484.276 4723.92,474.992 4722.96,456.818L4715.56,459.781Z" style="fill:white;fill-rule:nonzero;"/>
        <path d="M4789.73,447.731C4791.75,480.523 4800.49,498.302 4816.73,498.302C4832,498.302 4840.17,479.733 4840.17,458.201C4840.17,437.657 4835.85,427.582 4817.59,415.335C4802.89,405.458 4800.88,400.519 4800.88,390.444C4800.88,379.382 4805.01,369.703 4813.94,369.703C4824.22,369.703 4827.87,380.567 4829.31,395.778L4837.38,392.222C4835.65,366.344 4826.05,354.097 4813.94,354.097C4800.49,354.097 4792.81,371.283 4792.81,390.444C4792.81,410.198 4799.24,420.273 4813.65,429.755C4829.79,440.62 4832.2,446.546 4832.2,458.991C4832.2,471.239 4827.58,482.894 4817.02,482.894C4804.05,482.894 4799.91,469.658 4798.09,444.373L4789.73,447.731Z" style="fill:white;fill-rule:nonzero;"/>
        <path d="M4854.01,464.917C4854.01,484.474 4857.75,495.339 4867.65,495.339L4871.88,495.339L4871.88,479.733L4868.03,479.733C4862.84,479.733 4861.79,474.597 4861.79,462.942L4861.79,405.062L4874.28,405.062L4874.28,390.642L4861.69,390.642L4861.69,364.962L4854.2,364.962L4854.2,390.642L4846.9,390.642L4846.9,405.062L4854.01,405.062L4854.01,464.917Z" style="fill:white;fill-rule:nonzero;"/>
        <path d="M4886.29,458.794C4886.29,485.857 4893.3,498.302 4904.25,498.302C4913.48,498.302 4917.8,485.264 4917.8,485.264L4917.99,485.264L4917.99,495.339L4925.68,495.339L4925.68,390.642L4917.9,390.642L4917.9,455.633C4917.9,473.016 4913.67,483.289 4905.98,483.289C4897.53,483.289 4894.16,475.98 4894.16,456.423L4894.16,390.642L4886.29,390.642L4886.29,458.794Z" style="fill:white;fill-rule:nonzero;"/>
        <path d="M4975.06,460.571C4975.06,472.621 4969.68,483.684 4961.99,483.684C4951.81,483.684 4946.53,468.473 4946.53,442.99C4946.53,417.507 4951.81,402.297 4961.99,402.297C4970.45,402.297 4975.06,416.125 4975.06,428.175L4975.06,460.571ZM4975.83,495.339L4982.94,495.339L4982.94,351.134L4975.06,351.134L4975.06,400.717L4974.87,400.717C4972.27,394.395 4967.66,387.679 4960.74,387.679C4948.45,387.679 4938.65,408.816 4938.65,442.99C4938.65,476.572 4947.29,498.302 4960.74,498.302C4968.33,498.302 4973.52,490.4 4975.64,485.264L4975.83,485.264L4975.83,495.339Z" style="fill:white;fill-rule:nonzero;"/>
        <path d="M4999.85,495.339L5007.73,495.339L5007.73,390.642L4999.85,390.642L4999.85,495.339ZM4999.27,369.505L5008.3,369.505L5008.3,351.134L4999.27,351.134L4999.27,369.505Z" style="fill:white;fill-rule:nonzero;"/>
        <path d="M5024.15,458.794C5024.15,485.857 5031.17,498.302 5042.12,498.302C5051.34,498.302 5055.67,485.264 5055.67,485.264L5055.86,485.264L5055.86,495.339L5063.55,495.339L5063.55,390.642L5055.76,390.642L5055.76,455.633C5055.76,473.016 5051.53,483.289 5043.85,483.289C5035.4,483.289 5032.03,475.98 5032.03,456.423L5032.03,390.642L5024.15,390.642L5024.15,458.794Z" style="fill:white;fill-rule:nonzero;"/>
        <path d="M5079.88,495.339L5087.66,495.339L5087.66,427.582C5087.66,414.149 5090.73,402.494 5098.61,402.494C5105.82,402.494 5108.99,411.581 5108.99,428.965L5108.99,495.339L5116.58,495.339L5116.58,427.582C5116.58,411.779 5120.71,402.494 5127.72,402.494C5134.83,402.494 5138.1,411.581 5138.1,428.965L5138.1,495.339L5145.69,495.339L5145.69,424.026C5145.69,401.704 5138.87,387.679 5128.11,387.679C5121.19,387.679 5116,395.383 5113.79,403.087L5113.6,403.087C5111.49,395.383 5107.07,387.679 5100.15,387.679C5094.67,387.679 5089.58,393.21 5087.18,400.717L5086.99,400.717L5086.99,390.642L5079.88,390.642L5079.88,495.339Z" style="fill:white;fill-rule:nonzero;"/>
        <path d="M5157.7,459.781C5158.76,480.523 5165.1,498.302 5179.32,498.302C5193.34,498.302 5198.72,482.301 5198.72,467.683C5198.63,451.287 5194.78,442.398 5181.33,434.496C5169.23,427.385 5166.83,425.014 5166.83,416.125C5166.83,409.013 5170.09,401.507 5177.2,401.507C5184.6,401.507 5188.35,409.408 5190.17,421.458L5196.99,417.705C5194.98,400.914 5189.02,387.679 5177.2,387.679C5165.67,387.679 5159.52,401.902 5159.52,416.52C5159.52,431.928 5164.23,439.632 5176.62,446.744C5188.54,453.46 5191.32,457.213 5191.32,467.683C5191.32,477.165 5187.58,484.276 5179.22,484.276C5170.67,484.276 5166.06,474.992 5165.1,456.818L5157.7,459.781Z" style="fill:white;fill-rule:nonzero;"/>
        <path d="M3932.45,670.232L3969.42,670.232L3959.66,702.945L3965.2,709.741L3978.72,664.069L3965.43,618.872L3959.89,625.667L3969.5,657.748L3938.83,657.748L3938.83,608.126L3932.45,608.126L3932.45,670.232Z" style="fill:white;fill-rule:nonzero;"/>
        <path d="M4008.31,718.748L4038.06,718.748L4038.06,706.738L4014.69,706.738L4014.69,608.126L4008.31,608.126L4008.31,718.748Z" style="fill:white;fill-rule:nonzero;"/>
        <path d="M4062.73,709.425C4055.89,709.425 4050.43,698.52 4050.43,676.87C4050.43,655.377 4055.81,644.315 4062.73,644.315C4069.49,644.315 4074.72,655.693 4074.72,676.87C4074.72,698.046 4069.34,709.425 4062.73,709.425ZM4062.73,721.119C4072.95,721.119 4080.95,705.474 4080.95,676.87C4080.95,648.266 4072.41,632.621 4062.73,632.621C4052.89,632.621 4044.21,648.266 4044.21,676.87C4044.21,705.474 4052.35,721.119 4062.73,721.119Z" style="fill:white;fill-rule:nonzero;"/>
        <path d="M4090.94,689.512C4090.94,711.163 4096.55,721.119 4105.31,721.119C4112.69,721.119 4116.15,710.689 4116.15,710.689L4116.3,710.689L4116.3,718.748L4122.45,718.748L4122.45,634.991L4116.23,634.991L4116.23,686.984C4116.23,700.891 4112.84,709.108 4106.69,709.108C4099.93,709.108 4097.24,703.261 4097.24,687.616L4097.24,634.991L4090.94,634.991L4090.94,689.512Z" style="fill:white;fill-rule:nonzero;"/>
        <path d="M4135.98,718.748L4142.28,718.748L4142.28,634.991L4135.98,634.991L4135.98,718.748ZM4135.52,618.082L4142.74,618.082L4142.74,603.385L4135.52,603.385L4135.52,618.082Z" style="fill:white;fill-rule:nonzero;"/>
        <path d="M4152.73,690.303C4153.58,706.896 4158.65,721.119 4170.03,721.119C4181.25,721.119 4185.55,708.318 4185.55,696.624C4185.48,683.507 4182.4,676.396 4171.64,670.074C4161.96,664.385 4160.03,662.489 4160.03,655.377C4160.03,649.688 4162.65,643.683 4168.34,643.683C4174.25,643.683 4177.25,650.004 4178.71,659.644L4184.17,656.642C4182.56,643.209 4177.79,632.621 4168.34,632.621C4159.11,632.621 4154.19,643.999 4154.19,655.693C4154.19,668.02 4157.96,674.183 4167.88,679.872C4177.41,685.246 4179.64,688.248 4179.64,696.624C4179.64,704.209 4176.64,709.899 4169.95,709.899C4163.11,709.899 4159.42,702.471 4158.65,687.932L4152.73,690.303Z" style="fill:white;fill-rule:nonzero;"/>
        <path d="M4215.53,718.748L4234.9,718.748C4248.19,718.748 4253.88,705.948 4253.88,686.036C4253.88,671.023 4249.5,662.173 4245.2,659.328L4245.2,658.854C4248.89,655.535 4251.88,648.582 4251.88,636.73C4251.88,620.452 4245.89,608.126 4236.2,608.126L4215.53,608.126L4215.53,718.748ZM4221.91,654.903L4221.91,620.136L4234.97,620.136C4241.58,620.136 4245.58,626.141 4245.58,637.52C4245.58,648.582 4242.28,654.903 4235.05,654.903L4221.91,654.903ZM4221.91,706.738L4221.91,666.598L4234.2,666.598C4243.12,666.598 4247.58,671.655 4247.58,686.036C4247.58,701.049 4242.74,706.738 4234.05,706.738L4221.91,706.738Z" style="fill:white;fill-rule:nonzero;"/>
        <path d="M4292.85,692.989C4291.39,698.52 4288.93,709.425 4280.71,709.425C4272.25,709.425 4268.33,695.518 4268.25,680.663L4298.85,680.663L4298.85,676.87C4298.85,648.898 4291.24,632.621 4280.55,632.621C4269.79,632.621 4261.95,649.688 4261.95,676.87C4261.95,704.051 4269.94,721.119 4280.86,721.119C4289.77,721.119 4295.23,710.689 4297.92,699.785L4292.85,692.989ZM4268.41,670.39C4268.48,660.118 4271.79,644.315 4280.55,644.315C4289.39,644.315 4292.47,658.222 4292.62,670.39L4268.41,670.39Z" style="fill:white;fill-rule:nonzero;"/>
        <path d="M4309.22,718.748L4315.52,718.748L4315.52,668.968C4315.52,653.323 4317.75,646.686 4322.98,646.686C4325.05,646.686 4326.21,647.95 4326.21,647.95L4327.36,635.149C4327.36,635.149 4325.9,633.569 4323.82,633.569C4320.75,633.569 4317.14,636.888 4315.37,643.999L4315.22,643.999L4315.22,634.991L4309.22,634.991L4309.22,718.748Z" style="fill:white;fill-rule:nonzero;"/>
        <path d="M4336.2,718.748L4342.5,718.748L4342.5,665.333C4342.5,652.059 4346.81,644.473 4353.03,644.473C4359.41,644.473 4362.41,652.691 4362.41,667.862L4362.41,718.748L4368.63,718.748L4368.63,663.753C4368.63,644.315 4362.72,632.621 4353.95,632.621C4349.19,632.621 4344.65,637.204 4342.5,643.051L4342.35,643.051L4342.35,634.991L4336.2,634.991L4336.2,718.748Z" style="fill:white;fill-rule:nonzero;"/>
        <path d="M4397.15,709.425C4390.31,709.425 4384.85,698.52 4384.85,676.87C4384.85,655.377 4390.23,644.315 4397.15,644.315C4403.91,644.315 4409.14,655.693 4409.14,676.87C4409.14,698.046 4403.76,709.425 4397.15,709.425ZM4397.15,721.119C4407.37,721.119 4415.36,705.474 4415.36,676.87C4415.36,648.266 4406.83,632.621 4397.15,632.621C4387.31,632.621 4378.62,648.266 4378.62,676.87C4378.62,705.474 4386.77,721.119 4397.15,721.119Z" style="fill:white;fill-rule:nonzero;"/>
        <path d="M4427.2,694.411C4427.2,710.057 4430.2,718.748 4438.11,718.748L4441.5,718.748L4441.5,706.264L4438.42,706.264C4434.27,706.264 4433.43,702.155 4433.43,692.831L4433.43,646.528L4443.42,646.528L4443.42,634.991L4433.35,634.991L4433.35,614.447L4427.36,614.447L4427.36,634.991L4421.51,634.991L4421.51,646.528L4427.2,646.528L4427.2,694.411Z" style="fill:white;fill-rule:nonzero;"/>
        <path d="M4453.41,718.748L4459.71,718.748L4459.71,666.124C4459.71,653.323 4463.94,644.473 4470.63,644.473C4477.24,644.473 4480.08,653.481 4480.08,667.546L4480.08,718.748L4486.38,718.748L4486.38,664.069C4486.38,643.209 4480.16,632.621 4471.78,632.621C4466.78,632.621 4462.1,637.204 4459.87,643.367L4459.71,643.367L4459.71,603.385L4453.41,603.385L4453.41,718.748Z" style="fill:white;fill-rule:nonzero;"/>
    </g>
    <g transform="matrix(0.145569,0,0,0.145569,376.765,-770.137)">
        <path d="M698.876,5583.08L698.876,5536.38C698.876,5519.25 684.864,5505.24 667.738,5505.24L597.679,5505.24L574.326,5528.59C563.428,5539.49 565.764,5550 574.326,5559.73L605.464,5528.59L644.385,5528.59L552.141,5620.84L518.668,5620.84C496.872,5620.84 488.699,5636.4 488.699,5645.36L574.326,5645.36L609.356,5610.33L659.954,5660.93L659.954,5702.96C659.954,5734.1 676.69,5738.77 683.307,5738.77L683.307,5645.36L636.601,5598.65L675.523,5559.73L675.523,5590.87L692.648,5607.99C710.552,5625.9 726.121,5617.72 730.402,5614.22L698.876,5583.08ZM730.791,5481.89C730.791,5469.04 720.282,5458.53 707.438,5458.53C694.594,5458.53 684.085,5469.04 684.085,5481.89C684.085,5494.73 694.594,5505.24 707.438,5505.24C720.282,5505.24 730.791,5494.73 730.791,5481.89Z" style="fill:white;fill-rule:nonzero;"/>
    </g>
    <g transform="matrix(0.145569,0,0,0.145569,334.084,-770.137)">
        <path d="M698.876,5583.08L698.876,5536.38C698.876,5519.25 684.864,5505.24 667.738,5505.24L597.679,5505.24L574.326,5528.59C563.428,5539.49 565.764,5550 574.326,5559.73L605.464,5528.59L644.385,5528.59L552.141,5620.84L518.668,5620.84C496.872,5620.84 488.699,5636.4 488.699,5645.36L574.326,5645.36L609.356,5610.33L659.954,5660.93L659.954,5702.96C659.954,5734.1 676.69,5738.77 683.307,5738.77L683.307,5645.36L636.601,5598.65L675.523,5559.73L675.523,5590.87L692.648,5607.99C710.552,5625.9 726.121,5617.72 730.402,5614.22L698.876,5583.08ZM730.791,5481.89C730.791,5469.04 720.282,5458.53 707.438,5458.53C694.594,5458.53 684.085,5469.04 684.085,5481.89C684.085,5494.73 694.594,5505.24 707.438,5505.24C720.282,5505.24 730.791,5494.73 730.791,5481.89Z" style="fill:rgb(205,205,205);fill-rule:nonzero;"/>
    </g>
    <g transform="matrix(0.145569,0,0,0.145569,291.403,-770.137)">
        <path d="M698.876,5583.08L698.876,5536.38C698.876,5519.25 684.864,5505.24 667.738,5505.24L597.679,5505.24L574.326,5528.59C563.428,5539.49 565.764,5550 574.326,5559.73L605.464,5528.59L644.385,5528.59L552.141,5620.84L518.668,5620.84C496.872,5620.84 488.699,5636.4 488.699,5645.36L574.326,5645.36L609.356,5610.33L659.954,5660.93L659.954,5702.96C659.954,5734.1 676.69,5738.77 683.307,5738.77L683.307,5645.36L636.601,5598.65L675.523,5559.73L675.523,5590.87L692.648,5607.99C710.552,5625.9 726.121,5617.72 730.402,5614.22L698.876,5583.08ZM730.791,5481.89C730.791,5469.04 720.282,5458.53 707.438,5458.53C694.594,5458.53 684.085,5469.04 684.085,5481.89C684.085,5494.73 694.594,5505.24 707.438,5505.24C720.282,5505.24 730.791,5494.73 730.791,5481.89Z" style="fill:rgb(154,154,154);fill-rule:nonzero;"/>
    </g>
    <g transform="matrix(0.145569,0,0,0.145569,248.723,-770.137)">
        <path d="M698.876,5583.08L698.876,5536.38C698.876,5519.25 684.864,5505.24 667.738,5505.24L597.679,5505.24L574.326,5528.59C563.428,5539.49 565.764,5550 574.326,5559.73L605.464,5528.59L644.385,5528.59L552.141,5620.84L518.668,5620.84C496.872,5620.84 488.699,5636.4 488.699,5645.36L574.326,5645.36L609.356,5610.33L659.954,5660.93L659.954,5702.96C659.954,5734.1 676.69,5738.77 683.307,5738.77L683.307,5645.36L636.601,5598.65L675.523,5559.73L675.523,5590.87L692.648,5607.99C710.552,5625.9 726.121,5617.72 730.402,5614.22L698.876,5583.08ZM730.791,5481.89C730.791,5469.04 720.282,5458.53 707.438,5458.53C694.594,5458.53 684.085,5469.04 684.085,5481.89C684.085,5494.73 694.594,5505.24 707.438,5505.24C720.282,5505.24 730.791,5494.73 730.791,5481.89Z" style="fill:rgb(102,102,102);fill-rule:nonzero;"/>
    </g>
    <g transform="matrix(0.145569,0,0,0.145569,206.042,-770.137)">
        <path d="M698.876,5583.08L698.876,5536.38C698.876,5519.25 684.864,5505.24 667.738,5505.24L597.679,5505.24L574.326,5528.59C563.428,5539.49 565.764,5550 574.326,5559.73L605.464,5528.59L644.385,5528.59L552.141,5620.84L518.668,5620.84C496.872,5620.84 488.699,5636.4 488.699,5645.36L574.326,5645.36L609.356,5610.33L659.954,5660.93L659.954,5702.96C659.954,5734.1 676.69,5738.77 683.307,5738.77L683.307,5645.36L636.601,5598.65L675.523,5559.73L675.523,5590.87L692.648,5607.99C710.552,5625.9 726.121,5617.72 730.402,5614.22L698.876,5583.08ZM730.791,5481.89C730.791,5469.04 720.282,5458.53 707.438,5458.53C694.594,5458.53 684.085,5469.04 684.085,5481.89C684.085,5494.73 694.594,5505.24 707.438,5505.24C720.282,5505.24 730.791,5494.73 730.791,5481.89Z" style="fill:rgb(47,47,47);fill-rule:nonzero;"/>
    </g>
    <g transform="matrix(0.142361,1.7873e-33,-1.75489e-33,0.14499,441.619,-766.929)">
        <path d="M478.579,5499.4C469.238,5490.06 457.172,5485 443.55,5485C428.37,5485 418.64,5490.45 406.963,5500.18L369.209,5532.09C366.095,5534.82 364.928,5538.71 364.928,5543.38L364.928,5595.15C371.934,5595.15 385.167,5589.31 385.167,5560.51L385.167,5545.33L416.304,5521.97L416.304,5705.3C416.304,5727.48 426.424,5736.43 441.603,5739.55L441.603,5602.93L477.022,5644.19L477.022,5680.39C477.022,5702.57 487.531,5711.52 501.932,5714.64L501.932,5632.12L470.405,5594.76L470.405,5522.36L508.938,5559.73C521.004,5571.4 534.626,5572.18 543.967,5564.79L478.579,5499.4ZM738.965,5614.22L672.798,5614.22L672.798,5649.25L622.2,5649.25L622.2,5684.28L571.602,5684.28L571.602,5719.31L521.004,5719.31L521.004,5738.77L591.063,5738.77L591.063,5703.74L641.661,5703.74L641.661,5668.71L692.259,5668.71L692.259,5633.68L738.965,5633.68L738.965,5614.22ZM468.07,5450.75C468.07,5437.9 457.561,5427.4 444.717,5427.4C431.873,5427.4 421.364,5437.9 421.364,5450.75C421.364,5463.59 431.873,5474.1 444.717,5474.1C457.561,5474.1 468.07,5463.59 468.07,5450.75Z" style="fill:white;fill-rule:nonzero;"/>
    </g>
</svg>
