<?xml version="1.0" encoding="UTF-8" standalone="no"?>
<!DOCTYPE svg PUBLIC "-//W3C//DTD SVG 1.1//EN" "http://www.w3.org/Graphics/SVG/1.1/DTD/svg11.dtd">
<svg width="100%" height="100%" viewBox="0 0 2000 366" version="1.1" xmlns="http://www.w3.org/2000/svg" xmlns:xlink="http://www.w3.org/1999/xlink" xml:space="preserve" xmlns:serif="http://www.serif.com/" style="fill-rule:evenodd;clip-rule:evenodd;stroke-linejoin:round;stroke-miterlimit:2;">
    <g id="ArtBoard1" transform="matrix(1,0,0,0.257411,0,0)">
        <rect x="0" y="0" width="2000" height="1418" style="fill:none;"/>
        <g transform="matrix(1,0,0,3.88483,592.992,322.999)">
            <g transform="matrix(64,0,0,64,0,46.72)">
                <path d="M0.06,-0.302L0.531,-0.302L0.405,-0.097L0.485,-0.049L0.665,-0.346L0.486,-0.641L0.406,-0.594L0.531,-0.392L0.06,-0.392L0.06,-0.302Z" style="fill:rgb(49,35,130);fill-rule:nonzero;"/>
            </g>
            <g transform="matrix(64,0,0,64,60.8,46.72)">
                <path d="M0.08,-0L0.18,-0L0.18,-0.234L0.251,-0.321L0.253,-0.321L0.487,-0L0.608,-0L0.322,-0.393L0.579,-0.7L0.455,-0.7L0.183,-0.374L0.18,-0.374L0.18,-0.7L0.08,-0.7L0.08,-0Z" style="fill:rgb(49,35,130);fill-rule:nonzero;"/>
            </g>
            <g transform="matrix(64,0,0,64,99.712,46.72)">
                <path d="M0.385,-0L0.47,-0L0.47,-0.35C0.47,-0.491 0.38,-0.545 0.264,-0.545C0.144,-0.545 0.076,-0.476 0.058,-0.39L0.143,-0.36C0.156,-0.414 0.185,-0.46 0.266,-0.46C0.34,-0.46 0.37,-0.426 0.37,-0.388C0.37,-0.344 0.329,-0.33 0.223,-0.303C0.095,-0.271 0.045,-0.228 0.045,-0.138C0.045,-0.057 0.099,0.015 0.227,0.015C0.326,0.015 0.374,-0.038 0.383,-0.056L0.385,-0.056L0.385,-0ZM0.245,-0.232C0.352,-0.26 0.366,-0.276 0.373,-0.29L0.375,-0.29L0.375,-0.171C0.375,-0.119 0.331,-0.071 0.236,-0.071C0.168,-0.071 0.14,-0.099 0.14,-0.144C0.14,-0.181 0.156,-0.208 0.245,-0.232Z" style="fill:rgb(49,35,130);fill-rule:nonzero;"/>
            </g>
            <g transform="matrix(64,0,0,64,134.272,46.72)">
                <path d="M0.177,-0.334C0.177,-0.394 0.224,-0.456 0.306,-0.456C0.401,-0.456 0.459,-0.387 0.459,-0.265C0.459,-0.143 0.401,-0.073 0.306,-0.073C0.229,-0.073 0.177,-0.126 0.177,-0.186L0.177,-0.334ZM0.08,0.225L0.177,0.225L0.177,-0.051L0.179,-0.051C0.192,-0.033 0.242,0.015 0.325,0.015C0.456,0.015 0.556,-0.089 0.556,-0.265C0.556,-0.44 0.449,-0.545 0.324,-0.545C0.239,-0.545 0.19,-0.498 0.175,-0.479L0.173,-0.479L0.173,-0.53L0.08,-0.53L0.08,0.225Z" style="fill:rgb(49,35,130);fill-rule:nonzero;"/>
            </g>
            <g transform="matrix(64,0,0,64,172.736,46.72)">
                <path d="M0.084,-0L0.181,-0L0.181,-0.53L0.084,-0.53L0.084,-0ZM0.08,-0.627L0.185,-0.627L0.185,-0.73L0.08,-0.73L0.08,-0.627Z" style="fill:rgb(49,35,130);fill-rule:nonzero;"/>
            </g>
            <g transform="matrix(64,0,0,64,189.696,46.72)">
                <path d="M0.103,-0.166C0.103,-0.058 0.142,-0 0.26,-0L0.307,-0L0.307,-0.094L0.267,-0.094C0.21,-0.094 0.199,-0.119 0.199,-0.176L0.199,-0.445L0.33,-0.445L0.33,-0.53L0.198,-0.53L0.198,-0.66L0.105,-0.66L0.105,-0.53L0.025,-0.53L0.025,-0.445L0.103,-0.445L0.103,-0.166Z" style="fill:rgb(49,35,130);fill-rule:nonzero;"/>
            </g>
            <g transform="matrix(64,0,0,64,212.096,46.72)">
                <path d="M0.44,-0.169C0.419,-0.134 0.384,-0.072 0.291,-0.072C0.194,-0.072 0.146,-0.146 0.144,-0.236L0.528,-0.236L0.528,-0.265C0.528,-0.44 0.427,-0.545 0.288,-0.545C0.149,-0.545 0.045,-0.437 0.045,-0.265C0.045,-0.093 0.149,0.015 0.293,0.015C0.406,0.015 0.476,-0.047 0.513,-0.114L0.44,-0.169ZM0.145,-0.312C0.147,-0.374 0.19,-0.458 0.288,-0.458C0.388,-0.458 0.428,-0.385 0.431,-0.312L0.145,-0.312Z" style="fill:rgb(49,35,130);fill-rule:nonzero;"/>
            </g>
            <g transform="matrix(64,0,0,64,248.768,46.72)">
                <rect x="0.08" y="-0.73" width="0.1" height="0.73" style="fill:rgb(49,35,130);"/>
            </g>
            <g transform="matrix(64,0,0,64,0,122.72)">
                <path d="M0.03,-0.534L0.368,-0.197L0.135,-0.143L0.155,-0.057L0.488,-0.138L0.57,-0.474L0.484,-0.494L0.43,-0.259L0.093,-0.597L0.03,-0.534Z" style="fill:rgb(49,35,130);fill-rule:nonzero;"/>
            </g>
            <g transform="matrix(64,0,0,64,55.68,122.72)">
                <path d="M0.232,-0L0.332,-0L0.332,-0.607L0.545,-0.607L0.545,-0.7L0.02,-0.7L0.02,-0.607L0.232,-0.607L0.232,-0Z" style="fill:rgb(49,35,130);fill-rule:nonzero;"/>
            </g>
            <g transform="matrix(64,0,0,64,91.84,122.72)">
                <path d="M0.08,-0L0.177,-0L0.177,-0.333C0.177,-0.404 0.228,-0.455 0.303,-0.455C0.382,-0.455 0.418,-0.401 0.418,-0.324L0.418,-0L0.515,-0L0.515,-0.348C0.515,-0.475 0.436,-0.545 0.326,-0.545C0.262,-0.545 0.205,-0.514 0.179,-0.477L0.177,-0.477L0.177,-0.73L0.08,-0.73L0.08,-0Z" style="fill:rgb(49,35,130);fill-rule:nonzero;"/>
            </g>
            <g transform="matrix(64,0,0,64,129.6,122.72)">
                <path d="M0.44,-0.169C0.419,-0.134 0.384,-0.072 0.291,-0.072C0.194,-0.072 0.146,-0.146 0.144,-0.236L0.528,-0.236L0.528,-0.265C0.528,-0.44 0.427,-0.545 0.288,-0.545C0.149,-0.545 0.045,-0.437 0.045,-0.265C0.045,-0.093 0.149,0.015 0.293,0.015C0.406,0.015 0.476,-0.047 0.513,-0.114L0.44,-0.169ZM0.145,-0.312C0.147,-0.374 0.19,-0.458 0.288,-0.458C0.388,-0.458 0.428,-0.385 0.431,-0.312L0.145,-0.312Z" style="fill:rgb(49,35,130);fill-rule:nonzero;"/>
            </g>
            <g transform="matrix(64,0,0,64,166.272,122.72)">
                <path d="M0.08,-0L0.175,-0L0.175,-0.343C0.175,-0.403 0.207,-0.455 0.282,-0.455C0.352,-0.455 0.385,-0.411 0.385,-0.336L0.385,-0L0.477,-0L0.477,-0.343C0.477,-0.412 0.515,-0.455 0.584,-0.455C0.656,-0.455 0.687,-0.411 0.687,-0.336L0.687,-0L0.779,-0L0.779,-0.361C0.779,-0.473 0.706,-0.545 0.589,-0.545C0.521,-0.545 0.467,-0.508 0.442,-0.47L0.44,-0.47C0.417,-0.509 0.37,-0.545 0.303,-0.545C0.246,-0.545 0.195,-0.516 0.17,-0.479L0.168,-0.479L0.168,-0.53L0.08,-0.53L0.08,-0Z" style="fill:rgb(49,35,130);fill-rule:nonzero;"/>
            </g>
            <g transform="matrix(64,0,0,64,220.928,122.72)">
                <path d="M0.385,-0L0.47,-0L0.47,-0.35C0.47,-0.491 0.38,-0.545 0.264,-0.545C0.144,-0.545 0.076,-0.476 0.058,-0.39L0.143,-0.36C0.156,-0.414 0.185,-0.46 0.266,-0.46C0.34,-0.46 0.37,-0.426 0.37,-0.388C0.37,-0.344 0.329,-0.33 0.223,-0.303C0.095,-0.271 0.045,-0.228 0.045,-0.138C0.045,-0.057 0.099,0.015 0.227,0.015C0.326,0.015 0.374,-0.038 0.383,-0.056L0.385,-0.056L0.385,-0ZM0.245,-0.232C0.352,-0.26 0.366,-0.276 0.373,-0.29L0.375,-0.29L0.375,-0.171C0.375,-0.119 0.331,-0.071 0.236,-0.071C0.168,-0.071 0.14,-0.099 0.14,-0.144C0.14,-0.181 0.156,-0.208 0.245,-0.232Z" style="fill:rgb(49,35,130);fill-rule:nonzero;"/>
            </g>
            <g transform="matrix(64,0,0,64,255.488,122.72)">
                <path d="M0.103,-0.166C0.103,-0.058 0.142,-0 0.26,-0L0.307,-0L0.307,-0.094L0.267,-0.094C0.21,-0.094 0.199,-0.119 0.199,-0.176L0.199,-0.445L0.33,-0.445L0.33,-0.53L0.198,-0.53L0.198,-0.66L0.105,-0.66L0.105,-0.53L0.025,-0.53L0.025,-0.445L0.103,-0.445L0.103,-0.166Z" style="fill:rgb(49,35,130);fill-rule:nonzero;"/>
            </g>
            <g transform="matrix(64,0,0,64,279.168,122.72)">
                <path d="M0.084,-0L0.181,-0L0.181,-0.53L0.084,-0.53L0.084,-0ZM0.08,-0.627L0.185,-0.627L0.185,-0.73L0.08,-0.73L0.08,-0.627Z" style="fill:rgb(49,35,130);fill-rule:nonzero;"/>
            </g>
            <g transform="matrix(64,0,0,64,296.128,122.72)">
                <path d="M0.04,-0.178C0.051,-0.078 0.118,0.015 0.27,0.015C0.418,0.015 0.477,-0.069 0.476,-0.143C0.476,-0.223 0.439,-0.271 0.302,-0.309C0.172,-0.346 0.149,-0.357 0.149,-0.397C0.149,-0.43 0.181,-0.463 0.249,-0.463C0.324,-0.463 0.358,-0.423 0.376,-0.368L0.46,-0.391C0.437,-0.478 0.373,-0.545 0.248,-0.545C0.125,-0.545 0.059,-0.47 0.059,-0.394C0.059,-0.314 0.112,-0.274 0.237,-0.24C0.356,-0.207 0.387,-0.192 0.387,-0.144C0.387,-0.1 0.347,-0.068 0.267,-0.068C0.185,-0.068 0.14,-0.113 0.13,-0.198L0.04,-0.178Z" style="fill:rgb(49,35,130);fill-rule:nonzero;"/>
            </g>
            <g transform="matrix(64,0,0,64,329.216,122.72)">
                <path d="M0.416,-0.207C0.405,-0.138 0.369,-0.073 0.289,-0.073C0.198,-0.073 0.141,-0.143 0.141,-0.265C0.141,-0.388 0.2,-0.456 0.288,-0.456C0.368,-0.456 0.405,-0.398 0.415,-0.334L0.51,-0.349C0.497,-0.463 0.411,-0.545 0.288,-0.545C0.157,-0.545 0.045,-0.446 0.045,-0.265C0.045,-0.087 0.148,0.015 0.287,0.015C0.414,0.015 0.495,-0.062 0.513,-0.183L0.416,-0.207Z" style="fill:rgb(49,35,130);fill-rule:nonzero;"/>
            </g>
            <g transform="matrix(64,0,0,64,364.608,122.72)">
                <path d="M0.08,-0L0.177,-0L0.177,-0.333C0.177,-0.404 0.228,-0.455 0.303,-0.455C0.382,-0.455 0.418,-0.401 0.418,-0.324L0.418,-0L0.515,-0L0.515,-0.348C0.515,-0.475 0.436,-0.545 0.326,-0.545C0.262,-0.545 0.205,-0.514 0.179,-0.477L0.177,-0.477L0.177,-0.73L0.08,-0.73L0.08,-0Z" style="fill:rgb(49,35,130);fill-rule:nonzero;"/>
            </g>
            <g transform="matrix(64,0,0,64,402.368,122.72)">
                <path d="M0.44,-0.169C0.419,-0.134 0.384,-0.072 0.291,-0.072C0.194,-0.072 0.146,-0.146 0.144,-0.236L0.528,-0.236L0.528,-0.265C0.528,-0.44 0.427,-0.545 0.288,-0.545C0.149,-0.545 0.045,-0.437 0.045,-0.265C0.045,-0.093 0.149,0.015 0.293,0.015C0.406,0.015 0.476,-0.047 0.513,-0.114L0.44,-0.169ZM0.145,-0.312C0.147,-0.374 0.19,-0.458 0.288,-0.458C0.388,-0.458 0.428,-0.385 0.431,-0.312L0.145,-0.312Z" style="fill:rgb(49,35,130);fill-rule:nonzero;"/>
            </g>
            <g transform="matrix(64,0,0,64,455.04,122.72)">
                <path d="M0.51,-0L0.616,-0L0.364,-0.7L0.268,-0.7L0.015,-0L0.119,-0L0.164,-0.129L0.464,-0.129L0.51,-0ZM0.313,-0.556L0.315,-0.556L0.434,-0.215L0.194,-0.215L0.313,-0.556Z" style="fill:rgb(49,35,130);fill-rule:nonzero;"/>
            </g>
            <g transform="matrix(64,0,0,64,495.424,122.72)">
                <path d="M0.177,-0.331C0.177,-0.392 0.223,-0.456 0.306,-0.456C0.401,-0.456 0.454,-0.387 0.454,-0.265C0.454,-0.143 0.402,-0.073 0.306,-0.073C0.228,-0.073 0.177,-0.128 0.177,-0.189L0.177,-0.331ZM0.08,-0L0.169,-0L0.169,-0.051L0.171,-0.051C0.186,-0.034 0.236,0.015 0.321,0.015C0.461,0.015 0.551,-0.095 0.551,-0.265C0.551,-0.435 0.453,-0.545 0.323,-0.545C0.244,-0.545 0.197,-0.5 0.179,-0.479L0.177,-0.479L0.177,-0.73L0.08,-0.73L0.08,-0Z" style="fill:rgb(49,35,130);fill-rule:nonzero;"/>
            </g>
            <g transform="matrix(64,0,0,64,533.568,122.72)">
                <rect x="0.08" y="-0.73" width="0.1" height="0.73" style="fill:rgb(49,35,130);"/>
            </g>
            <g transform="matrix(64,0,0,64,550.208,122.72)">
                <path d="M0.44,-0.169C0.419,-0.134 0.384,-0.072 0.291,-0.072C0.194,-0.072 0.146,-0.146 0.144,-0.236L0.528,-0.236L0.528,-0.265C0.528,-0.44 0.427,-0.545 0.288,-0.545C0.149,-0.545 0.045,-0.437 0.045,-0.265C0.045,-0.093 0.149,0.015 0.293,0.015C0.406,0.015 0.476,-0.047 0.513,-0.114L0.44,-0.169ZM0.145,-0.312C0.147,-0.374 0.19,-0.458 0.288,-0.458C0.388,-0.458 0.428,-0.385 0.431,-0.312L0.145,-0.312Z" style="fill:rgb(49,35,130);fill-rule:nonzero;"/>
            </g>
            <g transform="matrix(64,0,0,64,586.88,122.72)">
                <path d="M0.084,-0L0.181,-0L0.181,-0.53L0.084,-0.53L0.084,-0ZM0.08,-0.627L0.185,-0.627L0.185,-0.73L0.08,-0.73L0.08,-0.627Z" style="fill:rgb(49,35,130);fill-rule:nonzero;"/>
            </g>
            <g transform="matrix(64,0,0,64,603.84,122.72)">
                <path d="M0.103,-0.166C0.103,-0.058 0.142,-0 0.26,-0L0.307,-0L0.307,-0.094L0.267,-0.094C0.21,-0.094 0.199,-0.119 0.199,-0.176L0.199,-0.445L0.33,-0.445L0.33,-0.53L0.198,-0.53L0.198,-0.66L0.105,-0.66L0.105,-0.53L0.025,-0.53L0.025,-0.445L0.103,-0.445L0.103,-0.166Z" style="fill:rgb(49,35,130);fill-rule:nonzero;"/>
            </g>
            <g transform="matrix(64,0,0,64,627.52,122.72)">
                <path d="M0.075,-0.186C0.075,-0.056 0.139,0.015 0.257,0.015C0.347,0.015 0.391,-0.039 0.4,-0.051L0.402,-0.051L0.402,-0L0.496,-0L0.496,-0.53L0.399,-0.53L0.399,-0.204C0.399,-0.121 0.351,-0.077 0.279,-0.077C0.202,-0.077 0.172,-0.109 0.172,-0.199L0.172,-0.53L0.075,-0.53L0.075,-0.186Z" style="fill:rgb(49,35,130);fill-rule:nonzero;"/>
            </g>
            <g transform="matrix(64,0,0,64,664.384,122.72)">
                <path d="M0.08,-0L0.177,-0L0.177,-0.333C0.177,-0.409 0.227,-0.455 0.303,-0.455C0.382,-0.455 0.415,-0.407 0.415,-0.319L0.415,-0L0.513,-0L0.513,-0.347C0.513,-0.471 0.437,-0.545 0.322,-0.545C0.262,-0.545 0.204,-0.515 0.177,-0.479L0.175,-0.479L0.175,-0.53L0.08,-0.53L0.08,-0Z" style="fill:rgb(49,35,130);fill-rule:nonzero;"/>
            </g>
            <g transform="matrix(64,0,0,64,702.016,122.72)">
                <path d="M0.084,0.1C0.113,0.18 0.185,0.24 0.298,0.24C0.431,0.24 0.521,0.162 0.521,0.005L0.521,-0.53L0.427,-0.53L0.427,-0.479L0.425,-0.479C0.395,-0.516 0.347,-0.545 0.279,-0.545C0.152,-0.545 0.045,-0.44 0.045,-0.265C0.045,-0.089 0.145,0.015 0.28,0.015C0.352,0.015 0.4,-0.018 0.422,-0.047L0.424,-0.047L0.424,0.022C0.424,0.108 0.375,0.154 0.297,0.154C0.22,0.154 0.186,0.11 0.162,0.055L0.084,0.1ZM0.424,-0.186C0.424,-0.126 0.372,-0.073 0.295,-0.073C0.2,-0.073 0.142,-0.143 0.142,-0.265C0.142,-0.387 0.2,-0.456 0.295,-0.456C0.377,-0.456 0.424,-0.394 0.424,-0.334L0.424,-0.186Z" style="fill:rgb(49,35,130);fill-rule:nonzero;"/>
            </g>
            <g transform="matrix(64,0,0,64,0,198.72)">
                <path d="M0.06,-0.302L0.531,-0.302L0.406,-0.096L0.485,-0.049L0.666,-0.346L0.487,-0.641L0.407,-0.593L0.532,-0.392L0.155,-0.392L0.155,-0.7L0.06,-0.7L0.06,-0.302Z" style="fill:rgb(49,35,130);fill-rule:nonzero;"/>
            </g>
            <g transform="matrix(64,0,0,64,60.864,198.72)">
                <path d="M0.045,-0.239C0.065,-0.072 0.161,0.015 0.326,0.015C0.485,0.015 0.574,-0.078 0.574,-0.192C0.574,-0.295 0.529,-0.347 0.35,-0.407C0.196,-0.458 0.174,-0.478 0.174,-0.526C0.174,-0.578 0.214,-0.621 0.3,-0.621C0.397,-0.621 0.433,-0.569 0.449,-0.5L0.549,-0.522C0.528,-0.654 0.424,-0.715 0.3,-0.715C0.156,-0.715 0.074,-0.625 0.074,-0.526C0.074,-0.43 0.133,-0.373 0.285,-0.325C0.45,-0.273 0.475,-0.246 0.475,-0.186C0.475,-0.126 0.425,-0.079 0.327,-0.079C0.206,-0.079 0.168,-0.141 0.15,-0.26L0.045,-0.239Z" style="fill:rgb(49,35,130);fill-rule:nonzero;"/>
            </g>
            <g transform="matrix(64,0,0,64,99.84,198.72)">
                <path d="M0.416,-0.207C0.405,-0.138 0.369,-0.073 0.289,-0.073C0.198,-0.073 0.141,-0.143 0.141,-0.265C0.141,-0.388 0.2,-0.456 0.288,-0.456C0.368,-0.456 0.405,-0.398 0.415,-0.334L0.51,-0.349C0.497,-0.463 0.411,-0.545 0.288,-0.545C0.157,-0.545 0.045,-0.446 0.045,-0.265C0.045,-0.087 0.148,0.015 0.287,0.015C0.414,0.015 0.495,-0.062 0.513,-0.183L0.416,-0.207Z" style="fill:rgb(49,35,130);fill-rule:nonzero;"/>
            </g>
            <g transform="matrix(64,0,0,64,135.232,198.72)">
                <path d="M0.08,-0L0.177,-0L0.177,-0.333C0.177,-0.404 0.228,-0.455 0.303,-0.455C0.382,-0.455 0.418,-0.401 0.418,-0.324L0.418,-0L0.515,-0L0.515,-0.348C0.515,-0.475 0.436,-0.545 0.326,-0.545C0.262,-0.545 0.205,-0.514 0.179,-0.477L0.177,-0.477L0.177,-0.73L0.08,-0.73L0.08,-0Z" style="fill:rgb(49,35,130);fill-rule:nonzero;"/>
            </g>
            <g transform="matrix(64,0,0,64,172.992,198.72)">
                <rect x="0.08" y="-0.73" width="0.1" height="0.73" style="fill:rgb(49,35,130);"/>
            </g>
            <g transform="matrix(64,0,0,64,189.632,198.72)">
                <path d="M0.075,-0.186C0.075,-0.056 0.139,0.015 0.257,0.015C0.347,0.015 0.391,-0.039 0.4,-0.051L0.402,-0.051L0.402,-0L0.496,-0L0.496,-0.53L0.399,-0.53L0.399,-0.204C0.399,-0.121 0.351,-0.077 0.279,-0.077C0.202,-0.077 0.172,-0.109 0.172,-0.199L0.172,-0.53L0.075,-0.53L0.075,-0.186Z" style="fill:rgb(49,35,130);fill-rule:nonzero;"/>
            </g>
            <g transform="matrix(64,0,0,64,226.496,198.72)">
                <path d="M0.04,-0.178C0.051,-0.078 0.118,0.015 0.27,0.015C0.418,0.015 0.477,-0.069 0.476,-0.143C0.476,-0.223 0.439,-0.271 0.302,-0.309C0.172,-0.346 0.149,-0.357 0.149,-0.397C0.149,-0.43 0.181,-0.463 0.249,-0.463C0.324,-0.463 0.358,-0.423 0.376,-0.368L0.46,-0.391C0.437,-0.478 0.373,-0.545 0.248,-0.545C0.125,-0.545 0.059,-0.47 0.059,-0.394C0.059,-0.314 0.112,-0.274 0.237,-0.24C0.356,-0.207 0.387,-0.192 0.387,-0.144C0.387,-0.1 0.347,-0.068 0.267,-0.068C0.185,-0.068 0.14,-0.113 0.13,-0.198L0.04,-0.178Z" style="fill:rgb(49,35,130);fill-rule:nonzero;"/>
            </g>
            <g transform="matrix(64,0,0,64,259.584,198.72)">
                <path d="M0.04,-0.178C0.051,-0.078 0.118,0.015 0.27,0.015C0.418,0.015 0.477,-0.069 0.476,-0.143C0.476,-0.223 0.439,-0.271 0.302,-0.309C0.172,-0.346 0.149,-0.357 0.149,-0.397C0.149,-0.43 0.181,-0.463 0.249,-0.463C0.324,-0.463 0.358,-0.423 0.376,-0.368L0.46,-0.391C0.437,-0.478 0.373,-0.545 0.248,-0.545C0.125,-0.545 0.059,-0.47 0.059,-0.394C0.059,-0.314 0.112,-0.274 0.237,-0.24C0.356,-0.207 0.387,-0.192 0.387,-0.144C0.387,-0.1 0.347,-0.068 0.267,-0.068C0.185,-0.068 0.14,-0.113 0.13,-0.198L0.04,-0.178Z" style="fill:rgb(49,35,130);fill-rule:nonzero;"/>
            </g>
            <g transform="matrix(64,0,0,64,292.672,198.72)">
                <path d="M0.103,-0L0.201,-0L0.201,-0.445L0.331,-0.445L0.331,-0.53L0.199,-0.53L0.199,-0.587C0.199,-0.632 0.21,-0.642 0.247,-0.642L0.31,-0.642L0.31,-0.73L0.228,-0.73C0.155,-0.73 0.105,-0.703 0.105,-0.608L0.105,-0.53L0.025,-0.53L0.025,-0.445L0.103,-0.445L0.103,-0Z" style="fill:rgb(49,35,130);fill-rule:nonzero;"/>
            </g>
            <g transform="matrix(64,0,0,64,314.496,198.72)">
                <path d="M0.288,-0.073C0.204,-0.073 0.141,-0.138 0.141,-0.265C0.141,-0.392 0.204,-0.456 0.288,-0.456C0.37,-0.456 0.432,-0.389 0.432,-0.265C0.432,-0.14 0.37,-0.073 0.288,-0.073ZM0.288,0.015C0.423,0.015 0.528,-0.084 0.528,-0.265C0.528,-0.446 0.416,-0.545 0.288,-0.545C0.158,-0.545 0.045,-0.446 0.045,-0.265C0.045,-0.084 0.152,0.015 0.288,0.015Z" style="fill:rgb(49,35,130);fill-rule:nonzero;"/>
            </g>
            <g transform="matrix(64,0,0,64,351.168,198.72)">
                <rect x="0.08" y="-0.73" width="0.1" height="0.73" style="fill:rgb(49,35,130);"/>
            </g>
            <g transform="matrix(64,0,0,64,367.808,198.72)">
                <path d="M0.084,0.1C0.113,0.18 0.185,0.24 0.298,0.24C0.431,0.24 0.521,0.162 0.521,0.005L0.521,-0.53L0.427,-0.53L0.427,-0.479L0.425,-0.479C0.395,-0.516 0.347,-0.545 0.279,-0.545C0.152,-0.545 0.045,-0.44 0.045,-0.265C0.045,-0.089 0.145,0.015 0.28,0.015C0.352,0.015 0.4,-0.018 0.422,-0.047L0.424,-0.047L0.424,0.022C0.424,0.108 0.375,0.154 0.297,0.154C0.22,0.154 0.186,0.11 0.162,0.055L0.084,0.1ZM0.424,-0.186C0.424,-0.126 0.372,-0.073 0.295,-0.073C0.2,-0.073 0.142,-0.143 0.142,-0.265C0.142,-0.387 0.2,-0.456 0.295,-0.456C0.377,-0.456 0.424,-0.394 0.424,-0.334L0.424,-0.186Z" style="fill:rgb(49,35,130);fill-rule:nonzero;"/>
            </g>
            <g transform="matrix(64,0,0,64,405.952,198.72)">
                <path d="M0.44,-0.169C0.419,-0.134 0.384,-0.072 0.291,-0.072C0.194,-0.072 0.146,-0.146 0.144,-0.236L0.528,-0.236L0.528,-0.265C0.528,-0.44 0.427,-0.545 0.288,-0.545C0.149,-0.545 0.045,-0.437 0.045,-0.265C0.045,-0.093 0.149,0.015 0.293,0.015C0.406,0.015 0.476,-0.047 0.513,-0.114L0.44,-0.169ZM0.145,-0.312C0.147,-0.374 0.19,-0.458 0.288,-0.458C0.388,-0.458 0.428,-0.385 0.431,-0.312L0.145,-0.312Z" style="fill:rgb(49,35,130);fill-rule:nonzero;"/>
            </g>
            <g transform="matrix(64,0,0,64,442.624,198.72)">
                <path d="M0.08,-0L0.177,-0L0.177,-0.311C0.177,-0.398 0.209,-0.441 0.273,-0.441C0.295,-0.441 0.307,-0.436 0.314,-0.433L0.331,-0.529C0.323,-0.533 0.307,-0.539 0.284,-0.539C0.242,-0.539 0.197,-0.516 0.175,-0.473L0.173,-0.473L0.173,-0.53L0.08,-0.53L0.08,-0Z" style="fill:rgb(49,35,130);fill-rule:nonzero;"/>
            </g>
            <g transform="matrix(64,0,0,64,465.408,198.72)">
                <path d="M0.075,-0.186C0.075,-0.056 0.139,0.015 0.257,0.015C0.347,0.015 0.391,-0.039 0.4,-0.051L0.402,-0.051L0.402,-0L0.496,-0L0.496,-0.53L0.399,-0.53L0.399,-0.204C0.399,-0.121 0.351,-0.077 0.279,-0.077C0.202,-0.077 0.172,-0.109 0.172,-0.199L0.172,-0.53L0.075,-0.53L0.075,-0.186Z" style="fill:rgb(49,35,130);fill-rule:nonzero;"/>
            </g>
            <g transform="matrix(64,0,0,64,502.272,198.72)">
                <path d="M0.08,-0L0.177,-0L0.177,-0.333C0.177,-0.409 0.227,-0.455 0.303,-0.455C0.382,-0.455 0.415,-0.407 0.415,-0.319L0.415,-0L0.513,-0L0.513,-0.347C0.513,-0.471 0.437,-0.545 0.322,-0.545C0.262,-0.545 0.204,-0.515 0.177,-0.479L0.175,-0.479L0.175,-0.53L0.08,-0.53L0.08,-0Z" style="fill:rgb(49,35,130);fill-rule:nonzero;"/>
            </g>
            <g transform="matrix(64,0,0,64,539.904,198.72)">
                <path d="M0.084,0.1C0.113,0.18 0.185,0.24 0.298,0.24C0.431,0.24 0.521,0.162 0.521,0.005L0.521,-0.53L0.427,-0.53L0.427,-0.479L0.425,-0.479C0.395,-0.516 0.347,-0.545 0.279,-0.545C0.152,-0.545 0.045,-0.44 0.045,-0.265C0.045,-0.089 0.145,0.015 0.28,0.015C0.352,0.015 0.4,-0.018 0.422,-0.047L0.424,-0.047L0.424,0.022C0.424,0.108 0.375,0.154 0.297,0.154C0.22,0.154 0.186,0.11 0.162,0.055L0.084,0.1ZM0.424,-0.186C0.424,-0.126 0.372,-0.073 0.295,-0.073C0.2,-0.073 0.142,-0.143 0.142,-0.265C0.142,-0.387 0.2,-0.456 0.295,-0.456C0.377,-0.456 0.424,-0.394 0.424,-0.334L0.424,-0.186Z" style="fill:rgb(49,35,130);fill-rule:nonzero;"/>
            </g>
            <g transform="matrix(64,0,0,64,578.048,198.72)">
                <path d="M0.44,-0.169C0.419,-0.134 0.384,-0.072 0.291,-0.072C0.194,-0.072 0.146,-0.146 0.144,-0.236L0.528,-0.236L0.528,-0.265C0.528,-0.44 0.427,-0.545 0.288,-0.545C0.149,-0.545 0.045,-0.437 0.045,-0.265C0.045,-0.093 0.149,0.015 0.293,0.015C0.406,0.015 0.476,-0.047 0.513,-0.114L0.44,-0.169ZM0.145,-0.312C0.147,-0.374 0.19,-0.458 0.288,-0.458C0.388,-0.458 0.428,-0.385 0.431,-0.312L0.145,-0.312Z" style="fill:rgb(49,35,130);fill-rule:nonzero;"/>
            </g>
            <g transform="matrix(64,0,0,64,614.72,198.72)">
                <path d="M0.08,-0L0.177,-0L0.177,-0.333C0.177,-0.409 0.227,-0.455 0.303,-0.455C0.382,-0.455 0.415,-0.407 0.415,-0.319L0.415,-0L0.513,-0L0.513,-0.347C0.513,-0.471 0.437,-0.545 0.322,-0.545C0.262,-0.545 0.204,-0.515 0.177,-0.479L0.175,-0.479L0.175,-0.53L0.08,-0.53L0.08,-0Z" style="fill:rgb(49,35,130);fill-rule:nonzero;"/>
            </g>
        </g>
    </g>
</svg>
