<?xml version="1.0" encoding="UTF-8" standalone="no"?>
<!DOCTYPE svg PUBLIC "-//W3C//DTD SVG 1.1//EN" "http://www.w3.org/Graphics/SVG/1.1/DTD/svg11.dtd">
<svg width="100%" height="100%" viewBox="0 0 568 150" version="1.1" xmlns="http://www.w3.org/2000/svg" xmlns:xlink="http://www.w3.org/1999/xlink" xml:space="preserve" xmlns:serif="http://www.serif.com/" style="fill-rule:evenodd;clip-rule:evenodd;stroke-miterlimit:10;">
    <rect x="0" y="0" width="568" height="150" style="fill:rgb(236,249,255);"/>
    <g transform="matrix(1,0,0,1,-12.0304,0.372208)">
        <g transform="matrix(1,-0,-0,1,12.0304,-0.372208)">
            <path d="M16.747,82.727C13.506,85.726 13.309,90.791 16.307,94.032C19.306,97.273 24.371,97.47 27.612,94.472C30.853,91.473 31.05,86.408 28.052,83.167C25.053,79.926 19.988,79.729 16.747,82.727Z" style="fill:none;stroke:rgb(174,213,216);stroke-width:2px;"/>
            <path d="M538.069,70.956L539.681,79.286L531.35,80.898" style="fill:none;stroke:rgb(174,213,216);stroke-width:2px;"/>
            <path d="M28.052,83.167C42.453,70.379 61.42,55.883 75.364,56.665C93.935,57.706 128.787,92.572 127,100.958C125.213,109.344 77.919,117.015 64.643,106.983C51.367,96.95 38.646,52.151 47.344,40.764C56.043,29.377 118.233,29.261 116.834,38.66C115.435,48.059 36.74,92.485 38.952,97.155C41.164,101.825 113.017,63.217 130.104,66.682C147.191,70.148 158.888,119.714 141.474,117.947C123.025,116.074 16.469,67.234 19.406,55.448C22.343,43.663 147.874,35.542 159.098,47.234C170.322,58.925 82.065,113.76 86.75,125.598C91.435,137.437 180.215,135.967 187.207,118.264C194.199,100.561 126.804,33.261 128.703,19.383C130.601,5.505 187.733,23.732 198.6,34.996C209.468,46.261 186.767,75.576 193.907,86.969C201.048,98.363 232.596,109.715 241.443,103.356C250.29,96.997 250.701,53.122 246.991,48.816C243.28,44.511 216.207,68.078 219.178,77.522C222.15,86.965 265.231,97.24 264.821,105.476C264.41,113.713 216.039,138.224 216.715,126.941C217.391,115.659 251.241,46.135 268.876,37.78C286.511,29.424 317.046,63.338 322.526,76.81C328.007,90.281 294.107,111.401 301.76,118.607C309.414,125.813 359.529,129.705 368.447,120.047C377.365,110.39 367.499,67.883 355.271,60.662C343.043,53.442 296.471,81.576 295.08,76.726C293.689,71.876 329.939,28.908 346.924,31.562C363.908,34.216 397.249,81.898 396.987,92.65C396.726,103.401 339.639,91.566 345.354,96.071C351.069,100.576 413.924,123.764 431.279,119.678C447.973,115.748 440.755,77.295 449.485,71.557C458.214,65.818 473.415,85.983 483.657,85.248C493.899,84.512 501.404,68.007 510.937,67.145C519.949,66.331 532.587,74.506 539.681,79.286" style="fill:none;stroke:rgb(174,213,216);stroke-width:2px;"/>
        </g>
    </g>
    <g transform="matrix(1.45088,0,0,1.45088,9.3979,-21.2809)">
        <g transform="matrix(32,0,0,32,22.1593,55.4643)">
            <path d="M0.14,-0.633C0.14,-0.627 0.148,-0.621 0.168,-0.618C0.232,-0.61 0.231,-0.584 0.209,-0.513C0.188,-0.44 0.134,-0.258 0.12,-0.191C0.115,-0.164 0.115,-0.115 0.141,-0.069C0.177,-0.002 0.258,0.018 0.315,0.018C0.382,0.018 0.458,0.008 0.522,-0.059C0.558,-0.095 0.572,-0.14 0.591,-0.189C0.611,-0.246 0.679,-0.443 0.707,-0.517C0.738,-0.594 0.752,-0.611 0.798,-0.619C0.816,-0.622 0.827,-0.628 0.826,-0.634C0.826,-0.639 0.822,-0.645 0.8,-0.645C0.767,-0.645 0.727,-0.641 0.691,-0.641C0.662,-0.641 0.635,-0.642 0.606,-0.642C0.59,-0.642 0.58,-0.638 0.58,-0.631C0.58,-0.622 0.59,-0.619 0.608,-0.616C0.668,-0.606 0.676,-0.6 0.659,-0.514C0.644,-0.44 0.579,-0.239 0.543,-0.153C0.509,-0.074 0.449,-0.032 0.354,-0.032C0.302,-0.032 0.242,-0.059 0.22,-0.096C0.21,-0.113 0.197,-0.16 0.228,-0.273C0.245,-0.335 0.293,-0.508 0.314,-0.562C0.329,-0.602 0.345,-0.613 0.381,-0.62C0.4,-0.624 0.409,-0.627 0.409,-0.634C0.409,-0.64 0.401,-0.645 0.384,-0.645C0.353,-0.645 0.304,-0.641 0.281,-0.641C0.252,-0.641 0.203,-0.644 0.17,-0.644C0.15,-0.644 0.14,-0.64 0.14,-0.633ZM0.43,-0.796C0.406,-0.796 0.38,-0.774 0.378,-0.746C0.377,-0.718 0.392,-0.701 0.416,-0.701C0.44,-0.701 0.467,-0.724 0.469,-0.751C0.47,-0.777 0.455,-0.796 0.43,-0.796ZM0.619,-0.796C0.594,-0.796 0.568,-0.774 0.566,-0.746C0.565,-0.718 0.581,-0.701 0.605,-0.701C0.627,-0.701 0.654,-0.723 0.656,-0.751C0.657,-0.777 0.644,-0.796 0.619,-0.796Z" style="fill-rule:nonzero;"/>
        </g>
        <g transform="matrix(32,0,0,32,44.5593,55.4643)">
            <path d="M0.36,-0.405C0.291,-0.405 0.208,-0.318 0.159,-0.255C0.157,-0.251 0.15,-0.252 0.152,-0.256C0.181,-0.344 0.293,-0.648 0.318,-0.697C0.322,-0.704 0.319,-0.714 0.315,-0.714C0.303,-0.714 0.206,-0.701 0.195,-0.698C0.183,-0.695 0.169,-0.689 0.169,-0.683C0.169,-0.677 0.176,-0.673 0.183,-0.668C0.206,-0.654 0.218,-0.647 0.205,-0.611C0.186,-0.556 0.108,-0.333 0.085,-0.258C0.061,-0.184 0.038,-0.109 0.038,-0.08C0.038,-0.012 0.083,0.016 0.127,0.016C0.157,0.016 0.191,0.008 0.241,-0.021C0.351,-0.085 0.44,-0.225 0.44,-0.32C0.44,-0.366 0.408,-0.405 0.36,-0.405ZM0.335,-0.368C0.353,-0.368 0.367,-0.355 0.367,-0.338C0.367,-0.257 0.275,-0.111 0.212,-0.051C0.183,-0.025 0.162,-0.013 0.147,-0.013C0.127,-0.013 0.11,-0.047 0.11,-0.059C0.11,-0.086 0.128,-0.146 0.171,-0.217C0.213,-0.286 0.278,-0.368 0.335,-0.368Z" style="fill-rule:nonzero;"/>
        </g>
        <g transform="matrix(32,0,0,32,59.4073,55.4643)">
            <path d="M0.279,-0.405C0.241,-0.405 0.185,-0.381 0.133,-0.328C0.069,-0.261 0.025,-0.163 0.025,-0.092C0.025,-0.025 0.079,0.014 0.105,0.014C0.179,0.014 0.246,-0.038 0.274,-0.072C0.281,-0.08 0.286,-0.092 0.286,-0.098C0.286,-0.101 0.283,-0.104 0.281,-0.104C0.275,-0.104 0.266,-0.099 0.255,-0.089C0.227,-0.063 0.189,-0.042 0.156,-0.042C0.129,-0.042 0.105,-0.053 0.105,-0.101C0.105,-0.129 0.11,-0.158 0.116,-0.175C0.118,-0.183 0.124,-0.189 0.132,-0.191C0.172,-0.202 0.238,-0.222 0.275,-0.243C0.322,-0.269 0.354,-0.308 0.354,-0.342C0.354,-0.366 0.339,-0.405 0.279,-0.405ZM0.272,-0.38C0.285,-0.38 0.29,-0.369 0.29,-0.354C0.29,-0.288 0.205,-0.24 0.137,-0.217C0.133,-0.215 0.132,-0.223 0.133,-0.226C0.151,-0.283 0.224,-0.38 0.272,-0.38Z" style="fill-rule:nonzero;"/>
        </g>
        <g transform="matrix(32,0,0,32,70.8633,55.4643)">
            <path d="M0.15,-0.405C0.107,-0.405 0.06,-0.365 0.038,-0.305C0.033,-0.292 0.036,-0.276 0.043,-0.276C0.047,-0.276 0.054,-0.282 0.064,-0.295C0.085,-0.32 0.105,-0.334 0.119,-0.334C0.13,-0.334 0.14,-0.324 0.129,-0.289C0.098,-0.188 0.066,-0.11 0.029,-0.014C0.028,-0.011 0.027,-0 0.029,0.003C0.034,0.011 0.048,0.017 0.056,0.017C0.067,0.017 0.085,0.01 0.1,-0.02C0.116,-0.052 0.199,-0.219 0.238,-0.28C0.271,-0.333 0.288,-0.344 0.3,-0.344C0.309,-0.344 0.318,-0.326 0.32,-0.304C0.321,-0.288 0.326,-0.284 0.333,-0.284C0.345,-0.284 0.383,-0.32 0.383,-0.363C0.383,-0.38 0.374,-0.405 0.343,-0.405C0.316,-0.405 0.286,-0.383 0.256,-0.348C0.231,-0.32 0.203,-0.282 0.179,-0.242C0.166,-0.221 0.157,-0.219 0.162,-0.237C0.171,-0.26 0.193,-0.326 0.193,-0.358C0.193,-0.379 0.178,-0.405 0.15,-0.405Z" style="fill-rule:nonzero;"/>
        </g>
        <g transform="matrix(32,0,0,32,88.6553,55.4643)">
            <path d="M0.157,-0.632C0.158,-0.623 0.167,-0.62 0.185,-0.617C0.231,-0.61 0.238,-0.595 0.223,-0.533C0.204,-0.458 0.12,-0.161 0.1,-0.11C0.077,-0.045 0.066,-0.029 0.005,-0.021C-0.01,-0.019 -0.021,-0.012 -0.021,-0.006C-0.021,-0.001 -0.013,0.006 0.007,0.006C0.042,0.006 0.097,-0 0.143,-0C0.174,-0 0.195,0.003 0.231,0.003C0.25,0.003 0.26,-0 0.26,-0.009C0.26,-0.014 0.253,-0.021 0.236,-0.024C0.19,-0.032 0.18,-0.042 0.194,-0.105C0.207,-0.164 0.296,-0.489 0.319,-0.548C0.34,-0.6 0.345,-0.609 0.398,-0.618C0.42,-0.622 0.428,-0.628 0.428,-0.635C0.428,-0.64 0.418,-0.644 0.402,-0.644C0.375,-0.644 0.328,-0.641 0.273,-0.641C0.24,-0.641 0.22,-0.642 0.185,-0.642C0.165,-0.642 0.157,-0.637 0.157,-0.632Z" style="fill-rule:nonzero;"/>
        </g>
        <g transform="matrix(32,0,0,32,98.9913,55.4643)">
            <path d="M0.398,-0.405C0.374,-0.405 0.338,-0.392 0.294,-0.355C0.261,-0.328 0.192,-0.246 0.171,-0.213C0.166,-0.204 0.155,-0.206 0.159,-0.216C0.169,-0.236 0.211,-0.339 0.218,-0.356C0.224,-0.369 0.224,-0.377 0.221,-0.383C0.215,-0.396 0.197,-0.405 0.184,-0.405C0.099,-0.405 0.049,-0.329 0.049,-0.298C0.049,-0.294 0.052,-0.287 0.055,-0.288C0.06,-0.288 0.064,-0.292 0.069,-0.297C0.092,-0.319 0.116,-0.342 0.146,-0.342C0.154,-0.342 0.16,-0.338 0.154,-0.326C0.125,-0.251 0.078,-0.157 0.05,-0.094C0.046,-0.085 0.018,-0.029 0.021,-0.013C0.021,-0.002 0.037,0.017 0.053,0.017C0.064,0.017 0.078,-0.001 0.105,-0.044C0.136,-0.089 0.223,-0.229 0.265,-0.281C0.314,-0.342 0.352,-0.368 0.375,-0.368C0.391,-0.368 0.4,-0.355 0.39,-0.324C0.379,-0.292 0.262,-0.052 0.253,-0.035C0.244,-0.015 0.249,-0.006 0.253,-0.002C0.263,0.012 0.277,0.016 0.286,0.016C0.326,0.016 0.418,-0.04 0.454,-0.094C0.46,-0.101 0.467,-0.112 0.467,-0.123C0.467,-0.131 0.457,-0.13 0.447,-0.121C0.419,-0.095 0.378,-0.063 0.358,-0.063C0.348,-0.063 0.346,-0.073 0.355,-0.091C0.364,-0.107 0.421,-0.227 0.443,-0.286C0.454,-0.314 0.457,-0.329 0.457,-0.346C0.457,-0.374 0.437,-0.405 0.398,-0.405Z" style="fill-rule:nonzero;"/>
        </g>
        <g transform="matrix(32,0,0,32,115.311,55.4643)">
            <path d="M0.221,-0.405C0.201,-0.405 0.166,-0.394 0.132,-0.364C0.1,-0.336 0.076,-0.304 0.076,-0.266C0.076,-0.244 0.087,-0.216 0.116,-0.175C0.148,-0.131 0.163,-0.105 0.163,-0.085C0.163,-0.057 0.14,-0.035 0.112,-0.035C0.077,-0.035 0.041,-0.064 0.022,-0.083C0.018,-0.087 0.009,-0.085 0.006,-0.083C-0.003,-0.071 -0.015,-0.048 -0.015,-0.04C-0.015,-0.008 0.027,0.014 0.053,0.014C0.075,0.014 0.128,-0.001 0.169,-0.035C0.202,-0.062 0.226,-0.095 0.226,-0.129C0.226,-0.151 0.211,-0.178 0.183,-0.218C0.157,-0.253 0.134,-0.287 0.134,-0.315C0.134,-0.344 0.161,-0.359 0.172,-0.359C0.199,-0.359 0.216,-0.338 0.238,-0.324C0.243,-0.321 0.249,-0.319 0.253,-0.321C0.261,-0.326 0.281,-0.35 0.281,-0.363C0.281,-0.372 0.276,-0.381 0.27,-0.386C0.263,-0.394 0.243,-0.405 0.221,-0.405Z" style="fill-rule:nonzero;"/>
        </g>
        <g transform="matrix(32,0,0,32,124.303,55.4643)">
            <path d="M0.256,-0.507C0.234,-0.507 0.219,-0.498 0.206,-0.478C0.194,-0.46 0.179,-0.432 0.163,-0.401C0.162,-0.399 0.157,-0.392 0.152,-0.392C0.143,-0.392 0.112,-0.391 0.092,-0.389C0.085,-0.388 0.071,-0.374 0.071,-0.367C0.071,-0.363 0.078,-0.359 0.088,-0.358L0.139,-0.355C0.142,-0.355 0.144,-0.35 0.141,-0.343C0.098,-0.232 0.03,-0.048 0.026,-0.038C0.022,-0.026 0.021,-0.018 0.021,-0.013C0.021,-0.003 0.039,0.014 0.049,0.014C0.097,0.014 0.198,-0.053 0.239,-0.11C0.246,-0.12 0.248,-0.126 0.248,-0.134C0.248,-0.146 0.235,-0.14 0.227,-0.132C0.204,-0.109 0.148,-0.069 0.128,-0.069C0.118,-0.069 0.117,-0.081 0.122,-0.096C0.151,-0.179 0.203,-0.314 0.218,-0.347C0.22,-0.352 0.223,-0.355 0.227,-0.355C0.246,-0.355 0.304,-0.358 0.319,-0.359C0.33,-0.36 0.34,-0.375 0.34,-0.382C0.34,-0.386 0.337,-0.39 0.334,-0.39C0.309,-0.391 0.263,-0.393 0.243,-0.393C0.238,-0.393 0.236,-0.399 0.237,-0.402C0.24,-0.413 0.259,-0.471 0.262,-0.483C0.267,-0.501 0.265,-0.507 0.256,-0.507Z" style="fill-rule:nonzero;"/>
        </g>
        <g transform="matrix(32,0,0,32,133.647,55.4643)">
            <path d="M0.302,-0.39C0.296,-0.39 0.275,-0.382 0.257,-0.371C0.178,-0.317 0.091,-0.223 0.035,-0.131C0.007,-0.085 -0.007,-0.048 -0.007,-0.023C-0.007,-0.003 0.022,0.016 0.04,0.016C0.102,0.016 0.202,-0.07 0.257,-0.13C0.262,-0.136 0.266,-0.126 0.264,-0.12C0.251,-0.085 0.229,-0.033 0.229,-0.022C0.23,-0 0.246,0.016 0.271,0.016C0.314,0.016 0.376,-0.019 0.416,-0.084C0.423,-0.095 0.425,-0.105 0.425,-0.11C0.425,-0.116 0.419,-0.121 0.406,-0.106C0.384,-0.081 0.349,-0.057 0.33,-0.057C0.317,-0.057 0.306,-0.064 0.311,-0.084C0.331,-0.154 0.407,-0.341 0.423,-0.378C0.427,-0.387 0.424,-0.393 0.424,-0.394C0.411,-0.401 0.391,-0.408 0.382,-0.408C0.379,-0.408 0.369,-0.402 0.368,-0.399L0.351,-0.371C0.35,-0.367 0.344,-0.365 0.343,-0.367C0.329,-0.381 0.308,-0.39 0.302,-0.39ZM0.286,-0.334C0.292,-0.334 0.311,-0.327 0.322,-0.317C0.325,-0.314 0.324,-0.302 0.317,-0.287C0.291,-0.23 0.248,-0.16 0.203,-0.114C0.162,-0.069 0.129,-0.046 0.106,-0.046C0.096,-0.046 0.085,-0.062 0.085,-0.076C0.085,-0.125 0.137,-0.218 0.173,-0.262C0.209,-0.308 0.252,-0.334 0.286,-0.334Z" style="fill-rule:nonzero;"/>
        </g>
        <g transform="matrix(32,0,0,32,148.143,55.4643)">
            <path d="M0.27,-0.406C0.23,-0.406 0.191,-0.391 0.159,-0.368C0.129,-0.348 0.04,-0.271 0.04,-0.161C0.04,-0.123 0.063,-0.099 0.101,-0.084C0.104,-0.083 0.102,-0.075 0.101,-0.074C0.092,-0.065 0.078,-0.053 0.066,-0.037C0.056,-0.022 0.056,-0.013 0.056,-0.007C0.056,0.002 0.073,0.024 0.08,0.033C0.081,0.035 0.08,0.039 0.076,0.041C0.048,0.056 0.003,0.073 -0.03,0.095C-0.057,0.113 -0.092,0.136 -0.092,0.17C-0.092,0.192 -0.073,0.225 -0.038,0.245C-0.008,0.262 0.036,0.277 0.087,0.277C0.148,0.277 0.217,0.258 0.276,0.222C0.305,0.204 0.327,0.17 0.327,0.151C0.327,0.121 0.304,0.089 0.269,0.065C0.243,0.048 0.178,0.01 0.149,-0.01C0.141,-0.015 0.12,-0.034 0.12,-0.054C0.12,-0.059 0.123,-0.07 0.126,-0.076C0.128,-0.079 0.13,-0.081 0.132,-0.081C0.148,-0.083 0.185,-0.088 0.206,-0.097C0.263,-0.121 0.351,-0.22 0.351,-0.312C0.351,-0.319 0.35,-0.329 0.347,-0.342C0.346,-0.346 0.345,-0.354 0.357,-0.354C0.383,-0.354 0.397,-0.344 0.424,-0.344C0.438,-0.344 0.448,-0.353 0.448,-0.375C0.448,-0.394 0.439,-0.403 0.424,-0.403C0.402,-0.403 0.371,-0.391 0.356,-0.389C0.339,-0.386 0.336,-0.385 0.326,-0.391C0.313,-0.397 0.286,-0.406 0.27,-0.406ZM0.258,-0.38C0.273,-0.38 0.289,-0.364 0.289,-0.337C0.289,-0.27 0.213,-0.159 0.181,-0.131C0.163,-0.115 0.147,-0.105 0.138,-0.105C0.121,-0.105 0.103,-0.12 0.103,-0.147C0.103,-0.197 0.155,-0.305 0.212,-0.356C0.226,-0.369 0.245,-0.38 0.258,-0.38ZM0.137,0.24C0.094,0.24 0.04,0.228 0.005,0.204C-0.011,0.192 -0.018,0.177 -0.018,0.164C-0.018,0.114 0.063,0.068 0.089,0.058C0.093,0.056 0.109,0.057 0.115,0.06C0.141,0.072 0.204,0.111 0.229,0.131C0.251,0.148 0.253,0.164 0.253,0.174C0.253,0.219 0.185,0.24 0.137,0.24Z" style="fill-rule:nonzero;"/>
        </g>
        <g transform="matrix(32,0,0,32,161.167,55.4643)">
            <path d="M0.15,-0.405C0.107,-0.405 0.06,-0.365 0.038,-0.305C0.033,-0.292 0.036,-0.276 0.043,-0.276C0.047,-0.276 0.054,-0.282 0.064,-0.295C0.085,-0.32 0.105,-0.334 0.119,-0.334C0.13,-0.334 0.14,-0.324 0.129,-0.289C0.098,-0.188 0.066,-0.11 0.029,-0.014C0.028,-0.011 0.027,-0 0.029,0.003C0.034,0.011 0.048,0.017 0.056,0.017C0.067,0.017 0.085,0.01 0.1,-0.02C0.116,-0.052 0.199,-0.219 0.238,-0.28C0.271,-0.333 0.288,-0.344 0.3,-0.344C0.309,-0.344 0.318,-0.326 0.32,-0.304C0.321,-0.288 0.326,-0.284 0.333,-0.284C0.345,-0.284 0.383,-0.32 0.383,-0.363C0.383,-0.38 0.374,-0.405 0.343,-0.405C0.316,-0.405 0.286,-0.383 0.256,-0.348C0.231,-0.32 0.203,-0.282 0.179,-0.242C0.166,-0.221 0.157,-0.219 0.162,-0.237C0.171,-0.26 0.193,-0.326 0.193,-0.358C0.193,-0.379 0.178,-0.405 0.15,-0.405Z" style="fill-rule:nonzero;"/>
        </g>
        <g transform="matrix(32,0,0,32,171.343,55.4643)">
            <path d="M0.302,-0.39C0.296,-0.39 0.275,-0.382 0.257,-0.371C0.178,-0.317 0.091,-0.223 0.035,-0.131C0.007,-0.085 -0.007,-0.048 -0.007,-0.023C-0.007,-0.003 0.022,0.016 0.04,0.016C0.102,0.016 0.202,-0.07 0.257,-0.13C0.262,-0.136 0.266,-0.126 0.264,-0.12C0.251,-0.085 0.229,-0.033 0.229,-0.022C0.23,-0 0.246,0.016 0.271,0.016C0.314,0.016 0.376,-0.019 0.416,-0.084C0.423,-0.095 0.425,-0.105 0.425,-0.11C0.425,-0.116 0.419,-0.121 0.406,-0.106C0.384,-0.081 0.349,-0.057 0.33,-0.057C0.317,-0.057 0.306,-0.064 0.311,-0.084C0.331,-0.154 0.407,-0.341 0.423,-0.378C0.427,-0.387 0.424,-0.393 0.424,-0.394C0.411,-0.401 0.391,-0.408 0.382,-0.408C0.379,-0.408 0.369,-0.402 0.368,-0.399L0.351,-0.371C0.35,-0.367 0.344,-0.365 0.343,-0.367C0.329,-0.381 0.308,-0.39 0.302,-0.39ZM0.286,-0.334C0.292,-0.334 0.311,-0.327 0.322,-0.317C0.325,-0.314 0.324,-0.302 0.317,-0.287C0.291,-0.23 0.248,-0.16 0.203,-0.114C0.162,-0.069 0.129,-0.046 0.106,-0.046C0.096,-0.046 0.085,-0.062 0.085,-0.076C0.085,-0.125 0.137,-0.218 0.173,-0.262C0.209,-0.308 0.252,-0.334 0.286,-0.334Z" style="fill-rule:nonzero;"/>
        </g>
        <g transform="matrix(32,0,0,32,185.839,55.4643)">
            <path d="M0.183,-0.405C0.103,-0.405 0.056,-0.358 0.045,-0.31C0.041,-0.295 0.046,-0.287 0.049,-0.287C0.053,-0.287 0.059,-0.291 0.067,-0.3C0.101,-0.335 0.126,-0.35 0.148,-0.35C0.164,-0.35 0.164,-0.34 0.158,-0.326C0.115,-0.233 0.059,-0.105 0.033,-0.052C0.028,-0.042 0.02,-0.019 0.021,-0.009C0.023,0.006 0.041,0.016 0.052,0.016C0.061,0.016 0.069,0.005 0.084,-0.015C0.101,-0.04 0.149,-0.117 0.179,-0.165C0.264,-0.297 0.337,-0.369 0.372,-0.369C0.385,-0.369 0.398,-0.357 0.393,-0.337C0.391,-0.321 0.293,-0.107 0.264,-0.032C0.259,-0.021 0.256,-0.01 0.257,-0.004C0.258,0.009 0.268,0.016 0.277,0.016C0.289,0.016 0.311,0.005 0.326,-0.019C0.357,-0.068 0.404,-0.155 0.456,-0.226C0.507,-0.299 0.569,-0.367 0.602,-0.367C0.625,-0.367 0.629,-0.337 0.611,-0.301C0.6,-0.27 0.482,-0.03 0.476,-0.016C0.473,-0.009 0.474,-0.003 0.478,0.001C0.486,0.012 0.498,0.016 0.504,0.016C0.55,0.016 0.658,-0.058 0.697,-0.107C0.705,-0.116 0.715,-0.132 0.715,-0.143C0.715,-0.149 0.706,-0.15 0.695,-0.141C0.658,-0.108 0.605,-0.075 0.586,-0.072C0.583,-0.071 0.577,-0.078 0.583,-0.086C0.604,-0.132 0.665,-0.257 0.68,-0.286C0.686,-0.297 0.694,-0.328 0.694,-0.346C0.694,-0.371 0.678,-0.405 0.637,-0.405C0.616,-0.405 0.581,-0.392 0.554,-0.373C0.52,-0.349 0.464,-0.286 0.432,-0.247C0.427,-0.241 0.42,-0.244 0.424,-0.252C0.441,-0.292 0.458,-0.329 0.458,-0.356C0.458,-0.38 0.431,-0.405 0.403,-0.405C0.377,-0.405 0.351,-0.396 0.32,-0.376C0.278,-0.347 0.211,-0.267 0.194,-0.247C0.183,-0.233 0.17,-0.236 0.176,-0.248C0.192,-0.278 0.224,-0.36 0.228,-0.368C0.23,-0.375 0.229,-0.39 0.222,-0.395C0.215,-0.4 0.199,-0.405 0.183,-0.405Z" style="fill-rule:nonzero;"/>
        </g>
        <g transform="matrix(32,0,0,32,209.647,55.4643)">
            <path d="M0.075,-0.132C0.036,-0.132 0.011,-0.104 0.011,-0.082C0.011,-0.075 0.021,-0.067 0.026,-0.065C0.045,-0.059 0.066,-0.052 0.066,-0.028C0.066,0.015 0.027,0.056 -0.026,0.086C-0.04,0.095 -0.05,0.101 -0.05,0.108C-0.05,0.115 -0.037,0.119 -0.024,0.115C0.022,0.1 0.138,0.045 0.138,-0.051C0.138,-0.085 0.12,-0.132 0.075,-0.132Z" style="fill-rule:nonzero;"/>
        </g>
        <g transform="matrix(32,0,0,32,223.343,55.4643)">
            <path d="M0.164,-0.632C0.164,-0.624 0.176,-0.619 0.192,-0.617C0.247,-0.609 0.244,-0.595 0.227,-0.532C0.207,-0.458 0.119,-0.161 0.093,-0.096C0.076,-0.052 0.058,-0.033 0.009,-0.023C-0.011,-0.019 -0.02,-0.016 -0.02,-0.007C-0.021,-0 -0.008,0.005 0.009,0.005C0.031,0.005 0.095,-0 0.122,-0C0.154,-0 0.219,0.005 0.244,0.005C0.258,0.005 0.27,0.001 0.27,-0.006C0.27,-0.014 0.267,-0.018 0.241,-0.024C0.194,-0.034 0.179,-0.053 0.191,-0.105C0.207,-0.176 0.239,-0.279 0.246,-0.3C0.252,-0.319 0.255,-0.322 0.263,-0.322C0.272,-0.322 0.284,-0.315 0.296,-0.289C0.323,-0.227 0.361,-0.138 0.389,-0.078C0.413,-0.028 0.424,-0.014 0.442,-0.003C0.448,0.001 0.457,0.002 0.468,0.002C0.513,0.002 0.551,0.007 0.595,0.007C0.613,0.007 0.633,0.003 0.633,-0.007C0.633,-0.016 0.619,-0.02 0.603,-0.02C0.554,-0.02 0.526,-0.044 0.502,-0.073C0.471,-0.111 0.423,-0.21 0.388,-0.292C0.382,-0.306 0.369,-0.343 0.369,-0.348C0.369,-0.354 0.378,-0.361 0.382,-0.365L0.588,-0.53C0.646,-0.577 0.687,-0.611 0.762,-0.621C0.783,-0.624 0.792,-0.631 0.792,-0.636C0.792,-0.644 0.778,-0.647 0.765,-0.647C0.724,-0.647 0.683,-0.641 0.617,-0.641C0.599,-0.641 0.584,-0.642 0.57,-0.642C0.552,-0.642 0.539,-0.639 0.539,-0.632C0.539,-0.627 0.547,-0.619 0.558,-0.617C0.592,-0.608 0.604,-0.596 0.572,-0.564C0.519,-0.511 0.392,-0.4 0.325,-0.359C0.316,-0.354 0.285,-0.345 0.27,-0.345C0.264,-0.345 0.26,-0.35 0.262,-0.358C0.294,-0.465 0.314,-0.522 0.324,-0.552C0.339,-0.594 0.358,-0.611 0.404,-0.619C0.42,-0.622 0.432,-0.627 0.432,-0.634C0.432,-0.64 0.427,-0.644 0.406,-0.644C0.374,-0.644 0.34,-0.641 0.298,-0.641C0.25,-0.641 0.232,-0.643 0.193,-0.643C0.175,-0.643 0.164,-0.64 0.164,-0.632Z" style="fill-rule:nonzero;"/>
        </g>
        <g transform="matrix(32,0,0,32,244.591,55.4643)">
            <path d="M0.15,-0.405C0.107,-0.405 0.06,-0.365 0.038,-0.305C0.033,-0.292 0.036,-0.276 0.043,-0.276C0.047,-0.276 0.054,-0.282 0.064,-0.295C0.085,-0.32 0.105,-0.334 0.119,-0.334C0.13,-0.334 0.14,-0.324 0.129,-0.289C0.098,-0.188 0.066,-0.11 0.029,-0.014C0.028,-0.011 0.027,-0 0.029,0.003C0.034,0.011 0.048,0.017 0.056,0.017C0.067,0.017 0.085,0.01 0.1,-0.02C0.116,-0.052 0.199,-0.219 0.238,-0.28C0.271,-0.333 0.288,-0.344 0.3,-0.344C0.309,-0.344 0.318,-0.326 0.32,-0.304C0.321,-0.288 0.326,-0.284 0.333,-0.284C0.345,-0.284 0.383,-0.32 0.383,-0.363C0.383,-0.38 0.374,-0.405 0.343,-0.405C0.316,-0.405 0.286,-0.383 0.256,-0.348C0.231,-0.32 0.203,-0.282 0.179,-0.242C0.166,-0.221 0.157,-0.219 0.162,-0.237C0.171,-0.26 0.193,-0.326 0.193,-0.358C0.193,-0.379 0.178,-0.405 0.15,-0.405Z" style="fill-rule:nonzero;"/>
        </g>
        <g transform="matrix(32,0,0,32,255.887,55.4643)">
            <path d="M0.279,-0.405C0.241,-0.405 0.185,-0.381 0.133,-0.328C0.069,-0.261 0.025,-0.163 0.025,-0.092C0.025,-0.025 0.079,0.014 0.105,0.014C0.179,0.014 0.246,-0.038 0.274,-0.072C0.281,-0.08 0.286,-0.092 0.286,-0.098C0.286,-0.101 0.283,-0.104 0.281,-0.104C0.275,-0.104 0.266,-0.099 0.255,-0.089C0.227,-0.063 0.189,-0.042 0.156,-0.042C0.129,-0.042 0.105,-0.053 0.105,-0.101C0.105,-0.129 0.11,-0.158 0.116,-0.175C0.118,-0.183 0.124,-0.189 0.132,-0.191C0.172,-0.202 0.238,-0.222 0.275,-0.243C0.322,-0.269 0.354,-0.308 0.354,-0.342C0.354,-0.366 0.339,-0.405 0.279,-0.405ZM0.272,-0.38C0.285,-0.38 0.29,-0.369 0.29,-0.354C0.29,-0.288 0.205,-0.24 0.137,-0.217C0.133,-0.215 0.132,-0.223 0.133,-0.226C0.151,-0.283 0.224,-0.38 0.272,-0.38Z" style="fill-rule:nonzero;"/>
        </g>
        <g transform="matrix(32,0,0,32,266.927,55.4643)">
            <path d="M0.302,-0.39C0.296,-0.39 0.275,-0.382 0.257,-0.371C0.178,-0.317 0.091,-0.223 0.035,-0.131C0.007,-0.085 -0.007,-0.048 -0.007,-0.023C-0.007,-0.003 0.022,0.016 0.04,0.016C0.102,0.016 0.202,-0.07 0.257,-0.13C0.262,-0.136 0.266,-0.126 0.264,-0.12C0.251,-0.085 0.229,-0.033 0.229,-0.022C0.23,-0 0.246,0.016 0.271,0.016C0.314,0.016 0.376,-0.019 0.416,-0.084C0.423,-0.095 0.425,-0.105 0.425,-0.11C0.425,-0.116 0.419,-0.121 0.406,-0.106C0.384,-0.081 0.349,-0.057 0.33,-0.057C0.317,-0.057 0.306,-0.064 0.311,-0.084C0.331,-0.154 0.407,-0.341 0.423,-0.378C0.427,-0.387 0.424,-0.393 0.424,-0.394C0.411,-0.401 0.391,-0.408 0.382,-0.408C0.379,-0.408 0.369,-0.402 0.368,-0.399L0.351,-0.371C0.35,-0.367 0.344,-0.365 0.343,-0.367C0.329,-0.381 0.308,-0.39 0.302,-0.39ZM0.286,-0.334C0.292,-0.334 0.311,-0.327 0.322,-0.317C0.325,-0.314 0.324,-0.302 0.317,-0.287C0.291,-0.23 0.248,-0.16 0.203,-0.114C0.162,-0.069 0.129,-0.046 0.106,-0.046C0.096,-0.046 0.085,-0.062 0.085,-0.076C0.085,-0.125 0.137,-0.218 0.173,-0.262C0.209,-0.308 0.252,-0.334 0.286,-0.334Z" style="fill-rule:nonzero;"/>
        </g>
        <g transform="matrix(32,0,0,32,281.231,55.4643)">
            <path d="M0.256,-0.507C0.234,-0.507 0.219,-0.498 0.206,-0.478C0.194,-0.46 0.179,-0.432 0.163,-0.401C0.162,-0.399 0.157,-0.392 0.152,-0.392C0.143,-0.392 0.112,-0.391 0.092,-0.389C0.085,-0.388 0.071,-0.374 0.071,-0.367C0.071,-0.363 0.078,-0.359 0.088,-0.358L0.139,-0.355C0.142,-0.355 0.144,-0.35 0.141,-0.343C0.098,-0.232 0.03,-0.048 0.026,-0.038C0.022,-0.026 0.021,-0.018 0.021,-0.013C0.021,-0.003 0.039,0.014 0.049,0.014C0.097,0.014 0.198,-0.053 0.239,-0.11C0.246,-0.12 0.248,-0.126 0.248,-0.134C0.248,-0.146 0.235,-0.14 0.227,-0.132C0.204,-0.109 0.148,-0.069 0.128,-0.069C0.118,-0.069 0.117,-0.081 0.122,-0.096C0.151,-0.179 0.203,-0.314 0.218,-0.347C0.22,-0.352 0.223,-0.355 0.227,-0.355C0.246,-0.355 0.304,-0.358 0.319,-0.359C0.33,-0.36 0.34,-0.375 0.34,-0.382C0.34,-0.386 0.337,-0.39 0.334,-0.39C0.309,-0.391 0.263,-0.393 0.243,-0.393C0.238,-0.393 0.236,-0.399 0.237,-0.402C0.24,-0.413 0.259,-0.471 0.262,-0.483C0.267,-0.501 0.265,-0.507 0.256,-0.507Z" style="fill-rule:nonzero;"/>
        </g>
        <g transform="matrix(32,0,0,32,290.671,55.4643)">
            <path d="M0.21,-0.404C0.171,-0.404 0.083,-0.343 0.063,-0.32C0.056,-0.311 0.05,-0.301 0.05,-0.294C0.05,-0.288 0.058,-0.286 0.063,-0.291C0.09,-0.313 0.115,-0.327 0.136,-0.332C0.141,-0.334 0.147,-0.327 0.144,-0.318C0.097,-0.209 0.058,-0.116 0.022,-0.027C0.018,-0.018 0.017,-0.015 0.017,-0.01C0.017,0.001 0.034,0.017 0.049,0.017C0.09,0.017 0.178,-0.046 0.223,-0.1C0.235,-0.113 0.241,-0.127 0.241,-0.136C0.241,-0.14 0.238,-0.142 0.236,-0.142C0.23,-0.142 0.224,-0.135 0.213,-0.124C0.187,-0.096 0.137,-0.06 0.123,-0.06C0.112,-0.06 0.109,-0.071 0.112,-0.077C0.146,-0.157 0.176,-0.233 0.223,-0.345C0.227,-0.355 0.233,-0.371 0.233,-0.38C0.233,-0.389 0.218,-0.404 0.21,-0.404ZM0.233,-0.607C0.225,-0.607 0.215,-0.603 0.205,-0.595C0.194,-0.585 0.183,-0.57 0.183,-0.551C0.183,-0.532 0.193,-0.519 0.206,-0.511C0.21,-0.509 0.216,-0.508 0.222,-0.508C0.245,-0.508 0.271,-0.536 0.271,-0.564C0.271,-0.586 0.257,-0.607 0.233,-0.607Z" style="fill-rule:nonzero;"/>
        </g>
        <g transform="matrix(32,0,0,32,299.087,55.4643)">
            <path d="M0.103,0.012C0.173,0.012 0.245,-0.049 0.286,-0.094C0.354,-0.166 0.411,-0.276 0.411,-0.348C0.411,-0.379 0.396,-0.405 0.376,-0.405C0.352,-0.405 0.321,-0.376 0.321,-0.359C0.321,-0.355 0.324,-0.345 0.33,-0.338C0.336,-0.328 0.344,-0.306 0.344,-0.292C0.344,-0.191 0.241,-0.05 0.158,-0.05C0.144,-0.05 0.12,-0.064 0.132,-0.106C0.142,-0.138 0.194,-0.274 0.218,-0.339C0.224,-0.354 0.225,-0.373 0.219,-0.386C0.216,-0.392 0.208,-0.405 0.199,-0.405C0.148,-0.405 0.075,-0.34 0.052,-0.308C0.046,-0.3 0.041,-0.292 0.041,-0.284C0.041,-0.277 0.05,-0.275 0.058,-0.282C0.08,-0.303 0.115,-0.334 0.134,-0.334C0.138,-0.334 0.141,-0.327 0.14,-0.323C0.124,-0.277 0.085,-0.182 0.066,-0.124C0.055,-0.092 0.051,-0.068 0.051,-0.052C0.051,-0.017 0.071,0.012 0.103,0.012Z" style="fill-rule:nonzero;"/>
        </g>
        <g transform="matrix(32,0,0,32,312.591,55.4643)">
            <path d="M0.21,-0.404C0.171,-0.404 0.083,-0.343 0.063,-0.32C0.056,-0.311 0.05,-0.301 0.05,-0.294C0.05,-0.288 0.058,-0.286 0.063,-0.291C0.09,-0.313 0.115,-0.327 0.136,-0.332C0.141,-0.334 0.147,-0.327 0.144,-0.318C0.097,-0.209 0.058,-0.116 0.022,-0.027C0.018,-0.018 0.017,-0.015 0.017,-0.01C0.017,0.001 0.034,0.017 0.049,0.017C0.09,0.017 0.178,-0.046 0.223,-0.1C0.235,-0.113 0.241,-0.127 0.241,-0.136C0.241,-0.14 0.238,-0.142 0.236,-0.142C0.23,-0.142 0.224,-0.135 0.213,-0.124C0.187,-0.096 0.137,-0.06 0.123,-0.06C0.112,-0.06 0.109,-0.071 0.112,-0.077C0.146,-0.157 0.176,-0.233 0.223,-0.345C0.227,-0.355 0.233,-0.371 0.233,-0.38C0.233,-0.389 0.218,-0.404 0.21,-0.404ZM0.233,-0.607C0.225,-0.607 0.215,-0.603 0.205,-0.595C0.194,-0.585 0.183,-0.57 0.183,-0.551C0.183,-0.532 0.193,-0.519 0.206,-0.511C0.21,-0.509 0.216,-0.508 0.222,-0.508C0.245,-0.508 0.271,-0.536 0.271,-0.564C0.271,-0.586 0.257,-0.607 0.233,-0.607Z" style="fill-rule:nonzero;"/>
        </g>
        <g transform="matrix(32,0,0,32,321.039,55.4643)">
            <path d="M0.256,-0.507C0.234,-0.507 0.219,-0.498 0.206,-0.478C0.194,-0.46 0.179,-0.432 0.163,-0.401C0.162,-0.399 0.157,-0.392 0.152,-0.392C0.143,-0.392 0.112,-0.391 0.092,-0.389C0.085,-0.388 0.071,-0.374 0.071,-0.367C0.071,-0.363 0.078,-0.359 0.088,-0.358L0.139,-0.355C0.142,-0.355 0.144,-0.35 0.141,-0.343C0.098,-0.232 0.03,-0.048 0.026,-0.038C0.022,-0.026 0.021,-0.018 0.021,-0.013C0.021,-0.003 0.039,0.014 0.049,0.014C0.097,0.014 0.198,-0.053 0.239,-0.11C0.246,-0.12 0.248,-0.126 0.248,-0.134C0.248,-0.146 0.235,-0.14 0.227,-0.132C0.204,-0.109 0.148,-0.069 0.128,-0.069C0.118,-0.069 0.117,-0.081 0.122,-0.096C0.151,-0.179 0.203,-0.314 0.218,-0.347C0.22,-0.352 0.223,-0.355 0.227,-0.355C0.246,-0.355 0.304,-0.358 0.319,-0.359C0.33,-0.36 0.34,-0.375 0.34,-0.382C0.34,-0.386 0.337,-0.39 0.334,-0.39C0.309,-0.391 0.263,-0.393 0.243,-0.393C0.238,-0.393 0.236,-0.399 0.237,-0.402C0.24,-0.413 0.259,-0.471 0.262,-0.483C0.267,-0.501 0.265,-0.507 0.256,-0.507Z" style="fill-rule:nonzero;"/>
        </g>
        <g transform="matrix(32,0,0,32,330.383,55.4643)">
            <path d="M0.302,-0.39C0.296,-0.39 0.275,-0.382 0.257,-0.371C0.178,-0.317 0.091,-0.223 0.035,-0.131C0.007,-0.085 -0.007,-0.048 -0.007,-0.023C-0.007,-0.003 0.022,0.016 0.04,0.016C0.102,0.016 0.202,-0.07 0.257,-0.13C0.262,-0.136 0.266,-0.126 0.264,-0.12C0.251,-0.085 0.229,-0.033 0.229,-0.022C0.23,-0 0.246,0.016 0.271,0.016C0.314,0.016 0.376,-0.019 0.416,-0.084C0.423,-0.095 0.425,-0.105 0.425,-0.11C0.425,-0.116 0.419,-0.121 0.406,-0.106C0.384,-0.081 0.349,-0.057 0.33,-0.057C0.317,-0.057 0.306,-0.064 0.311,-0.084C0.331,-0.154 0.407,-0.341 0.423,-0.378C0.427,-0.387 0.424,-0.393 0.424,-0.394C0.411,-0.401 0.391,-0.408 0.382,-0.408C0.379,-0.408 0.369,-0.402 0.368,-0.399L0.351,-0.371C0.35,-0.367 0.344,-0.365 0.343,-0.367C0.329,-0.381 0.308,-0.39 0.302,-0.39ZM0.286,-0.334C0.292,-0.334 0.311,-0.327 0.322,-0.317C0.325,-0.314 0.324,-0.302 0.317,-0.287C0.291,-0.23 0.248,-0.16 0.203,-0.114C0.162,-0.069 0.129,-0.046 0.106,-0.046C0.096,-0.046 0.085,-0.062 0.085,-0.076C0.085,-0.125 0.137,-0.218 0.173,-0.262C0.209,-0.308 0.252,-0.334 0.286,-0.334ZM0.278,-0.605C0.256,-0.605 0.234,-0.584 0.234,-0.554C0.234,-0.532 0.246,-0.513 0.269,-0.513C0.294,-0.513 0.315,-0.537 0.315,-0.564C0.315,-0.584 0.301,-0.605 0.278,-0.605ZM0.429,-0.605C0.408,-0.605 0.384,-0.584 0.384,-0.554C0.384,-0.532 0.397,-0.513 0.42,-0.513C0.446,-0.513 0.466,-0.538 0.465,-0.564C0.465,-0.584 0.452,-0.605 0.429,-0.605Z" style="fill-rule:nonzero;"/>
        </g>
        <g transform="matrix(32,0,0,32,344.687,55.4643)">
            <path d="M0.256,-0.507C0.234,-0.507 0.219,-0.498 0.206,-0.478C0.194,-0.46 0.179,-0.432 0.163,-0.401C0.162,-0.399 0.157,-0.392 0.152,-0.392C0.143,-0.392 0.112,-0.391 0.092,-0.389C0.085,-0.388 0.071,-0.374 0.071,-0.367C0.071,-0.363 0.078,-0.359 0.088,-0.358L0.139,-0.355C0.142,-0.355 0.144,-0.35 0.141,-0.343C0.098,-0.232 0.03,-0.048 0.026,-0.038C0.022,-0.026 0.021,-0.018 0.021,-0.013C0.021,-0.003 0.039,0.014 0.049,0.014C0.097,0.014 0.198,-0.053 0.239,-0.11C0.246,-0.12 0.248,-0.126 0.248,-0.134C0.248,-0.146 0.235,-0.14 0.227,-0.132C0.204,-0.109 0.148,-0.069 0.128,-0.069C0.118,-0.069 0.117,-0.081 0.122,-0.096C0.151,-0.179 0.203,-0.314 0.218,-0.347C0.22,-0.352 0.223,-0.355 0.227,-0.355C0.246,-0.355 0.304,-0.358 0.319,-0.359C0.33,-0.36 0.34,-0.375 0.34,-0.382C0.34,-0.386 0.337,-0.39 0.334,-0.39C0.309,-0.391 0.263,-0.393 0.243,-0.393C0.238,-0.393 0.236,-0.399 0.237,-0.402C0.24,-0.413 0.259,-0.471 0.262,-0.483C0.267,-0.501 0.265,-0.507 0.256,-0.507Z" style="fill-rule:nonzero;"/>
        </g>
        <g transform="matrix(32,0,0,32,22.1593,93.8643)">
            <path d="M0.213,-0.405C0.164,-0.405 0.069,-0.329 0.055,-0.303C0.052,-0.298 0.049,-0.291 0.049,-0.286C0.05,-0.28 0.061,-0.28 0.071,-0.287C0.083,-0.295 0.127,-0.327 0.136,-0.327C0.142,-0.327 0.144,-0.323 0.139,-0.311C0.112,-0.252 0.04,-0.072 0.029,-0.041C0.021,-0.019 0.027,-0.004 0.033,0.003C0.038,0.01 0.048,0.016 0.061,0.016C0.074,0.016 0.098,0.008 0.12,-0.006C0.168,-0.036 0.248,-0.1 0.301,-0.166C0.313,-0.179 0.322,-0.181 0.315,-0.161C0.309,-0.141 0.269,-0.043 0.264,-0.028C0.262,-0.021 0.261,-0.017 0.261,-0.012C0.261,-0.003 0.276,0.016 0.288,0.016C0.332,0.016 0.433,-0.059 0.462,-0.115C0.467,-0.125 0.469,-0.132 0.469,-0.138C0.469,-0.145 0.458,-0.143 0.45,-0.135C0.406,-0.088 0.366,-0.067 0.353,-0.067C0.344,-0.067 0.341,-0.073 0.345,-0.087C0.368,-0.157 0.419,-0.282 0.443,-0.339C0.451,-0.357 0.455,-0.372 0.455,-0.38C0.455,-0.39 0.434,-0.405 0.421,-0.405C0.412,-0.405 0.399,-0.39 0.391,-0.377C0.376,-0.349 0.349,-0.298 0.314,-0.242C0.262,-0.156 0.17,-0.055 0.131,-0.055C0.119,-0.055 0.114,-0.067 0.121,-0.094C0.13,-0.125 0.208,-0.326 0.229,-0.366C0.232,-0.372 0.234,-0.383 0.232,-0.387C0.228,-0.396 0.219,-0.405 0.213,-0.405Z" style="fill-rule:nonzero;"/>
        </g>
        <g transform="matrix(32,0,0,32,37.8073,93.8643)">
            <path d="M0.398,-0.405C0.374,-0.405 0.338,-0.392 0.294,-0.355C0.261,-0.328 0.192,-0.246 0.171,-0.213C0.166,-0.204 0.155,-0.206 0.159,-0.216C0.169,-0.236 0.211,-0.339 0.218,-0.356C0.224,-0.369 0.224,-0.377 0.221,-0.383C0.215,-0.396 0.197,-0.405 0.184,-0.405C0.099,-0.405 0.049,-0.329 0.049,-0.298C0.049,-0.294 0.052,-0.287 0.055,-0.288C0.06,-0.288 0.064,-0.292 0.069,-0.297C0.092,-0.319 0.116,-0.342 0.146,-0.342C0.154,-0.342 0.16,-0.338 0.154,-0.326C0.125,-0.251 0.078,-0.157 0.05,-0.094C0.046,-0.085 0.018,-0.029 0.021,-0.013C0.021,-0.002 0.037,0.017 0.053,0.017C0.064,0.017 0.078,-0.001 0.105,-0.044C0.136,-0.089 0.223,-0.229 0.265,-0.281C0.314,-0.342 0.352,-0.368 0.375,-0.368C0.391,-0.368 0.4,-0.355 0.39,-0.324C0.379,-0.292 0.262,-0.052 0.253,-0.035C0.244,-0.015 0.249,-0.006 0.253,-0.002C0.263,0.012 0.277,0.016 0.286,0.016C0.326,0.016 0.418,-0.04 0.454,-0.094C0.46,-0.101 0.467,-0.112 0.467,-0.123C0.467,-0.131 0.457,-0.13 0.447,-0.121C0.419,-0.095 0.378,-0.063 0.358,-0.063C0.348,-0.063 0.346,-0.073 0.355,-0.091C0.364,-0.107 0.421,-0.227 0.443,-0.286C0.454,-0.314 0.457,-0.329 0.457,-0.346C0.457,-0.374 0.437,-0.405 0.398,-0.405Z" style="fill-rule:nonzero;"/>
        </g>
        <g transform="matrix(32,0,0,32,54.1273,93.8643)">
            <path d="M0.012,-0.055C0.012,-0.031 0.017,-0.013 0.027,-0C0.038,0.011 0.056,0.016 0.071,0.016C0.142,0.016 0.224,-0.051 0.298,-0.161C0.3,-0.165 0.307,-0.157 0.306,-0.153C0.296,-0.122 0.27,-0.044 0.27,-0.021C0.27,-0.009 0.289,0.018 0.303,0.018C0.355,0.018 0.44,-0.055 0.455,-0.109C0.457,-0.116 0.459,-0.121 0.458,-0.128C0.458,-0.136 0.453,-0.138 0.446,-0.129C0.418,-0.091 0.379,-0.06 0.36,-0.06C0.348,-0.06 0.342,-0.069 0.348,-0.088C0.366,-0.153 0.398,-0.257 0.428,-0.357C0.475,-0.507 0.51,-0.607 0.528,-0.671C0.536,-0.698 0.535,-0.714 0.527,-0.714C0.504,-0.714 0.425,-0.701 0.406,-0.695C0.4,-0.693 0.39,-0.685 0.39,-0.681C0.39,-0.677 0.399,-0.671 0.42,-0.662C0.439,-0.653 0.443,-0.646 0.435,-0.614C0.404,-0.498 0.378,-0.42 0.366,-0.381C0.365,-0.378 0.358,-0.377 0.355,-0.378C0.339,-0.393 0.311,-0.405 0.296,-0.405C0.289,-0.405 0.253,-0.398 0.221,-0.38C0.105,-0.315 0.012,-0.147 0.012,-0.055ZM0.09,-0.06C0.09,-0.119 0.141,-0.225 0.208,-0.3C0.262,-0.36 0.296,-0.372 0.312,-0.372C0.323,-0.372 0.333,-0.362 0.338,-0.353C0.344,-0.337 0.342,-0.313 0.332,-0.286C0.319,-0.247 0.295,-0.198 0.262,-0.153C0.207,-0.079 0.139,-0.034 0.109,-0.034C0.099,-0.034 0.09,-0.044 0.09,-0.06Z" style="fill-rule:nonzero;"/>
        </g>
        <g transform="matrix(32,0,0,32,76.0473,93.8643)">
            <path d="M0.372,-0.648C0.32,-0.648 0.275,-0.643 0.235,-0.641L0.171,-0.641C0.154,-0.641 0.146,-0.636 0.146,-0.631C0.146,-0.623 0.154,-0.619 0.19,-0.615C0.233,-0.611 0.246,-0.597 0.231,-0.546C0.199,-0.438 0.115,-0.156 0.097,-0.103C0.079,-0.051 0.071,-0.03 0.005,-0.021C-0.012,-0.018 -0.024,-0.014 -0.024,-0.005C-0.024,0.001 -0.013,0.006 0.002,0.006C0.046,0.006 0.101,-0 0.142,-0C0.182,-0 0.225,0.005 0.245,0.005C0.261,0.005 0.275,0.002 0.275,-0.006C0.275,-0.014 0.267,-0.018 0.249,-0.022C0.2,-0.034 0.177,-0.04 0.196,-0.114C0.231,-0.252 0.307,-0.528 0.34,-0.605C0.344,-0.616 0.354,-0.621 0.359,-0.621C0.395,-0.621 0.416,-0.617 0.436,-0.609C0.48,-0.592 0.501,-0.542 0.5,-0.485C0.499,-0.43 0.463,-0.345 0.39,-0.316C0.371,-0.308 0.348,-0.301 0.32,-0.296C0.309,-0.294 0.303,-0.294 0.303,-0.285C0.303,-0.272 0.33,-0.27 0.339,-0.27C0.357,-0.27 0.407,-0.275 0.451,-0.292C0.501,-0.312 0.595,-0.375 0.595,-0.49C0.595,-0.531 0.578,-0.582 0.531,-0.613C0.495,-0.637 0.441,-0.648 0.372,-0.648Z" style="fill-rule:nonzero;"/>
        </g>
        <g transform="matrix(32,0,0,32,94.2553,93.8643)">
            <path d="M0.15,-0.405C0.107,-0.405 0.06,-0.365 0.038,-0.305C0.033,-0.292 0.036,-0.276 0.043,-0.276C0.047,-0.276 0.054,-0.282 0.064,-0.295C0.085,-0.32 0.105,-0.334 0.119,-0.334C0.13,-0.334 0.14,-0.324 0.129,-0.289C0.098,-0.188 0.066,-0.11 0.029,-0.014C0.028,-0.011 0.027,-0 0.029,0.003C0.034,0.011 0.048,0.017 0.056,0.017C0.067,0.017 0.085,0.01 0.1,-0.02C0.116,-0.052 0.199,-0.219 0.238,-0.28C0.271,-0.333 0.288,-0.344 0.3,-0.344C0.309,-0.344 0.318,-0.326 0.32,-0.304C0.321,-0.288 0.326,-0.284 0.333,-0.284C0.345,-0.284 0.383,-0.32 0.383,-0.363C0.383,-0.38 0.374,-0.405 0.343,-0.405C0.316,-0.405 0.286,-0.383 0.256,-0.348C0.231,-0.32 0.203,-0.282 0.179,-0.242C0.166,-0.221 0.157,-0.219 0.162,-0.237C0.171,-0.26 0.193,-0.326 0.193,-0.358C0.193,-0.379 0.178,-0.405 0.15,-0.405Z" style="fill-rule:nonzero;"/>
        </g>
        <g transform="matrix(32,0,0,32,105.551,93.8643)">
            <path d="M0.277,-0.405C0.228,-0.405 0.183,-0.381 0.148,-0.35C0.066,-0.279 0.024,-0.154 0.024,-0.094C0.024,-0.023 0.075,0.016 0.116,0.016C0.148,0.016 0.176,0.007 0.201,-0.005C0.285,-0.046 0.376,-0.158 0.376,-0.29C0.376,-0.34 0.341,-0.405 0.277,-0.405ZM0.269,-0.378C0.294,-0.378 0.305,-0.358 0.305,-0.331C0.305,-0.242 0.241,-0.104 0.198,-0.054C0.171,-0.021 0.153,-0.012 0.137,-0.012C0.112,-0.012 0.1,-0.033 0.1,-0.056C0.1,-0.157 0.153,-0.28 0.2,-0.335C0.225,-0.365 0.248,-0.378 0.269,-0.378Z" style="fill-rule:nonzero;"/>
        </g>
        <g transform="matrix(32,0,0,32,118.447,93.8643)">
            <path d="M0.36,-0.405C0.291,-0.405 0.208,-0.318 0.159,-0.255C0.157,-0.251 0.15,-0.252 0.152,-0.256C0.181,-0.344 0.293,-0.648 0.318,-0.697C0.322,-0.704 0.319,-0.714 0.315,-0.714C0.303,-0.714 0.206,-0.701 0.195,-0.698C0.183,-0.695 0.169,-0.689 0.169,-0.683C0.169,-0.677 0.176,-0.673 0.183,-0.668C0.206,-0.654 0.218,-0.647 0.205,-0.611C0.186,-0.556 0.108,-0.333 0.085,-0.258C0.061,-0.184 0.038,-0.109 0.038,-0.08C0.038,-0.012 0.083,0.016 0.127,0.016C0.157,0.016 0.191,0.008 0.241,-0.021C0.351,-0.085 0.44,-0.225 0.44,-0.32C0.44,-0.366 0.408,-0.405 0.36,-0.405ZM0.335,-0.368C0.353,-0.368 0.367,-0.355 0.367,-0.338C0.367,-0.257 0.275,-0.111 0.212,-0.051C0.183,-0.025 0.162,-0.013 0.147,-0.013C0.127,-0.013 0.11,-0.047 0.11,-0.059C0.11,-0.086 0.128,-0.146 0.171,-0.217C0.213,-0.286 0.278,-0.368 0.335,-0.368Z" style="fill-rule:nonzero;"/>
        </g>
        <g transform="matrix(32,0,0,32,132.943,93.8643)">
            <path d="M0.167,-0.676C0.167,-0.672 0.177,-0.668 0.19,-0.664C0.223,-0.658 0.231,-0.653 0.217,-0.614C0.158,-0.444 0.085,-0.239 0.045,-0.125C0.025,-0.067 0.012,-0.032 0.012,-0.023C0.012,-0.007 0.036,0.016 0.057,0.016C0.114,0.016 0.193,-0.032 0.231,-0.104C0.234,-0.11 0.238,-0.123 0.238,-0.129C0.237,-0.134 0.232,-0.136 0.225,-0.131C0.206,-0.117 0.126,-0.029 0.105,-0.029C0.095,-0.029 0.094,-0.051 0.099,-0.07C0.118,-0.127 0.25,-0.501 0.319,-0.683C0.322,-0.692 0.326,-0.714 0.317,-0.714C0.311,-0.714 0.3,-0.713 0.288,-0.709C0.266,-0.703 0.196,-0.693 0.185,-0.691C0.174,-0.689 0.167,-0.681 0.167,-0.676Z" style="fill-rule:nonzero;"/>
        </g>
        <g transform="matrix(32,0,0,32,141.359,93.8643)">
            <path d="M0.279,-0.405C0.241,-0.405 0.185,-0.381 0.133,-0.328C0.069,-0.261 0.025,-0.163 0.025,-0.092C0.025,-0.025 0.079,0.014 0.105,0.014C0.179,0.014 0.246,-0.038 0.274,-0.072C0.281,-0.08 0.286,-0.092 0.286,-0.098C0.286,-0.101 0.283,-0.104 0.281,-0.104C0.275,-0.104 0.266,-0.099 0.255,-0.089C0.227,-0.063 0.189,-0.042 0.156,-0.042C0.129,-0.042 0.105,-0.053 0.105,-0.101C0.105,-0.129 0.11,-0.158 0.116,-0.175C0.118,-0.183 0.124,-0.189 0.132,-0.191C0.172,-0.202 0.238,-0.222 0.275,-0.243C0.322,-0.269 0.354,-0.308 0.354,-0.342C0.354,-0.366 0.339,-0.405 0.279,-0.405ZM0.272,-0.38C0.285,-0.38 0.29,-0.369 0.29,-0.354C0.29,-0.288 0.205,-0.24 0.137,-0.217C0.133,-0.215 0.132,-0.223 0.133,-0.226C0.151,-0.283 0.224,-0.38 0.272,-0.38Z" style="fill-rule:nonzero;"/>
        </g>
        <g transform="matrix(32,0,0,32,152.815,93.8643)">
            <path d="M0.183,-0.405C0.103,-0.405 0.056,-0.358 0.045,-0.31C0.041,-0.295 0.046,-0.287 0.049,-0.287C0.053,-0.287 0.059,-0.291 0.067,-0.3C0.101,-0.335 0.126,-0.35 0.148,-0.35C0.164,-0.35 0.164,-0.34 0.158,-0.326C0.115,-0.233 0.059,-0.105 0.033,-0.052C0.028,-0.042 0.02,-0.019 0.021,-0.009C0.023,0.006 0.041,0.016 0.052,0.016C0.061,0.016 0.069,0.005 0.084,-0.015C0.101,-0.04 0.149,-0.117 0.179,-0.165C0.264,-0.297 0.337,-0.369 0.372,-0.369C0.385,-0.369 0.398,-0.357 0.393,-0.337C0.391,-0.321 0.293,-0.107 0.264,-0.032C0.259,-0.021 0.256,-0.01 0.257,-0.004C0.258,0.009 0.268,0.016 0.277,0.016C0.289,0.016 0.311,0.005 0.326,-0.019C0.357,-0.068 0.404,-0.155 0.456,-0.226C0.507,-0.299 0.569,-0.367 0.602,-0.367C0.625,-0.367 0.629,-0.337 0.611,-0.301C0.6,-0.27 0.482,-0.03 0.476,-0.016C0.473,-0.009 0.474,-0.003 0.478,0.001C0.486,0.012 0.498,0.016 0.504,0.016C0.55,0.016 0.658,-0.058 0.697,-0.107C0.705,-0.116 0.715,-0.132 0.715,-0.143C0.715,-0.149 0.706,-0.15 0.695,-0.141C0.658,-0.108 0.605,-0.075 0.586,-0.072C0.583,-0.071 0.577,-0.078 0.583,-0.086C0.604,-0.132 0.665,-0.257 0.68,-0.286C0.686,-0.297 0.694,-0.328 0.694,-0.346C0.694,-0.371 0.678,-0.405 0.637,-0.405C0.616,-0.405 0.581,-0.392 0.554,-0.373C0.52,-0.349 0.464,-0.286 0.432,-0.247C0.427,-0.241 0.42,-0.244 0.424,-0.252C0.441,-0.292 0.458,-0.329 0.458,-0.356C0.458,-0.38 0.431,-0.405 0.403,-0.405C0.377,-0.405 0.351,-0.396 0.32,-0.376C0.278,-0.347 0.211,-0.267 0.194,-0.247C0.183,-0.233 0.17,-0.236 0.176,-0.248C0.192,-0.278 0.224,-0.36 0.228,-0.368C0.23,-0.375 0.229,-0.39 0.222,-0.395C0.215,-0.4 0.199,-0.405 0.183,-0.405Z" style="fill-rule:nonzero;"/>
        </g>
        <g transform="matrix(32,0,0,32,176.015,93.8643)">
            <path d="M0.167,-0.676C0.167,-0.672 0.177,-0.668 0.19,-0.664C0.223,-0.658 0.231,-0.653 0.217,-0.614C0.158,-0.444 0.085,-0.239 0.045,-0.125C0.025,-0.067 0.012,-0.032 0.012,-0.023C0.012,-0.007 0.036,0.016 0.057,0.016C0.114,0.016 0.193,-0.032 0.231,-0.104C0.234,-0.11 0.238,-0.123 0.238,-0.129C0.237,-0.134 0.232,-0.136 0.225,-0.131C0.206,-0.117 0.126,-0.029 0.105,-0.029C0.095,-0.029 0.094,-0.051 0.099,-0.07C0.118,-0.127 0.25,-0.501 0.319,-0.683C0.322,-0.692 0.326,-0.714 0.317,-0.714C0.311,-0.714 0.3,-0.713 0.288,-0.709C0.266,-0.703 0.196,-0.693 0.185,-0.691C0.174,-0.689 0.167,-0.681 0.167,-0.676Z" style="fill-rule:nonzero;"/>
        </g>
        <g transform="matrix(32,0,0,32,184.431,93.8643)">
            <path d="M0.277,-0.405C0.228,-0.405 0.183,-0.381 0.148,-0.35C0.066,-0.279 0.024,-0.154 0.024,-0.094C0.024,-0.023 0.075,0.016 0.116,0.016C0.148,0.016 0.176,0.007 0.201,-0.005C0.285,-0.046 0.376,-0.158 0.376,-0.29C0.376,-0.34 0.341,-0.405 0.277,-0.405ZM0.269,-0.378C0.294,-0.378 0.305,-0.358 0.305,-0.331C0.305,-0.242 0.241,-0.104 0.198,-0.054C0.171,-0.021 0.153,-0.012 0.137,-0.012C0.112,-0.012 0.1,-0.033 0.1,-0.056C0.1,-0.157 0.153,-0.28 0.2,-0.335C0.225,-0.365 0.248,-0.378 0.269,-0.378ZM0.235,-0.605C0.213,-0.605 0.191,-0.584 0.191,-0.554C0.191,-0.532 0.203,-0.513 0.226,-0.513C0.251,-0.513 0.272,-0.537 0.272,-0.564C0.272,-0.584 0.258,-0.605 0.235,-0.605ZM0.386,-0.605C0.365,-0.605 0.341,-0.584 0.341,-0.554C0.341,-0.532 0.354,-0.513 0.377,-0.513C0.403,-0.513 0.423,-0.538 0.422,-0.564C0.422,-0.584 0.409,-0.605 0.386,-0.605Z" style="fill-rule:nonzero;"/>
        </g>
        <g transform="matrix(32,0,0,32,197.103,93.8643)">
            <path d="M0.221,-0.405C0.201,-0.405 0.166,-0.394 0.132,-0.364C0.1,-0.336 0.076,-0.304 0.076,-0.266C0.076,-0.244 0.087,-0.216 0.116,-0.175C0.148,-0.131 0.163,-0.105 0.163,-0.085C0.163,-0.057 0.14,-0.035 0.112,-0.035C0.077,-0.035 0.041,-0.064 0.022,-0.083C0.018,-0.087 0.009,-0.085 0.006,-0.083C-0.003,-0.071 -0.015,-0.048 -0.015,-0.04C-0.015,-0.008 0.027,0.014 0.053,0.014C0.075,0.014 0.128,-0.001 0.169,-0.035C0.202,-0.062 0.226,-0.095 0.226,-0.129C0.226,-0.151 0.211,-0.178 0.183,-0.218C0.157,-0.253 0.134,-0.287 0.134,-0.315C0.134,-0.344 0.161,-0.359 0.172,-0.359C0.199,-0.359 0.216,-0.338 0.238,-0.324C0.243,-0.321 0.249,-0.319 0.253,-0.321C0.261,-0.326 0.281,-0.35 0.281,-0.363C0.281,-0.372 0.276,-0.381 0.27,-0.386C0.263,-0.394 0.243,-0.405 0.221,-0.405Z" style="fill-rule:nonzero;"/>
        </g>
        <g transform="matrix(32,0,0,32,205.999,93.8643)">
            <path d="M0.213,-0.405C0.164,-0.405 0.069,-0.329 0.055,-0.303C0.052,-0.298 0.049,-0.291 0.049,-0.286C0.05,-0.28 0.061,-0.28 0.071,-0.287C0.083,-0.295 0.127,-0.327 0.136,-0.327C0.142,-0.327 0.144,-0.323 0.139,-0.311C0.112,-0.252 0.04,-0.072 0.029,-0.041C0.021,-0.019 0.027,-0.004 0.033,0.003C0.038,0.01 0.048,0.016 0.061,0.016C0.074,0.016 0.098,0.008 0.12,-0.006C0.168,-0.036 0.248,-0.1 0.301,-0.166C0.313,-0.179 0.322,-0.181 0.315,-0.161C0.309,-0.141 0.269,-0.043 0.264,-0.028C0.262,-0.021 0.261,-0.017 0.261,-0.012C0.261,-0.003 0.276,0.016 0.288,0.016C0.332,0.016 0.433,-0.059 0.462,-0.115C0.467,-0.125 0.469,-0.132 0.469,-0.138C0.469,-0.145 0.458,-0.143 0.45,-0.135C0.406,-0.088 0.366,-0.067 0.353,-0.067C0.344,-0.067 0.341,-0.073 0.345,-0.087C0.368,-0.157 0.419,-0.282 0.443,-0.339C0.451,-0.357 0.455,-0.372 0.455,-0.38C0.455,-0.39 0.434,-0.405 0.421,-0.405C0.412,-0.405 0.399,-0.39 0.391,-0.377C0.376,-0.349 0.349,-0.298 0.314,-0.242C0.262,-0.156 0.17,-0.055 0.131,-0.055C0.119,-0.055 0.114,-0.067 0.121,-0.094C0.13,-0.125 0.208,-0.326 0.229,-0.366C0.232,-0.372 0.234,-0.383 0.232,-0.387C0.228,-0.396 0.219,-0.405 0.213,-0.405Z" style="fill-rule:nonzero;"/>
        </g>
        <g transform="matrix(32,0,0,32,221.647,93.8643)">
            <path d="M0.398,-0.405C0.374,-0.405 0.338,-0.392 0.294,-0.355C0.261,-0.328 0.192,-0.246 0.171,-0.213C0.166,-0.204 0.155,-0.206 0.159,-0.216C0.169,-0.236 0.211,-0.339 0.218,-0.356C0.224,-0.369 0.224,-0.377 0.221,-0.383C0.215,-0.396 0.197,-0.405 0.184,-0.405C0.099,-0.405 0.049,-0.329 0.049,-0.298C0.049,-0.294 0.052,-0.287 0.055,-0.288C0.06,-0.288 0.064,-0.292 0.069,-0.297C0.092,-0.319 0.116,-0.342 0.146,-0.342C0.154,-0.342 0.16,-0.338 0.154,-0.326C0.125,-0.251 0.078,-0.157 0.05,-0.094C0.046,-0.085 0.018,-0.029 0.021,-0.013C0.021,-0.002 0.037,0.017 0.053,0.017C0.064,0.017 0.078,-0.001 0.105,-0.044C0.136,-0.089 0.223,-0.229 0.265,-0.281C0.314,-0.342 0.352,-0.368 0.375,-0.368C0.391,-0.368 0.4,-0.355 0.39,-0.324C0.379,-0.292 0.262,-0.052 0.253,-0.035C0.244,-0.015 0.249,-0.006 0.253,-0.002C0.263,0.012 0.277,0.016 0.286,0.016C0.326,0.016 0.418,-0.04 0.454,-0.094C0.46,-0.101 0.467,-0.112 0.467,-0.123C0.467,-0.131 0.457,-0.13 0.447,-0.121C0.419,-0.095 0.378,-0.063 0.358,-0.063C0.348,-0.063 0.346,-0.073 0.355,-0.091C0.364,-0.107 0.421,-0.227 0.443,-0.286C0.454,-0.314 0.457,-0.329 0.457,-0.346C0.457,-0.374 0.437,-0.405 0.398,-0.405Z" style="fill-rule:nonzero;"/>
        </g>
        <g transform="matrix(32,0,0,32,237.679,93.8643)">
            <path d="M0.27,-0.406C0.23,-0.406 0.191,-0.391 0.159,-0.368C0.129,-0.348 0.04,-0.271 0.04,-0.161C0.04,-0.123 0.063,-0.099 0.101,-0.084C0.104,-0.083 0.102,-0.075 0.101,-0.074C0.092,-0.065 0.078,-0.053 0.066,-0.037C0.056,-0.022 0.056,-0.013 0.056,-0.007C0.056,0.002 0.073,0.024 0.08,0.033C0.081,0.035 0.08,0.039 0.076,0.041C0.048,0.056 0.003,0.073 -0.03,0.095C-0.057,0.113 -0.092,0.136 -0.092,0.17C-0.092,0.192 -0.073,0.225 -0.038,0.245C-0.008,0.262 0.036,0.277 0.087,0.277C0.148,0.277 0.217,0.258 0.276,0.222C0.305,0.204 0.327,0.17 0.327,0.151C0.327,0.121 0.304,0.089 0.269,0.065C0.243,0.048 0.178,0.01 0.149,-0.01C0.141,-0.015 0.12,-0.034 0.12,-0.054C0.12,-0.059 0.123,-0.07 0.126,-0.076C0.128,-0.079 0.13,-0.081 0.132,-0.081C0.148,-0.083 0.185,-0.088 0.206,-0.097C0.263,-0.121 0.351,-0.22 0.351,-0.312C0.351,-0.319 0.35,-0.329 0.347,-0.342C0.346,-0.346 0.345,-0.354 0.357,-0.354C0.383,-0.354 0.397,-0.344 0.424,-0.344C0.438,-0.344 0.448,-0.353 0.448,-0.375C0.448,-0.394 0.439,-0.403 0.424,-0.403C0.402,-0.403 0.371,-0.391 0.356,-0.389C0.339,-0.386 0.336,-0.385 0.326,-0.391C0.313,-0.397 0.286,-0.406 0.27,-0.406ZM0.258,-0.38C0.273,-0.38 0.289,-0.364 0.289,-0.337C0.289,-0.27 0.213,-0.159 0.181,-0.131C0.163,-0.115 0.147,-0.105 0.138,-0.105C0.121,-0.105 0.103,-0.12 0.103,-0.147C0.103,-0.197 0.155,-0.305 0.212,-0.356C0.226,-0.369 0.245,-0.38 0.258,-0.38ZM0.137,0.24C0.094,0.24 0.04,0.228 0.005,0.204C-0.011,0.192 -0.018,0.177 -0.018,0.164C-0.018,0.114 0.063,0.068 0.089,0.058C0.093,0.056 0.109,0.057 0.115,0.06C0.141,0.072 0.204,0.111 0.229,0.131C0.251,0.148 0.253,0.164 0.253,0.174C0.253,0.219 0.185,0.24 0.137,0.24Z" style="fill-rule:nonzero;"/>
        </g>
        <g transform="matrix(32,0,0,32,250.383,93.8643)">
            <path d="M0.279,-0.405C0.241,-0.405 0.185,-0.381 0.133,-0.328C0.069,-0.261 0.025,-0.163 0.025,-0.092C0.025,-0.025 0.079,0.014 0.105,0.014C0.179,0.014 0.246,-0.038 0.274,-0.072C0.281,-0.08 0.286,-0.092 0.286,-0.098C0.286,-0.101 0.283,-0.104 0.281,-0.104C0.275,-0.104 0.266,-0.099 0.255,-0.089C0.227,-0.063 0.189,-0.042 0.156,-0.042C0.129,-0.042 0.105,-0.053 0.105,-0.101C0.105,-0.129 0.11,-0.158 0.116,-0.175C0.118,-0.183 0.124,-0.189 0.132,-0.191C0.172,-0.202 0.238,-0.222 0.275,-0.243C0.322,-0.269 0.354,-0.308 0.354,-0.342C0.354,-0.366 0.339,-0.405 0.279,-0.405ZM0.272,-0.38C0.285,-0.38 0.29,-0.369 0.29,-0.354C0.29,-0.288 0.205,-0.24 0.137,-0.217C0.133,-0.215 0.132,-0.223 0.133,-0.226C0.151,-0.283 0.224,-0.38 0.272,-0.38Z" style="fill-rule:nonzero;"/>
        </g>
        <g transform="matrix(32,0,0,32,261.839,93.8643)">
            <path d="M0.398,-0.405C0.374,-0.405 0.338,-0.392 0.294,-0.355C0.261,-0.328 0.192,-0.246 0.171,-0.213C0.166,-0.204 0.155,-0.206 0.159,-0.216C0.169,-0.236 0.211,-0.339 0.218,-0.356C0.224,-0.369 0.224,-0.377 0.221,-0.383C0.215,-0.396 0.197,-0.405 0.184,-0.405C0.099,-0.405 0.049,-0.329 0.049,-0.298C0.049,-0.294 0.052,-0.287 0.055,-0.288C0.06,-0.288 0.064,-0.292 0.069,-0.297C0.092,-0.319 0.116,-0.342 0.146,-0.342C0.154,-0.342 0.16,-0.338 0.154,-0.326C0.125,-0.251 0.078,-0.157 0.05,-0.094C0.046,-0.085 0.018,-0.029 0.021,-0.013C0.021,-0.002 0.037,0.017 0.053,0.017C0.064,0.017 0.078,-0.001 0.105,-0.044C0.136,-0.089 0.223,-0.229 0.265,-0.281C0.314,-0.342 0.352,-0.368 0.375,-0.368C0.391,-0.368 0.4,-0.355 0.39,-0.324C0.379,-0.292 0.262,-0.052 0.253,-0.035C0.244,-0.015 0.249,-0.006 0.253,-0.002C0.263,0.012 0.277,0.016 0.286,0.016C0.326,0.016 0.418,-0.04 0.454,-0.094C0.46,-0.101 0.467,-0.112 0.467,-0.123C0.467,-0.131 0.457,-0.13 0.447,-0.121C0.419,-0.095 0.378,-0.063 0.358,-0.063C0.348,-0.063 0.346,-0.073 0.355,-0.091C0.364,-0.107 0.421,-0.227 0.443,-0.286C0.454,-0.314 0.457,-0.329 0.457,-0.346C0.457,-0.374 0.437,-0.405 0.398,-0.405Z" style="fill-rule:nonzero;"/>
        </g>
    </g>
</svg>
