<?xml version="1.0" encoding="UTF-8" standalone="no"?>
<!DOCTYPE svg PUBLIC "-//W3C//DTD SVG 1.1//EN" "http://www.w3.org/Graphics/SVG/1.1/DTD/svg11.dtd">
<svg width="100%" height="100%" viewBox="0 0 568 150" version="1.1" xmlns="http://www.w3.org/2000/svg" xmlns:xlink="http://www.w3.org/1999/xlink" xml:space="preserve" xmlns:serif="http://www.serif.com/" style="fill-rule:evenodd;clip-rule:evenodd;stroke-linecap:round;stroke-miterlimit:10;">
    <g transform="matrix(0.179975,0,0,0.179856,0,0)">
        <g transform="matrix(5.55634,0,0,5.56,0,0)">
            <rect x="0.081" y="0" width="567.919" height="150" style="fill:rgb(255,153,153);"/>
        </g>
        <g>
            <g transform="matrix(5.55634,0,0,5.56,61.6196,-151.385)">
                <path d="M-53.789,102.228C-48.274,84.764 -37.243,49.838 -24.945,40.751C-12.753,31.741 5.607,52.463 20,47.704C34.676,42.85 46.737,20.74 63.111,11.631C81.46,1.425 113.882,-8.548 130.093,-13.535" style="fill:none;stroke:rgb(236,114,116);stroke-width:0.8px;"/>
            </g>
            <g transform="matrix(5.55634,0,0,4.02286,25.5339,-78.3724)">
                <path d="M-32.194,139.29C-23.897,118.113 -7.303,75.758 5.927,75C19.157,74.242 36.598,139.05 47.188,134.745C57.778,130.439 53.184,62.698 69.467,49.166C85.75,35.635 128.624,66.021 144.886,53.557C161.149,41.093 165.076,-3.381 167.04,-25.618" style="fill:none;stroke:rgb(236,114,116);stroke-width:0.92px;"/>
            </g>
            <g transform="matrix(8.30542,0,0,5.56,-173.19,-175.414)">
                <path d="M-7.713,120.471C6.789,136.778 35.792,169.391 51.357,164.907C66.921,160.423 68.545,98.896 85.675,93.57C102.804,88.243 134.21,139.07 154.131,132.947C174.053,126.825 176.696,67.828 205.203,56.836C233.985,45.738 303.675,78.087 326.824,66.359C349.974,54.63 346.058,9.187 344.101,-13.535" style="fill:none;stroke:rgb(236,114,116);stroke-width:0.63px;"/>
            </g>
            <g transform="matrix(5.55634,0,0,5.56,82.4344,-122.718)">
                <path d="M197.977,182.376C204.957,159.592 218.916,114.025 243.526,112.82C268.136,111.615 318.355,179.512 345.636,175.143C372.918,170.775 383.927,100.594 407.216,86.609C429.589,73.174 466.01,108.732 485.369,91.232C508.503,70.321 533.514,-2.468 546.019,-38.862" style="fill:none;stroke:rgb(236,114,116);stroke-width:0.8px;"/>
            </g>
            <g transform="matrix(5.55634,0,0,5.56,11.6861,-94.7966)">
                <path d="M438.283,182.376C439.786,166.058 442.791,133.423 459.235,132.057C475.678,130.691 521.354,181.176 536.944,174.18C552.534,167.184 544.414,102.862 552.775,90.081C559.185,80.283 577.802,91.758 587.111,97.496" style="fill:none;stroke:rgb(236,114,116);stroke-width:0.8px;"/>
            </g>
        </g>
        <g transform="matrix(0.841625,0,0,0.841625,111.127,-6.07282)">
            <g>
                <path d="M192.462,222.25C184.741,179.639 150.71,154.473 108.957,154.473C55.765,154.473 17.159,195.368 17.159,261.143C17.159,326.917 55.765,368.098 108.957,368.098C150.71,368.098 184.741,342.932 192.462,300.321L167.296,300.321C161.291,329.205 136.411,344.648 108.957,344.648C71.208,344.648 41.467,315.192 41.467,261.143C41.467,207.093 71.208,177.923 108.957,177.923C136.411,177.923 161.291,193.366 167.296,222.25L192.462,222.25Z" style="fill:rgb(240,242,244);fill-rule:nonzero;"/>
            </g>
            <g>
                <path d="M293.203,368.384C335.528,368.384 363.839,336.354 363.839,288.024C363.839,239.408 335.528,207.093 293.203,207.093C251.165,207.093 222.567,239.408 222.567,288.024C222.567,336.354 251.165,368.384 293.203,368.384ZM293.203,346.936C261.174,346.936 246.589,319.196 246.589,288.024C246.589,256.853 261.174,228.827 293.203,228.827C325.519,228.827 340.103,256.853 340.103,288.024C340.103,319.196 325.519,346.936 293.203,346.936Z" style="fill:rgb(240,242,244);fill-rule:nonzero;"/>
            </g>
            <g>
                <path d="M400.613,365.238L424.635,365.238L424.635,266.576C424.635,245.414 441.222,229.971 463.814,229.971C470.392,229.971 476.969,231.115 478.399,231.687L478.399,207.093C475.825,207.093 469.534,206.807 465.816,206.807C447.227,206.807 430.927,217.388 425.207,232.831L423.777,232.831L423.777,209.381L400.613,209.381L400.613,365.238Z" style="fill:rgb(240,242,244);fill-rule:nonzero;"/>
            </g>
            <g>
                <path d="M507.042,423.863L531.064,423.863L531.064,341.216L533.066,341.216C538.214,349.795 548.509,368.384 578.536,368.384C617.429,368.384 644.597,337.212 644.597,287.738C644.597,238.55 617.429,207.093 577.965,207.093C547.651,207.093 538.214,225.967 533.066,233.975L530.206,233.975L530.206,209.381L507.042,209.381L507.042,423.863ZM530.492,287.166C530.492,252.277 545.935,228.827 575.105,228.827C605.704,228.827 620.575,254.279 620.575,287.166C620.575,320.626 605.132,346.936 575.105,346.936C546.221,346.936 530.492,322.628 530.492,287.166Z" style="fill:rgb(240,242,244);fill-rule:nonzero;"/>
            </g>
            <g>
                <path d="M744.509,368.384C786.833,368.384 815.145,336.354 815.145,288.024C815.145,239.408 786.833,207.093 744.509,207.093C702.47,207.093 673.872,239.408 673.872,288.024C673.872,336.354 702.47,368.384 744.509,368.384ZM744.509,346.936C712.479,346.936 697.895,319.196 697.895,288.024C697.895,256.853 712.479,228.827 744.509,228.827C776.824,228.827 791.409,256.853 791.409,288.024C791.409,319.196 776.824,346.936 744.509,346.936Z" style="fill:rgb(240,242,244);fill-rule:nonzero;"/>
            </g>
            <g>
                <path d="M851.919,365.238L875.941,365.238L875.941,266.576C875.941,245.414 892.527,229.971 915.12,229.971C921.697,229.971 928.274,231.115 929.704,231.687L929.704,207.093C927.131,207.093 920.839,206.807 917.121,206.807C898.533,206.807 882.232,217.388 876.513,232.831L875.083,232.831L875.083,209.381L851.919,209.381L851.919,365.238Z" style="fill:rgb(240,242,244);fill-rule:nonzero;"/>
            </g>
            <g>
                <path d="M1004.1,368.956C1031.27,368.956 1045.57,354.371 1050.43,344.076L1051.58,344.076L1051.58,365.238L1075.6,365.238L1075.6,262.572C1075.6,212.813 1037.85,207.093 1018.12,207.093C994.381,207.093 967.499,215.386 955.488,243.698L978.08,251.991C983.514,240.552 995.811,228.255 1018.69,228.255C1040.71,228.255 1051.58,239.98 1051.58,259.999L1051.58,260.857C1051.58,272.296 1039.85,271.438 1011.54,275.155C982.656,278.873 950.912,285.165 950.912,320.912C950.912,351.511 974.648,368.956 1004.1,368.956ZM1007.82,347.508C988.661,347.508 974.934,338.928 974.934,322.056C974.934,304.039 991.521,298.32 1010.39,295.746C1020.4,294.602 1047.57,291.742 1051.58,286.88L1051.58,308.901C1051.58,328.347 1036.13,347.508 1007.82,347.508Z" style="fill:rgb(240,242,244);fill-rule:nonzero;"/>
            </g>
            <g>
                <path d="M1187.39,209.381L1153.93,209.381L1153.93,171.918L1130.2,171.918L1130.2,209.381L1106.46,209.381L1106.46,229.685L1130.2,229.685L1130.2,326.917C1130.2,354.371 1151.93,367.24 1172.24,367.24C1181.39,367.24 1186.82,365.524 1190.25,364.38L1185.39,342.932C1183.39,343.218 1179.96,344.076 1174.81,344.076C1164.23,344.076 1153.93,340.93 1153.93,320.626L1153.93,229.685L1187.39,229.685L1187.39,209.381Z" style="fill:rgb(240,242,244);fill-rule:nonzero;"/>
            </g>
            <g>
                <path d="M1287.19,368.384C1318.93,368.384 1342.09,352.655 1349.53,329.205L1326.37,322.628C1320.07,338.928 1306.06,346.936 1287.19,346.936C1259.16,346.936 1239.71,328.919 1238.57,295.46L1351.82,295.46L1351.82,285.165C1351.82,227.111 1317.5,207.093 1284.9,207.093C1242.57,207.093 1214.55,240.552 1214.55,288.596C1214.55,336.354 1242.29,368.384 1287.19,368.384ZM1238.57,274.583C1240.29,250.275 1257.44,228.827 1284.9,228.827C1310.92,228.827 1327.51,248.274 1327.51,274.583L1238.57,274.583Z" style="fill:rgb(240,242,244);fill-rule:nonzero;"/>
            </g>
            <g>
                <rect x="1472.11" y="157.333" width="25.166" height="207.905" style="fill:rgb(240,242,244);"/>
            </g>
            <g>
                <path d="M1603.43,368.384C1633.46,368.384 1643.47,349.795 1648.9,341.216L1651.76,341.216L1651.76,365.238L1674.92,365.238L1674.92,157.333L1650.9,157.333L1650.9,233.975L1648.9,233.975C1643.47,225.967 1634.32,207.093 1603.72,207.093C1564.25,207.093 1537.08,238.55 1537.08,287.738C1537.08,337.212 1564.25,368.384 1603.43,368.384ZM1606.58,346.936C1576.55,346.936 1561.11,320.626 1561.11,287.166C1561.11,254.279 1575.98,228.827 1606.58,228.827C1635.75,228.827 1651.19,252.277 1651.19,287.166C1651.19,322.628 1635.46,346.936 1606.58,346.936Z" style="fill:rgb(240,242,244);fill-rule:nonzero;"/>
            </g>
            <g>
                <path d="M1787.24,368.384C1818.98,368.384 1842.14,352.655 1849.58,329.205L1826.42,322.628C1820.12,338.928 1806.11,346.936 1787.24,346.936C1759.21,346.936 1739.77,328.919 1738.62,295.46L1851.87,295.46L1851.87,285.165C1851.87,227.111 1817.55,207.093 1784.95,207.093C1742.62,207.093 1714.6,240.552 1714.6,288.596C1714.6,336.354 1742.34,368.384 1787.24,368.384ZM1738.62,274.583C1740.34,250.275 1757.5,228.827 1784.95,228.827C1810.97,228.827 1827.56,248.274 1827.56,274.583L1738.62,274.583Z" style="fill:rgb(240,242,244);fill-rule:nonzero;"/>
            </g>
            <g>
                <path d="M1912.61,271.438C1912.61,244.27 1929.2,228.827 1952.36,228.827C1974.38,228.827 1988.11,243.412 1988.11,267.72L1988.11,365.238L2012.13,365.238L2012.13,266.004C2012.13,226.253 1990.68,207.093 1959.22,207.093C1935.49,207.093 1920.9,217.674 1913.75,233.689L1911.75,233.689L1911.75,209.381L1888.59,209.381L1888.59,365.238L1912.61,365.238L1912.61,271.438Z" style="fill:rgb(240,242,244);fill-rule:nonzero;"/>
            </g>
            <g>
                <path d="M2123.72,209.381L2090.26,209.381L2090.26,171.918L2066.52,171.918L2066.52,209.381L2042.79,209.381L2042.79,229.685L2066.52,229.685L2066.52,326.917C2066.52,354.371 2088.26,367.24 2108.56,367.24C2117.71,367.24 2123.14,365.524 2126.58,364.38L2121.72,342.932C2119.71,343.218 2116.28,344.076 2111.13,344.076C2100.55,344.076 2090.26,340.93 2090.26,320.626L2090.26,229.685L2123.72,229.685L2123.72,209.381Z" style="fill:rgb(240,242,244);fill-rule:nonzero;"/>
            </g>
            <g>
                <path d="M2159.95,365.238L2183.97,365.238L2183.97,209.381L2159.95,209.381L2159.95,365.238ZM2171.96,183.357C2181.4,183.357 2189.12,175.922 2189.12,167.056C2189.12,158.191 2181.4,150.756 2171.96,150.756C2162.81,150.756 2155.09,158.191 2155.09,167.056C2155.09,175.922 2162.81,183.357 2171.96,183.357Z" style="fill:rgb(240,242,244);fill-rule:nonzero;"/>
            </g>
            <g>
                <path d="M2295.56,209.381L2262.1,209.381L2262.1,171.918L2238.37,171.918L2238.37,209.381L2214.63,209.381L2214.63,229.685L2238.37,229.685L2238.37,326.917C2238.37,354.371 2260.1,367.24 2280.4,367.24C2289.55,367.24 2294.99,365.524 2298.42,364.38L2293.56,342.932C2291.56,343.218 2288.12,344.076 2282.98,344.076C2272.4,344.076 2262.1,340.93 2262.1,320.626L2262.1,229.685L2295.56,229.685L2295.56,209.381Z" style="fill:rgb(240,242,244);fill-rule:nonzero;"/>
            </g>
            <g>
                <path d="M2331.76,365.238L2355.79,365.238L2355.79,209.381L2331.76,209.381L2331.76,365.238ZM2343.78,183.357C2353.21,183.357 2360.93,175.922 2360.93,167.056C2360.93,158.191 2353.21,150.756 2343.78,150.756C2334.62,150.756 2326.9,158.191 2326.9,167.056C2326.9,175.922 2334.62,183.357 2343.78,183.357Z" style="fill:rgb(240,242,244);fill-rule:nonzero;"/>
            </g>
            <g>
                <path d="M2415.04,423.863C2436.49,423.863 2451.93,412.138 2460.8,388.116L2527.14,209.667L2501.12,209.381L2457.94,333.495L2456.51,333.495L2413.33,209.381L2387.3,209.381L2445.07,366.096L2440.49,378.107C2431.91,402.129 2421.05,404.131 2403.6,399.841L2397.6,421.004C2399.88,422.147 2406.75,423.863 2415.04,423.863Z" style="fill:rgb(240,242,244);fill-rule:nonzero;"/>
            </g>
            <g>
                <rect x="0" y="521.553" width="142.988" height="22.306" style="fill:rgb(240,242,244);"/>
            </g>
            <g>
                <path d="M310.642,625.076C342.386,625.076 365.55,609.348 372.985,585.898L349.821,579.32C343.529,595.621 329.517,603.628 310.642,603.628C282.616,603.628 263.17,585.612 262.026,552.152L375.273,552.152L375.273,541.857C375.273,483.804 340.956,463.786 308.354,463.786C266.03,463.786 238.004,497.245 238.004,545.289C238.004,593.047 265.744,625.076 310.642,625.076ZM262.026,531.276C263.742,506.968 280.901,485.52 308.354,485.52C334.378,485.52 350.965,504.966 350.965,531.276L262.026,531.276Z" style="fill:rgb(240,242,244);fill-rule:nonzero;"/>
            </g>
            <g>
                <path d="M411.987,621.931L436.009,621.931L436.009,466.073L411.987,466.073L411.987,621.931ZM423.998,440.05C433.435,440.05 441.156,432.614 441.156,423.749C441.156,414.884 433.435,407.448 423.998,407.448C414.846,407.448 407.125,414.884 407.125,423.749C407.125,432.614 414.846,440.05 423.998,440.05Z" style="fill:rgb(240,242,244);fill-rule:nonzero;"/>
            </g>
            <g>
                <path d="M503.848,528.13C503.848,500.963 520.435,485.52 543.599,485.52C565.619,485.52 579.346,500.105 579.346,524.413L579.346,621.931L603.368,621.931L603.368,522.697C603.368,482.946 581.92,463.786 550.462,463.786C526.726,463.786 512.141,474.367 504.992,490.381L502.99,490.381L502.99,466.073L479.826,466.073L479.826,621.931L503.848,621.931L503.848,528.13Z" style="fill:rgb(240,242,244);fill-rule:nonzero;"/>
            </g>
            <path d="M845.595,518.656C855.516,514.243 863.755,507.974 870.325,499.902C879.56,488.593 884.159,475.529 884.159,460.64C884.159,445.97 879.627,435.053 871.075,427.686L871.071,427.682C862.753,420.548 851.211,416.759 836.279,416.759L744.693,416.759L739.12,439.604L759.394,439.604C759.394,439.604 718.402,604.646 718.402,604.646L698.079,604.646L692.506,627.491L800.246,627.491C810.14,627.491 819.21,625.39 827.499,621.168C835.653,617.058 842.694,611.74 848.657,605.252C854.651,598.763 859.32,591.41 862.719,583.159C866.153,574.855 867.858,566.425 867.858,557.872C867.858,546.585 864.735,537.154 858.635,529.521C855.154,525.16 850.813,521.528 845.595,518.656ZM831.442,518.917L831.451,518.989C841.357,521.677 848.982,526.336 854.295,532.992C859.643,539.684 862.302,547.977 862.302,557.872C862.302,565.708 860.73,573.429 857.584,581.036C854.438,588.672 850.12,595.478 844.572,601.483C839.053,607.489 832.532,612.408 824.983,616.211C817.461,620.043 809.225,621.931 800.246,621.931L699.582,621.931L702.442,610.206L722.746,610.206L766.5,434.044L746.196,434.044L749.056,422.319L836.279,422.319C849.634,422.319 860.015,425.522 867.45,431.899C874.885,438.305 878.603,447.885 878.603,460.64C878.603,474.195 874.428,486.092 866.02,496.387C857.641,506.682 846.288,513.746 831.989,517.549L831.442,518.917ZM747.34,609.062L791.38,609.062C801.876,609.062 810.798,605.83 818.119,599.339C825.469,592.875 830.559,584.382 833.419,573.887C834.391,571.027 835.392,567.309 836.422,562.734C837.48,558.158 837.994,554.269 837.994,551.008C837.994,543.201 835.85,536.967 831.56,532.277C827.27,527.616 820.836,525.271 812.257,525.271L768.216,525.271L747.34,609.062ZM754.452,603.502L772.557,530.831C772.557,530.831 812.257,530.831 812.257,530.831C818.972,530.831 824.106,532.391 827.466,536.036C830.881,539.773 832.438,544.79 832.438,551.008C832.438,553.921 831.954,557.393 831.009,561.481L831.005,561.496C830.024,565.853 829.081,569.383 828.159,572.097L828.058,572.424C825.506,581.789 821.01,589.395 814.451,595.163L814.443,595.17C808.127,600.769 800.422,603.502 791.38,603.502L754.452,603.502ZM771.362,512.402L811.399,512.402C820.95,512.402 829.244,509.313 836.279,503.107C843.342,496.93 848.004,489.152 850.291,479.8C851.064,477.141 851.979,473.623 853.008,469.219C854.066,464.844 854.581,461.04 854.581,457.78C854.581,451.689 852.779,446.398 849.148,441.908C845.544,437.447 839.424,435.188 830.845,435.188L790.522,435.188L771.362,512.402ZM778.467,506.842L794.867,440.748C794.867,440.748 830.845,440.748 830.845,440.748C837.329,440.748 842.103,442.032 844.827,445.403L844.828,445.405C847.657,448.903 849.025,453.036 849.025,457.78C849.025,460.668 848.545,464.035 847.608,467.911L847.602,467.932C846.597,472.237 845.708,475.66 844.956,478.247L844.922,478.362C842.889,486.678 838.815,493.505 832.623,498.921L832.614,498.928C826.61,504.224 819.537,506.842 811.399,506.842L778.467,506.842Z" style="fill:rgb(240,242,244);"/>
            <path d="M953.889,488.889L960.235,463.635L897.141,477.104L892.508,497.371L918.111,497.371L885.796,627.491L920.118,627.491L929.473,590.069C930.779,584.514 932.574,578.64 934.863,572.378C937.236,565.994 939.638,559.863 942.067,554.014C944.534,548.173 946.859,542.813 949.015,537.992C951.178,533.216 952.921,529.532 954.217,526.884C960.141,515.094 966.105,505.286 972.196,497.536L972.196,497.536C973.737,495.574 975.244,493.843 976.731,492.358C976.623,493.218 976.571,494.085 976.571,494.957C976.571,500.332 978.378,504.768 981.828,508.379L981.839,508.391C985.319,511.991 990.039,513.958 996.14,513.958C1003.26,513.958 1008.95,511.374 1013.25,506.273C1017.39,501.429 1019.43,495.857 1019.43,489.524C1019.43,482.567 1016.93,476.782 1011.92,472.145L1011.92,472.145C1007.24,467.809 1000.52,465.375 991.564,465.375C984.861,465.375 978.802,466.905 973.306,469.921L973.3,469.924C968.066,472.814 963.169,476.96 958.678,482.413L958.678,482.413C957.044,484.398 955.447,486.557 953.889,488.889ZM986.253,480.781L987.846,482.374C986.331,483.718 984.986,485.52 983.843,487.808C982.699,490.095 982.127,492.498 982.127,494.957C982.127,498.789 983.385,501.963 985.844,504.537C988.332,507.111 991.764,508.398 996.14,508.398C1001.49,508.398 1005.78,506.511 1009.01,502.678C1012.27,498.875 1013.87,494.499 1013.87,489.524C1013.87,484.204 1011.98,479.772 1008.15,476.226C1004.35,472.708 998.828,470.935 991.564,470.935C985.844,470.935 980.668,472.222 975.978,474.796C971.317,477.369 966.97,481.087 962.966,485.949C958.963,490.81 955.216,496.787 951.67,503.822C948.153,510.886 944.578,518.808 940.946,527.558L938.658,526.7L952.671,470.935L901.767,481.802L899.479,491.811L925.217,491.811L892.902,621.931L915.78,621.931L924.073,588.757C925.418,583.038 927.276,576.947 929.65,570.455C932.052,563.992 934.483,557.786 936.942,551.866C939.43,545.975 941.775,540.57 943.949,535.709C946.151,530.847 947.924,527.101 949.239,524.413C955.359,512.23 961.536,502.106 967.828,494.099C973.774,486.531 979.568,482.131 985.16,480.851L986.109,483.354C986.127,482.555 986.169,481.664 986.253,480.781Z" style="fill:rgb(240,242,244);"/>
            <path d="M1083.75,600.949L1083.74,601.01C1083.23,604.239 1082.95,607.018 1082.95,609.348C1082.95,615.13 1084.69,620.032 1088.07,624.163C1091.56,628.432 1097.05,630.922 1104.81,630.922C1109.77,630.922 1114.9,629.38 1120.09,626.053C1124.59,623.202 1130.56,617.538 1137.91,608.963L1161.98,580.832L1146.7,568.745L1116.94,598.509L1150,468.807L1127.6,468.807L1118.9,484.219C1116.41,479.321 1113.34,475.43 1109.76,472.496L1109.76,472.496C1104.16,467.909 1096.34,465.375 1086.22,465.375C1077.72,465.375 1069.73,467.297 1062.24,471.134L1062.23,471.137C1055.03,474.85 1048.47,479.792 1042.59,485.976L1042.58,485.978C1036.85,492.015 1031.72,499.07 1027.19,507.095L1027.19,507.099C1022.73,515.035 1019.01,523.354 1016.05,532.058C1013.1,540.734 1010.85,549.468 1009.26,558.319L1009.26,558.325C1007.68,567.249 1006.88,575.781 1006.88,583.896C1006.88,598.531 1009.48,609.71 1014.28,617.544L1014.29,617.549C1019.69,626.336 1028.24,630.922 1040.18,630.922C1047.11,630.922 1053.46,629.237 1059.25,625.891C1064.71,622.754 1069.89,618.446 1074.79,612.898C1077.91,609.403 1080.9,605.416 1083.75,600.949ZM1094.12,569.375L1094.16,569.579L1094.07,569.466C1090.41,577.211 1086.81,584.356 1083.22,590.902C1079.33,598.052 1075.13,604.172 1070.64,609.205C1066.17,614.267 1061.46,618.213 1056.48,621.073C1051.53,623.933 1046.1,625.362 1040.18,625.362C1030.46,625.362 1023.42,621.788 1019.02,614.638C1014.64,607.489 1012.44,597.251 1012.44,583.896C1012.44,576.089 1013.21,567.881 1014.73,559.302C1016.27,550.723 1018.45,542.258 1021.31,533.85C1024.16,525.471 1027.74,517.463 1032.03,509.828C1036.32,502.221 1041.18,495.529 1046.61,489.809C1052.05,484.09 1058.11,479.514 1064.77,476.083C1071.47,472.651 1078.62,470.935 1086.22,470.935C1094.8,470.935 1101.49,472.908 1106.24,476.798C1111.02,480.715 1114.65,486.664 1117.11,494.671L1119.39,494.671L1130.84,474.367L1142.85,474.367L1109.1,606.774L1114.25,609.062L1147.13,576.174L1154,581.608L1133.69,605.344C1126.83,613.351 1121.31,618.699 1117.11,621.359C1112.93,624.047 1108.81,625.362 1104.81,625.362C1099.09,625.362 1094.94,623.79 1092.37,620.644C1089.8,617.498 1088.51,613.752 1088.51,609.348C1088.51,607.26 1088.77,604.772 1089.22,601.912C1089.71,599.053 1090.14,596.765 1090.51,595.049L1097.38,568.167L1095.09,567.309L1094.12,569.375ZM1047.9,607.06C1051.9,607.06 1056.02,605.601 1060.2,602.627C1064.4,599.682 1068.55,595.764 1072.64,590.902C1076.76,586.041 1080.65,580.578 1084.36,574.459C1088.08,568.367 1091.51,562.133 1094.66,555.727C1097.8,549.35 1100.58,543.144 1102.95,537.139C1105.35,531.133 1107.21,525.843 1108.53,521.267L1109.67,517.263C1112.36,508.112 1112.22,500.534 1109.24,494.528C1106.3,488.523 1100.63,485.52 1092.23,485.52C1081.93,485.52 1072.5,490.095 1063.92,499.247C1055.34,508.398 1048.67,521.753 1043.9,539.283C1043.15,542.343 1042.33,545.861 1041.47,549.865C1040.61,553.868 1039.81,557.986 1039.04,562.162C1038.29,566.365 1037.66,570.369 1037.18,574.173C1036.72,578.005 1036.46,581.236 1036.46,583.896C1036.46,591.331 1037.23,597.051 1038.75,601.054C1040.29,605.058 1043.33,607.06 1047.9,607.06ZM1047.9,601.5C1045.96,601.5 1044.6,600.763 1043.94,599.066C1042.6,595.527 1042.02,590.461 1042.02,583.896C1042.02,581.421 1042.27,578.416 1042.69,574.853C1043.16,571.147 1043.78,567.247 1044.51,563.154C1045.27,559.038 1046.06,554.979 1046.9,551.034L1046.9,551.033C1047.74,547.132 1048.54,543.699 1049.27,540.707C1053.76,524.231 1059.92,511.643 1067.97,503.051L1067.97,503.051C1075.35,495.182 1083.37,491.08 1092.23,491.08C1098.07,491.08 1102.2,492.797 1104.25,496.974L1104.26,496.987C1106.71,501.938 1106.55,508.171 1104.34,515.694L1103.19,519.731C1101.91,524.155 1100.11,529.268 1097.79,535.075L1097.79,535.086C1095.46,540.968 1092.75,547.035 1089.68,553.27L1089.67,553.271C1086.6,559.526 1083.25,565.612 1079.62,571.56L1079.61,571.567C1076.06,577.428 1072.34,582.656 1068.4,587.306L1068.4,587.314C1064.64,591.774 1060.86,595.377 1057.01,598.074L1057,598.085C1053.88,600.301 1050.87,601.5 1047.9,601.5Z" style="fill:rgb(240,242,244);"/>
            <path d="M1202.1,598.568L1235.9,463.669L1171.97,477.091L1167.33,497.371L1192.94,497.371C1192.94,497.371 1168.87,594.711 1168.87,594.711L1167.58,601.079C1167.04,603.77 1166.74,606.34 1166.74,608.776C1166.74,614.557 1168.62,619.622 1172.37,623.979C1176.21,628.468 1181.76,630.922 1189.17,630.922C1194.29,630.922 1199.59,629.404 1205.03,626.141C1209.87,623.267 1215.96,617.574 1223.15,608.934C1223.15,608.934 1247.2,580.835 1247.2,580.835L1231.93,568.743L1202.1,598.568ZM1189.17,625.362C1183.65,625.362 1179.45,623.704 1176.59,620.358C1173.73,617.04 1172.3,613.18 1172.3,608.776C1172.3,606.688 1172.56,604.486 1173.02,602.198C1173.5,599.91 1173.93,597.823 1174.3,595.907L1200.04,491.811L1174.3,491.811L1176.59,481.802L1228.35,470.935L1194.32,606.774L1199.47,609.062L1232.36,576.174L1239.22,581.608L1218.91,605.344C1212.25,613.351 1206.68,618.699 1202.19,621.359C1197.72,624.047 1193.38,625.362 1189.17,625.362ZM1205.64,427.755L1205.63,427.753C1205.63,431.911 1207.16,435.862 1210.31,439.439L1210.32,439.442C1213.47,443.008 1218.08,445.038 1224.35,445.038C1230.21,445.038 1234.97,443.364 1238.78,440.17C1242.45,437.123 1244.95,433.199 1246.23,428.334C1246.81,426.851 1247.07,425.322 1247.07,423.749L1247.07,421.175C1247.07,417.015 1245.58,413.106 1242.38,409.487C1239.28,405.963 1234.67,403.89 1228.35,403.89C1222.54,403.89 1217.75,405.589 1213.94,408.746L1213.93,408.756C1210.23,411.866 1207.74,415.823 1206.45,420.7C1205.91,422.157 1205.63,423.67 1205.63,425.179L1211.19,430.739L1205.63,425.251L1205.64,427.755ZM1241.07,426.29L1241.51,426.735L1241.06,426.294L1240.94,426.609C1240.8,427.17 1240.64,427.716 1240.46,428.245L1241.51,429.309L1240.45,428.253C1239.41,431.335 1237.66,433.879 1235.22,435.903C1232.36,438.305 1228.75,439.478 1224.35,439.478C1219.97,439.478 1216.68,438.248 1214.48,435.76C1212.31,433.3 1211.19,430.612 1211.19,427.753L1211.19,425.179C1211.19,424.235 1211.39,423.291 1211.77,422.319C1212.74,418.516 1214.63,415.427 1217.49,413.025C1220.35,410.651 1223.98,409.45 1228.35,409.45C1232.76,409.45 1236.05,410.708 1238.22,413.168C1240.42,415.656 1241.51,418.315 1241.51,421.175L1241.51,423.749C1241.51,424.612 1241.38,425.452 1241.07,426.29Z" style="fill:rgb(240,242,244);"/>
            <path d="M1311.4,501.144L1320.86,463.633L1257.75,477.105L1253.13,497.371L1278.72,497.371C1278.72,497.371 1246.41,627.491 1246.41,627.491L1280.73,627.491L1292.65,580.101C1295.41,569.063 1299.41,558.415 1304.65,548.097C1309.92,537.759 1315.71,528.526 1321.98,520.376C1328.14,512.425 1334.31,506.032 1340.55,501.227C1345.88,497.143 1350.45,494.798 1354.47,494.798C1355.33,494.798 1356.05,494.73 1356.48,495.175C1356.97,495.683 1356.92,496.518 1356.92,497.531C1356.92,499.044 1356.68,500.774 1356.24,502.706C1356.23,502.755 1331.1,594.394 1331.1,594.394C1330.49,596.481 1329.98,598.752 1329.55,601.24L1329.54,601.275C1329.12,603.907 1328.89,606.406 1328.89,608.776C1328.89,614.556 1330.77,619.622 1334.52,623.979C1338.35,628.445 1343.97,630.922 1351.61,630.922C1356.47,630.922 1361.71,629.426 1367.28,626.162C1372.22,623.284 1378.39,617.584 1385.59,608.934C1385.59,608.934 1409.62,580.834 1409.62,580.834L1394.36,568.743L1364.8,598.301L1388.43,510.723C1390.12,504.651 1390.91,499.297 1390.91,494.671C1390.91,486.363 1388.56,479.542 1384.06,474.106L1384.05,474.1C1379.41,468.534 1372.13,465.375 1361.9,465.375C1354,465.375 1346.76,467.362 1340.17,471.314C1333.99,475.021 1328.23,479.92 1322.86,485.976L1322.86,485.985C1318.83,490.568 1315,495.614 1311.4,501.144ZM1351.61,625.362C1345.89,625.362 1341.6,623.704 1338.74,620.358C1335.88,617.04 1334.45,613.18 1334.45,608.776C1334.45,606.688 1334.65,604.486 1335.02,602.198C1335.42,599.91 1335.88,597.823 1336.45,595.907L1361.62,504.108C1362.19,501.649 1362.48,499.447 1362.48,497.531C1362.48,492.012 1359.82,489.238 1354.47,489.238C1349.52,489.238 1343.74,491.783 1337.17,496.816C1330.59,501.878 1324.07,508.598 1317.58,516.977C1311.11,525.385 1305.14,534.908 1299.7,545.575C1294.27,556.27 1290.12,567.309 1287.26,578.748L1276.4,621.931L1253.52,621.931L1285.83,491.811L1260.1,491.811L1262.38,481.802L1313.29,470.935L1298.42,529.846L1300.7,530.704C1304.71,523.269 1308.86,515.976 1313.14,508.827C1317.43,501.678 1322.07,495.3 1327.02,489.666C1331.99,484.061 1337.31,479.514 1343.03,476.083C1348.75,472.651 1355.04,470.935 1361.9,470.935C1370.11,470.935 1376.06,473.194 1379.78,477.655C1383.5,482.145 1385.35,487.808 1385.35,494.671C1385.35,498.875 1384.61,503.737 1383.07,509.256L1356.76,606.774L1361.9,609.062L1394.79,576.174L1401.65,581.608L1381.35,605.344C1374.69,613.351 1369.05,618.699 1364.48,621.359C1359.9,624.047 1355.61,625.362 1351.61,625.362Z" style="fill:rgb(240,242,244);"/>
            <path d="M1508.88,524.36L1507.86,627.491L1533.9,627.491L1609.11,491.652C1609.11,491.652 1622.21,491.652 1622.21,491.652L1627.79,468.807L1570.6,468.807L1565.02,491.652L1580.98,491.652L1538.51,573.732L1540.28,468.807L1513.55,468.807L1458.7,572.968L1461.1,491.652C1461.1,491.652 1478.08,491.652 1478.08,491.652L1483.66,468.807L1419.3,468.807L1413.75,491.652L1428.09,491.652L1427.24,627.491L1454.77,627.491L1508.88,524.36ZM1433.68,486.092L1420.82,486.092L1423.67,474.367L1476.58,474.367L1473.72,486.092L1455.7,486.092L1452.56,592.761L1454.56,592.761L1516.9,474.367L1534.63,474.367L1532.63,592.761L1534.92,592.761L1590.11,486.092L1572.1,486.092L1574.96,474.367L1620.71,474.367L1617.85,486.092L1605.84,486.092L1530.63,621.931L1513.47,621.931L1514.62,505.824L1512.33,505.824L1451.41,621.931L1432.83,621.931L1433.68,486.092Z" style="fill:rgb(240,242,244);"/>
            <path d="M1682.3,600.944L1682.29,601.01C1681.78,604.239 1681.5,607.018 1681.5,609.348C1681.5,615.13 1683.24,620.032 1686.62,624.163C1690.11,628.432 1695.6,630.922 1703.36,630.922C1708.32,630.922 1713.45,629.38 1718.64,626.053C1723.14,623.202 1729.11,617.538 1736.46,608.963L1760.53,580.832L1745.25,568.745L1715.49,598.51L1748.54,468.807L1726.13,468.807L1717.45,484.215C1714.96,479.32 1711.89,475.43 1708.31,472.496L1708.31,472.496C1702.71,467.909 1694.88,465.375 1684.77,465.375C1676.26,465.375 1668.28,467.297 1660.79,471.134L1660.78,471.137C1653.58,474.85 1647.02,479.792 1641.13,485.976L1641.13,485.978C1635.4,492.015 1630.27,499.07 1625.74,507.095L1625.74,507.099C1621.28,515.035 1617.56,523.354 1614.6,532.058C1611.65,540.734 1609.4,549.468 1607.81,558.319L1607.81,558.325C1606.23,567.249 1605.43,575.781 1605.43,583.896C1605.43,598.531 1608.03,609.71 1612.83,617.544L1612.84,617.549C1618.24,626.336 1626.79,630.922 1638.73,630.922C1645.66,630.922 1652.01,629.237 1657.8,625.891C1663.27,622.753 1668.44,618.444 1673.35,612.893C1676.46,609.399 1679.45,605.412 1682.3,600.944ZM1692.67,569.37L1692.72,569.605L1692.62,569.475C1688.96,577.217 1685.36,584.359 1681.77,590.902C1677.88,598.052 1673.67,604.172 1669.19,609.205C1664.72,614.267 1660.01,618.213 1655.03,621.073C1650.08,623.933 1644.65,625.362 1638.73,625.362C1629.01,625.362 1621.97,621.788 1617.57,614.638C1613.19,607.489 1610.99,597.251 1610.99,583.896C1610.99,576.089 1611.76,567.881 1613.28,559.302C1614.82,550.723 1617,542.258 1619.86,533.85C1622.71,525.471 1626.29,517.463 1630.58,509.828C1634.87,502.221 1639.73,495.529 1645.16,489.809C1650.6,484.09 1656.66,479.514 1663.32,476.083C1670.02,472.651 1677.16,470.935 1684.77,470.935C1693.35,470.935 1700.04,472.908 1704.79,476.798C1709.57,480.715 1713.2,486.664 1715.66,494.671L1717.94,494.671L1729.38,474.367L1741.39,474.367L1707.65,606.774L1712.8,609.062L1745.68,576.174L1752.55,581.608L1732.24,605.344C1725.38,613.351 1719.86,618.699 1715.66,621.359C1711.48,624.047 1707.36,625.362 1703.36,625.362C1697.64,625.362 1693.49,623.79 1690.92,620.644C1688.35,617.498 1687.06,613.752 1687.06,609.348C1687.06,607.26 1687.32,604.772 1687.77,601.912C1688.26,599.053 1688.69,596.765 1689.06,595.049L1695.92,568.167L1693.64,567.309L1692.67,569.37ZM1646.45,607.06C1650.45,607.06 1654.57,605.601 1658.75,602.627C1662.95,599.682 1667.1,595.764 1671.19,590.902C1675.31,586.041 1679.19,580.578 1682.91,574.459C1686.63,568.367 1690.06,562.133 1693.21,555.727C1696.35,549.35 1699.13,543.144 1701.5,537.139C1703.9,531.133 1705.76,525.843 1707.08,521.267L1708.22,517.263C1710.91,508.112 1710.77,500.534 1707.79,494.528C1704.85,488.523 1699.18,485.52 1690.78,485.52C1680.48,485.52 1671.04,490.095 1662.47,499.247C1653.89,508.398 1647.22,521.753 1642.45,539.283C1641.7,542.343 1640.87,545.861 1640.02,549.865C1639.16,553.868 1638.36,557.986 1637.59,562.162C1636.84,566.365 1636.21,570.369 1635.73,574.173C1635.27,578.005 1635.01,581.236 1635.01,583.896C1635.01,591.331 1635.78,597.051 1637.3,601.054C1638.84,605.058 1641.88,607.06 1646.45,607.06ZM1646.45,601.5C1644.51,601.5 1643.15,600.763 1642.49,599.066C1641.15,595.527 1640.57,590.461 1640.57,583.896C1640.57,581.421 1640.82,578.416 1641.25,574.853C1641.71,571.147 1642.33,567.247 1643.06,563.154C1643.82,559.038 1644.61,554.979 1645.45,551.034L1645.45,551.027C1646.29,547.111 1647.1,543.673 1647.83,540.678C1652.31,524.23 1658.47,511.643 1666.52,503.051L1666.52,503.05C1673.89,495.181 1681.92,491.08 1690.78,491.08C1696.62,491.08 1700.76,492.797 1702.8,496.974L1702.81,496.987C1705.26,501.938 1705.1,508.171 1702.89,515.694L1701.74,519.731C1700.46,524.155 1698.66,529.268 1696.34,535.075L1696.34,535.086C1694.02,540.968 1691.3,547.035 1688.23,553.27L1688.23,553.271C1685.15,559.526 1681.8,565.612 1678.17,571.56L1678.17,571.565C1674.6,577.424 1670.89,582.654 1666.95,587.306L1666.95,587.314C1663.19,591.774 1659.41,595.377 1655.56,598.074L1655.55,598.085C1652.43,600.301 1649.42,601.5 1646.45,601.5Z" style="fill:rgb(240,242,244);"/>
            <path d="M1788.35,611.479C1789.36,608.658 1789.85,605.963 1789.85,603.342C1789.85,597.074 1787.82,592.465 1784.25,589.31L1784.25,589.309C1780.82,586.279 1776.48,584.627 1771.14,584.627C1764.33,584.627 1759.16,586.97 1755.47,591.299L1755.47,591.307C1751.93,595.488 1750.13,600.378 1750.13,605.916C1750.13,613.186 1753.13,619.261 1759.24,624.133L1759.24,624.139C1764.67,628.44 1773.34,630.922 1785.43,630.922C1793.7,630.922 1801.37,629.732 1808.49,627.35C1815.76,624.948 1822.03,621.55 1827.28,617.225C1832.68,612.82 1836.89,607.477 1839.91,601.197C1842.95,594.942 1844.47,588.047 1844.47,580.464C1844.47,571.699 1842.67,564.476 1839.25,558.742C1836.14,553.511 1832.57,548.583 1828.52,543.927L1828.49,543.896C1825.25,540.277 1822.26,536.89 1819.5,533.759C1816.92,530.805 1814.63,527.853 1812.65,524.9C1810.84,522.179 1809.43,519.336 1808.44,516.367L1808.44,516.36C1807.47,513.453 1807.01,510.235 1807.01,506.682C1807.01,502.15 1807.78,498.428 1809.5,495.546C1811.22,492.72 1813.38,490.461 1815.99,488.796C1818.76,487.076 1821.78,485.901 1825.08,485.262C1825.76,485.136 1826.43,485.02 1827.1,484.919C1826.11,487.708 1825.63,490.4 1825.63,492.955C1825.63,499.266 1827.71,503.874 1831.23,506.988C1834.7,510.056 1839.04,511.67 1844.35,511.67C1851.19,511.67 1856.36,509.319 1860.03,504.99C1863.58,500.814 1865.35,495.96 1865.35,490.381C1865.35,483.432 1862.47,477.399 1856.5,472.393L1856.49,472.385C1851.15,467.952 1842.59,465.375 1830.62,465.375C1822.51,465.375 1815.1,466.607 1808.34,468.976L1808.32,468.981C1801.45,471.434 1795.44,474.881 1790.35,479.331L1790.35,479.333C1785.17,483.87 1781.19,489.277 1778.37,495.53L1778.36,495.546C1775.59,501.795 1774.16,508.634 1774.16,516.119C1774.16,524.918 1775.98,532.141 1779.38,537.843L1779.38,537.844C1782.51,543.093 1786.08,548.01 1790.08,552.626C1793.38,556.502 1796.41,559.972 1799.2,563.039C1801.77,565.88 1804.03,568.749 1805.97,571.674L1805.98,571.689C1807.82,574.419 1809.2,577.256 1810.19,580.216L1810.19,580.223C1811.16,583.13 1811.62,586.372 1811.62,589.901C1811.62,594.316 1810.81,597.971 1808.89,600.752L1808.88,600.773C1806.92,603.66 1804.46,605.875 1801.54,607.454C1798.34,609.175 1794.89,610.38 1791.21,611.019L1788.35,611.479ZM1834.5,482.525L1832.89,478.714C1830.12,478.848 1827.17,479.22 1824.04,479.8C1820.04,480.572 1816.38,482.002 1813.03,484.09C1809.71,486.206 1806.94,489.066 1804.74,492.669C1802.57,496.301 1801.45,500.963 1801.45,506.682C1801.45,510.886 1802.02,514.689 1803.17,518.121C1804.31,521.553 1805.94,524.842 1808.03,527.987C1810.14,531.133 1812.57,534.279 1815.32,537.425C1818.09,540.57 1821.1,543.973 1824.33,547.577C1828.16,551.981 1831.54,556.642 1834.48,561.59C1837.45,566.566 1838.91,572.857 1838.91,580.464C1838.91,587.156 1837.6,593.247 1834.91,598.767C1832.25,604.315 1828.53,609.033 1823.76,612.922C1819.01,616.84 1813.32,619.9 1806.74,622.074C1800.16,624.276 1793.07,625.362 1785.43,625.362C1774.97,625.362 1767.39,623.504 1762.7,619.786C1758.04,616.068 1755.69,611.464 1755.69,605.916C1755.69,601.741 1757.04,598.052 1759.7,594.906C1762.38,591.76 1766.19,590.187 1771.14,590.187C1774.97,590.187 1778.11,591.303 1780.57,593.476C1783.06,595.678 1784.29,598.967 1784.29,603.342C1784.29,605.458 1783.86,607.632 1783,609.92C1782.15,612.207 1780.97,614.124 1779.43,615.639L1780.29,617.641C1783.92,617.641 1787.87,617.269 1792.16,616.497C1796.44,615.754 1800.45,614.352 1804.17,612.35C1807.88,610.349 1811,607.546 1813.46,603.914C1815.95,600.311 1817.18,595.621 1817.18,589.901C1817.18,585.726 1816.61,581.894 1815.46,578.462C1814.32,575.031 1812.72,571.742 1810.6,568.596C1808.51,565.45 1806.08,562.362 1803.31,559.302C1800.56,556.27 1797.56,552.839 1794.3,549.007C1790.5,544.631 1787.12,539.97 1784.15,534.994C1781.2,530.046 1779.72,523.755 1779.72,516.119C1779.72,509.456 1780.97,503.365 1783.43,497.817C1785.92,492.297 1789.44,487.522 1794.01,483.518C1798.59,479.514 1804,476.426 1810.17,474.224C1816.38,472.05 1823.18,470.935 1830.62,470.935C1840.91,470.935 1848.35,472.851 1852.93,476.655C1857.5,480.487 1859.79,485.062 1859.79,490.381C1859.79,494.585 1858.47,498.246 1855.79,501.392C1853.13,504.537 1849.32,506.11 1844.35,506.11C1840.54,506.11 1837.4,505.023 1834.91,502.821C1832.45,500.648 1831.19,497.359 1831.19,492.955C1831.19,490.868 1831.62,488.666 1832.48,486.378C1833.02,484.94 1833.69,483.66 1834.5,482.525Z" style="fill:rgb(240,242,244);"/>
            <path d="M1925.37,500.738L1952.06,397.297L1888.34,410.75L1883.7,431.025L1909.29,431.025C1909.29,431.025 1860.1,627.491 1860.1,627.491L1894.43,627.491L1906.36,580.102C1909.12,569.062 1913.12,558.413 1918.36,548.096C1923.62,537.758 1929.42,528.526 1935.68,520.376C1941.85,512.415 1948.01,506.014 1954.14,501.202C1959.41,497.123 1964,494.798 1968.17,494.798C1969.03,494.798 1969.75,494.73 1970.18,495.175C1970.67,495.683 1970.62,496.518 1970.62,497.531C1970.62,499.03 1970.39,500.745 1969.95,502.657C1969.93,502.74 1944.81,594.394 1944.81,594.394C1944.2,596.482 1943.69,598.752 1943.26,601.24L1943.25,601.275C1942.83,603.907 1942.6,606.406 1942.6,608.776C1942.6,614.558 1944.48,619.624 1948.23,623.98C1952.06,628.449 1957.68,630.922 1965.31,630.922C1970.18,630.922 1975.42,629.426 1980.98,626.165C1985.93,623.286 1992.09,617.587 1999.3,608.935C1999.3,608.935 2023.34,580.834 2023.34,580.834L2008.07,568.743L1978.5,598.314L2002.13,510.727C2003.83,504.654 2004.62,499.299 2004.62,494.671C2004.62,486.363 2002.26,479.542 1997.76,474.106L1997.75,474.102C1993.13,468.538 1985.84,465.375 1975.61,465.375C1967.71,465.375 1960.46,467.363 1953.88,471.316C1947.7,475.021 1941.95,479.918 1936.57,485.972L1936.56,485.983C1932.63,490.455 1928.9,495.367 1925.37,500.738ZM1965.31,625.362C1959.6,625.362 1955.31,623.704 1952.44,620.358C1949.59,617.04 1948.16,613.18 1948.16,608.776C1948.16,606.688 1948.36,604.486 1948.73,602.198C1949.13,599.91 1949.59,597.823 1950.16,595.907L1975.32,504.108C1975.9,501.649 1976.18,499.447 1976.18,497.531C1976.18,492.012 1973.52,489.238 1968.17,489.238C1963.03,489.238 1957.22,491.783 1950.73,496.816C1944.27,501.878 1937.78,508.598 1931.28,516.977C1924.82,525.385 1918.84,534.908 1913.41,545.575C1907.98,556.27 1903.83,567.309 1900.97,578.748L1890.1,621.931L1867.22,621.931L1916.41,425.465L1890.67,425.465L1892.96,415.456L1944.44,404.588L1912.12,529.846L1914.41,530.704C1918.41,523.269 1922.56,515.976 1926.85,508.827C1931.14,501.678 1935.77,495.3 1940.72,489.666C1945.7,484.061 1951.02,479.514 1956.74,476.083C1962.45,472.651 1968.75,470.935 1975.61,470.935C1983.82,470.935 1989.77,473.194 1993.48,477.655C1997.2,482.145 1999.06,487.808 1999.06,494.671C1999.06,498.875 1998.32,503.737 1996.77,509.256L1970.46,606.774L1975.61,609.062L2008.5,576.174L2015.36,581.608L1995.06,605.344C1988.39,613.351 1982.76,618.699 1978.18,621.359C1973.61,624.047 1969.32,625.362 1965.31,625.362Z" style="fill:rgb(240,242,244);"/>
            <path d="M2064.05,598.555L2097.84,463.67L2033.89,477.092L2029.28,497.371L2054.87,497.371C2054.87,497.371 2030.81,594.711 2030.81,594.711L2029.51,601.067C2028.97,603.77 2028.68,606.34 2028.68,608.776C2028.68,614.557 2030.55,619.622 2034.3,623.979C2038.14,628.467 2043.7,630.922 2051.11,630.922C2056.23,630.922 2061.55,629.397 2066.99,626.122C2071.8,623.27 2077.9,617.575 2085.09,608.934C2085.09,608.934 2109.12,580.834 2109.12,580.834L2093.86,568.743L2064.05,598.555ZM2051.11,625.362C2045.59,625.362 2041.38,623.704 2038.52,620.358C2035.66,617.04 2034.24,613.18 2034.24,608.776C2034.24,606.688 2034.49,604.486 2034.95,602.198C2035.44,599.91 2035.87,597.823 2036.24,595.907L2061.97,491.811L2036.24,491.811L2038.52,481.802L2090.29,470.935L2056.26,606.774L2061.4,609.062L2094.29,576.174L2101.15,581.608L2080.85,605.344C2074.19,613.351 2068.61,618.699 2064.12,621.359C2059.66,624.047 2055.31,625.362 2051.11,625.362ZM2108.99,423.751L2109,421.175C2109,417.015 2107.51,413.106 2104.31,409.487C2101.2,405.962 2096.59,403.89 2090.29,403.89C2084.47,403.89 2079.68,405.589 2075.87,408.746L2075.86,408.756C2072.16,411.86 2069.68,415.807 2068.39,420.672C2067.85,422.173 2067.57,423.679 2067.57,425.179L2073.13,430.739C2073.13,430.739 2067.57,425.251 2067.57,425.251C2067.57,425.251 2067.57,427.694 2067.57,427.694C2067.57,427.694 2073.13,433.313 2073.13,433.313L2067.57,427.753C2067.57,431.914 2069.09,435.866 2072.26,439.446C2075.41,443.009 2080.02,445.038 2086.28,445.038C2092.15,445.038 2096.9,443.364 2100.71,440.17C2104.38,437.122 2106.89,433.195 2108.17,428.328C2108.74,426.847 2109,425.32 2109,423.749L2108.99,423.751ZM2102.99,426.29L2103.44,426.735L2102.99,426.294L2102.87,426.609C2101.93,430.441 2100.01,433.529 2097.15,435.903C2094.29,438.305 2090.69,439.478 2086.28,439.478C2081.91,439.478 2078.62,438.248 2076.42,435.76C2074.24,433.3 2073.13,430.612 2073.13,427.753L2073.13,425.179C2073.13,424.235 2073.33,423.291 2073.7,422.319C2074.67,418.516 2076.56,415.427 2079.42,413.025C2082.28,410.651 2085.91,409.45 2090.29,409.45C2094.69,409.45 2097.98,410.708 2100.15,413.168C2102.35,415.656 2103.44,418.315 2103.44,421.175L2103.44,423.749C2103.44,424.612 2103.31,425.452 2102.99,426.29Z" style="fill:rgb(240,242,244);"/>
            <path d="M2173.32,501.166L2182.79,463.633L2119.7,477.104L2115.06,497.371L2140.66,497.371C2140.66,497.371 2108.34,627.491 2108.34,627.491L2142.66,627.491L2154.59,580.102C2157.35,569.063 2161.34,558.415 2166.59,548.098C2171.86,537.758 2177.65,528.525 2183.91,520.374C2190.07,512.425 2196.24,506.033 2202.48,501.228C2207.82,497.143 2212.38,494.798 2216.4,494.798C2217.26,494.798 2217.98,494.73 2218.41,495.175C2218.9,495.683 2218.85,496.518 2218.85,497.531C2218.85,499.044 2218.61,500.774 2218.17,502.706C2218.16,502.755 2193.05,594.373 2193.05,594.373C2192.42,596.46 2191.93,598.73 2191.48,601.217L2191.47,601.263C2191.05,603.907 2190.82,606.406 2190.82,608.776C2190.82,614.556 2192.7,619.622 2196.45,623.979C2200.28,628.445 2205.9,630.922 2213.54,630.922C2218.41,630.922 2223.65,629.426 2229.2,626.165C2234.16,623.286 2240.32,617.586 2247.52,608.934C2247.52,608.934 2271.57,580.832 2271.57,580.832L2256.29,568.745L2226.73,598.311L2250.36,510.713C2252.05,504.646 2252.85,499.295 2252.85,494.671C2252.85,486.363 2250.49,479.542 2245.99,474.106L2245.98,474.1C2241.34,468.534 2234.07,465.375 2223.84,465.375C2215.93,465.375 2208.69,467.362 2202.1,471.314C2195.92,475.021 2190.16,479.92 2184.79,485.976L2184.78,485.985C2180.75,490.574 2176.93,495.627 2173.32,501.166ZM2213.54,625.362C2207.82,625.362 2203.53,623.704 2200.67,620.358C2197.81,617.04 2196.38,613.18 2196.38,608.776C2196.38,606.688 2196.58,604.486 2196.95,602.198C2197.36,599.91 2197.81,597.823 2198.39,595.907L2223.55,504.108C2224.12,501.649 2224.41,499.447 2224.41,497.531C2224.41,492.012 2221.75,489.238 2216.4,489.238C2211.45,489.238 2205.68,491.783 2199.1,496.816C2192.52,501.878 2186,508.598 2179.51,516.977C2173.05,525.385 2167.07,534.908 2161.64,545.575C2156.2,556.27 2152.06,567.309 2149.2,578.748L2138.33,621.931L2115.45,621.931L2147.77,491.811L2122.03,491.811L2124.32,481.802L2175.22,470.935L2160.35,529.846L2162.64,530.704C2166.64,523.269 2170.79,515.976 2175.08,508.827C2179.37,501.678 2184,495.3 2188.95,489.666C2193.92,484.061 2199.24,479.514 2204.96,476.083C2210.68,472.651 2216.97,470.935 2223.84,470.935C2232.05,470.935 2237.99,473.194 2241.71,477.655C2245.43,482.145 2247.29,487.808 2247.29,494.671C2247.29,498.875 2246.54,503.737 2245,509.256L2218.69,606.774L2223.84,609.062L2256.72,576.174L2263.59,581.608L2243.28,605.344C2236.62,613.351 2230.99,618.699 2226.41,621.359C2221.84,624.047 2217.55,625.362 2213.54,625.362Z" style="fill:rgb(240,242,244);"/>
            <path d="M2296.11,560.824L2293.77,561.747C2289.89,563.363 2286.34,565.43 2283.11,567.887L2283.1,567.897C2279.65,570.553 2276.86,573.745 2274.66,577.524L2274.65,577.541C2272.37,581.517 2271.18,586.008 2271.18,591.045C2271.18,598.025 2273.49,603.66 2277.82,607.99C2279.33,609.504 2281.05,610.947 2282.99,612.309C2280.74,613.068 2278.48,613.873 2276.22,614.725L2276.2,614.731C2270.24,617.015 2264.79,619.823 2259.87,623.211C2254.72,626.748 2250.56,630.783 2247.34,635.283L2247.34,635.284C2243.8,640.233 2242.01,645.882 2242.01,652.244C2242.01,662.407 2247.3,671.258 2258.45,678.379C2268.37,684.712 2283.86,688.118 2305.05,688.118C2314.39,688.118 2323.47,687.282 2332.27,685.587C2341.33,683.878 2349.39,681.152 2356.5,677.496C2363.99,673.65 2369.93,668.722 2374.41,662.732C2379.11,656.48 2381.54,648.972 2381.54,640.233C2381.54,629.019 2377.66,620.421 2370.19,614.332C2363.63,608.983 2354.69,604.105 2343.32,599.85L2314.71,589.548C2309.41,587.542 2305.33,585.843 2302.47,584.467C2301.62,584.055 2301.18,583.403 2301.18,582.466C2301.18,581.277 2301.46,580.227 2302.09,579.336C2303.03,578.076 2304.28,577.012 2305.77,576.081C2307.59,574.993 2309.54,574.132 2311.63,573.501C2313.6,572.932 2315.56,572.473 2317.46,572.124C2320.63,572.807 2324.21,573.155 2328.22,573.155C2337.15,573.155 2345.63,571.563 2353.72,568.328C2361.84,565.109 2368.94,560.568 2374.98,554.726C2381.02,548.92 2385.8,542.091 2389.33,534.292C2392.91,526.436 2394.69,517.923 2394.69,508.684C2394.69,496.964 2391.52,487.489 2385.38,480.129L2386.1,477.817C2388.46,479.313 2391.63,480.213 2395.71,480.213C2401.09,480.213 2405.62,478.35 2409.36,474.582C2413.13,470.843 2415,466.309 2415,460.926C2415,455.79 2413.2,451.715 2409.77,448.548L2409.76,448.54C2406.57,445.622 2402.15,443.927 2396.28,443.927C2388.03,443.927 2381.7,447.153 2377.2,453.378L2377.2,453.382C2374.36,457.323 2371.91,462.483 2369.88,468.879C2368.34,468.234 2366.76,467.667 2365.13,467.181L2365.12,467.176C2361.12,466.006 2356.65,465.375 2351.67,465.375C2342.55,465.375 2333.93,467.062 2325.83,470.362L2325.83,470.366C2317.73,473.698 2310.7,478.215 2304.68,483.908L2304.67,483.917C2298.62,489.678 2293.83,496.488 2290.26,504.397L2290.26,504.409C2286.71,512.387 2284.91,520.945 2284.91,530.132C2284.91,538.36 2286.55,545.507 2289.66,551.662L2289.67,551.669C2291.41,555.094 2293.56,558.147 2296.11,560.824ZM2386.41,470.365L2386.18,470.667L2385.7,471.022C2385.86,470.729 2386.03,470.403 2386.21,470.051C2385.66,469.14 2385.2,468.098 2384.84,466.931L2383.7,466.931L2382.6,470.432C2382.71,470.662 2382.82,470.878 2382.93,471.078L2382.5,470.763L2379.12,481.516C2385.81,488.208 2389.13,497.245 2389.13,508.684C2389.13,517.092 2387.53,524.842 2384.27,531.991C2381.04,539.14 2376.66,545.403 2371.12,550.723C2365.6,556.07 2359.1,560.217 2351.67,563.162C2344.23,566.137 2336.43,567.595 2328.22,567.595C2324.22,567.595 2320.7,567.223 2317.64,566.451C2315.18,566.852 2312.63,567.424 2310.06,568.167C2307.49,568.939 2305.11,569.997 2302.91,571.313C2300.74,572.657 2298.96,574.23 2297.62,576.031C2296.3,577.862 2295.62,580.007 2295.62,582.466C2295.62,585.726 2297.1,588.042 2300.05,589.472C2303.02,590.902 2307.26,592.675 2312.78,594.763L2341.37,605.058C2352.07,609.062 2360.51,613.609 2366.68,618.642C2372.89,623.704 2375.98,630.91 2375.98,640.233C2375.98,647.669 2373.97,654.074 2369.97,659.394C2365.97,664.741 2360.65,669.117 2353.96,672.549C2347.29,675.98 2339.72,678.525 2331.22,680.127C2322.76,681.757 2314.03,682.558 2305.05,682.558C2285.24,682.558 2270.71,679.612 2261.44,673.692C2252.21,667.801 2247.57,660.652 2247.57,652.244C2247.57,647.097 2249,642.521 2251.86,638.517C2254.72,634.514 2258.44,630.939 2263.02,627.793C2267.59,624.647 2272.65,622.045 2278.17,619.929C2283.72,617.841 2289.24,616.04 2294.76,614.495L2295.33,612.779C2289.61,610.32 2285.09,607.403 2281.75,604.057C2278.43,600.74 2276.74,596.393 2276.74,591.045C2276.74,587.042 2277.66,583.467 2279.46,580.321C2281.29,577.175 2283.61,574.516 2286.47,572.314C2289.33,570.14 2292.47,568.31 2295.9,566.88C2299.34,565.45 2302.77,564.364 2306.2,563.591L2306.49,562.162C2301.34,558.93 2297.39,554.583 2294.62,549.15C2291.87,543.716 2290.47,537.396 2290.47,530.132C2290.47,521.753 2292.1,513.946 2295.33,506.682C2298.59,499.447 2302.97,493.213 2308.49,487.951C2314.03,482.717 2320.5,478.571 2327.93,475.511C2335.37,472.479 2343.29,470.935 2351.67,470.935C2356.07,470.935 2360.02,471.478 2363.54,472.508C2367.08,473.566 2370.37,475.053 2373.4,476.941C2375.52,468.19 2378.26,461.412 2381.7,456.636C2385.13,451.889 2389.99,449.487 2396.28,449.487C2400.49,449.487 2403.72,450.545 2406,452.633C2408.29,454.749 2409.44,457.494 2409.44,460.926C2409.44,464.758 2408.12,467.989 2405.43,470.649C2402.77,473.337 2399.54,474.653 2395.71,474.653C2392.48,474.653 2390.05,473.995 2388.42,472.651C2387.66,472.024 2386.99,471.262 2386.41,470.365ZM2308.77,673.692C2313.75,673.692 2318.9,673.235 2324.22,672.263C2329.56,671.319 2334.37,669.803 2338.66,667.687C2342.95,665.599 2346.49,662.74 2349.24,659.108C2352.01,655.504 2353.39,651.1 2353.39,645.953C2353.39,640.233 2351.64,636.001 2348.09,633.227C2344.58,630.481 2339.57,627.936 2333.08,625.648L2306.49,616.211C2301.74,617.755 2297.16,619.5 2292.76,621.502C2288.38,623.504 2284.46,625.906 2281.03,628.651C2277.6,631.425 2274.88,634.514 2272.88,637.945C2270.88,641.377 2269.88,645.209 2269.88,649.384C2269.88,656.448 2273.03,662.253 2279.32,666.829C2285.61,671.405 2295.45,673.692 2308.77,673.692ZM2308.77,668.132C2296.96,668.132 2288.17,666.39 2282.59,662.332C2277.9,658.92 2275.44,654.652 2275.44,649.384C2275.44,646.233 2276.17,643.336 2277.68,640.746C2279.35,637.876 2281.64,635.305 2284.51,632.984C2287.6,630.516 2291.13,628.362 2295.07,626.561C2298.72,624.896 2302.51,623.419 2306.43,622.091C2306.43,622.089 2331.23,630.89 2331.23,630.89C2337.03,632.936 2341.53,635.155 2344.67,637.607L2344.67,637.608C2346.97,639.405 2347.83,642.25 2347.83,645.953C2347.83,649.765 2346.89,653.049 2344.84,655.718L2344.82,655.734C2342.58,658.693 2339.7,660.996 2336.23,662.687L2336.22,662.693C2332.36,664.597 2328.04,665.941 2323.25,666.788L2323.24,666.791C2318.25,667.703 2313.43,668.132 2308.77,668.132ZM2330.79,557.3C2338.8,557.3 2345.43,554.555 2350.67,549.007C2355.93,543.487 2359.88,535.566 2362.54,525.271C2364.45,517.664 2365.65,512.259 2366.11,509.113C2366.6,505.967 2366.83,503.536 2366.83,501.82C2366.83,495.529 2365.51,490.524 2362.82,486.807C2360.16,483.089 2355.5,481.23 2348.81,481.23C2340.8,481.23 2334.2,484.004 2328.93,489.524C2323.7,495.071 2319.75,502.964 2317.07,513.26C2316.12,517.092 2315.35,520.323 2314.78,522.983C2314.21,525.671 2313.78,527.844 2313.49,529.56C2313.2,531.276 2313.03,532.706 2312.92,533.85C2312.83,534.994 2312.78,535.966 2312.78,536.71C2312.78,543.201 2314.12,548.263 2316.78,551.866C2319.47,555.498 2324.13,557.3 2330.79,557.3ZM2330.79,551.74C2326.33,551.74 2323.05,550.988 2321.25,548.558C2319.18,545.753 2318.34,541.762 2318.34,536.71C2318.34,536.09 2318.38,535.285 2318.45,534.337C2318.55,533.306 2318.71,532.023 2318.97,530.487C2319.25,528.832 2319.66,526.736 2320.21,524.143C2320.77,521.54 2321.53,518.379 2322.45,514.633C2324.85,505.428 2328.28,498.318 2332.96,493.352C2337.16,488.961 2342.43,486.79 2348.81,486.79C2353.26,486.79 2356.53,487.569 2358.3,490.044L2358.31,490.056C2360.42,492.967 2361.27,496.914 2361.27,501.82C2361.27,503.335 2361.05,505.479 2360.62,508.257L2360.62,508.282C2360.17,511.345 2359,516.557 2357.16,523.895C2354.78,533.099 2351.35,540.234 2346.65,545.17L2346.64,545.179C2342.46,549.603 2337.16,551.74 2330.79,551.74Z" style="fill:rgb(240,242,244);"/>
            <path d="M2500.92,520.569L2419.4,520.569L2412.33,548.847L2493.85,548.847L2500.92,520.569ZM2423.74,526.129L2493.8,526.129L2489.51,543.287L2419.45,543.287L2423.74,526.129Z" style="fill:rgb(240,242,244);"/>
            <path d="M2522.68,604.646L2518.32,604.646L2512.74,627.491L2600.54,627.491L2606.12,604.646L2580.12,604.646C2580.12,604.646 2620.82,440.748 2620.82,440.748C2620.82,440.748 2654.3,440.748 2654.3,440.748C2654.3,440.748 2645.72,475.923 2645.72,475.923L2676.59,475.923L2691.38,416.759L2526.64,416.759L2511.85,475.923L2542.74,475.923L2551.61,440.748C2551.61,440.748 2585.07,440.748 2585.07,440.748C2585.07,440.748 2544.37,604.646 2544.37,604.646C2544.37,604.646 2522.68,604.646 2522.68,604.646ZM2522.68,610.206L2548.71,610.206L2592.18,435.188L2547.28,435.188L2538.41,470.363L2518.97,470.363L2530.98,422.319L2684.26,422.319L2672.25,470.363L2652.8,470.363L2661.38,435.188L2616.48,435.188L2573.01,610.206L2599.04,610.206L2596.18,621.931L2519.82,621.931L2522.68,610.206Z" style="fill:rgb(240,242,244);"/>
            <path d="M2708.57,630.922C2722.16,630.922 2734.21,627.291 2744.73,620.088C2754.98,613.097 2763.59,604.197 2770.58,593.345C2777.44,582.707 2782.68,571.055 2786.27,558.387C2789.85,545.759 2791.63,533.755 2791.63,522.411C2791.63,505.146 2787.54,491.523 2779.74,481.407L2779.74,481.404C2771.59,470.884 2759.39,465.375 2742.89,465.375C2729.32,465.375 2717.27,469.006 2706.73,476.209L2706.72,476.21C2696.51,483.203 2687.86,492.131 2680.88,502.951L2680.88,502.952C2674.01,513.621 2668.77,525.271 2665.18,537.908L2665.18,537.91C2661.6,550.57 2659.83,562.542 2659.83,573.887C2659.83,591.184 2663.91,604.808 2671.71,614.894C2679.86,625.442 2692.1,630.922 2708.57,630.922ZM2708.57,625.362C2694.1,625.362 2683.26,620.758 2676.11,611.493C2668.96,602.255 2665.39,589.73 2665.39,573.887C2665.39,563.019 2667.1,551.552 2670.53,539.426C2673.96,527.33 2678.97,516.177 2685.55,505.967C2692.12,495.786 2700.25,487.379 2709.86,480.801C2719.49,474.224 2730.5,470.935 2742.89,470.935C2757.38,470.935 2768.19,475.568 2775.34,484.805C2782.49,494.071 2786.07,506.596 2786.07,522.411C2786.07,533.278 2784.35,544.774 2780.92,556.871C2777.49,568.996 2772.48,580.149 2765.91,590.33C2759.33,600.54 2751.24,608.919 2741.6,615.496C2731.99,622.074 2720.98,625.362 2708.57,625.362ZM2709.43,613.637C2715.14,613.637 2720.35,612.322 2725.01,609.634C2729.7,606.974 2733.85,603.342 2737.45,598.767C2741.08,594.191 2744.17,588.815 2746.75,582.609C2749.32,576.432 2751.46,569.883 2753.18,563.019C2755.3,554.64 2757.01,547.634 2758.33,542C2759.67,536.395 2760.73,531.676 2761.47,527.844C2762.24,524.041 2762.76,520.895 2763.05,518.407C2763.33,515.948 2763.47,513.546 2763.47,511.258C2763.47,502.678 2761.9,495.786 2758.76,490.524C2755.61,485.291 2750.03,482.66 2742.03,482.66C2736.31,482.66 2731.13,484.004 2726.44,486.664C2721.78,489.352 2717.63,492.955 2714,497.531C2710.4,502.106 2707.28,507.511 2704.71,513.689C2702.13,519.894 2699.99,526.414 2698.27,533.278C2696.18,541.686 2694.47,548.692 2693.12,554.297C2691.81,559.931 2690.75,564.65 2689.98,568.453C2689.24,572.285 2688.69,575.431 2688.41,577.89C2688.12,580.378 2687.98,582.752 2687.98,585.04C2687.98,593.619 2689.55,600.54 2692.7,605.773C2695.84,611.035 2701.42,613.637 2709.43,613.637ZM2709.43,608.077C2703.79,608.077 2699.68,606.629 2697.47,602.923L2697.47,602.913C2694.75,598.403 2693.54,592.419 2693.54,585.04C2693.54,582.958 2693.66,580.798 2693.93,578.534L2693.93,578.527C2694.2,576.177 2694.73,573.182 2695.43,569.534C2696.19,565.782 2697.24,561.129 2698.53,555.578C2699.87,549.988 2701.58,543.005 2703.66,534.627C2705.31,528.039 2707.36,521.781 2709.84,515.825C2712.2,510.152 2715.05,505.182 2718.36,500.979C2721.52,496.99 2725.13,493.838 2729.2,491.492C2733.06,489.306 2737.32,488.22 2742.03,488.22C2747.67,488.22 2751.77,489.699 2753.99,493.383C2756.7,497.913 2757.91,503.874 2757.91,511.258C2757.91,513.342 2757.78,515.53 2757.53,517.77C2757.25,520.136 2756.76,523.126 2756.02,526.74L2756.02,526.765C2755.29,530.557 2754.24,535.196 2752.93,540.706L2752.92,540.719C2751.61,546.339 2749.9,553.313 2747.79,561.654L2747.79,561.661C2746.14,568.256 2744.09,574.543 2741.62,580.472L2741.62,580.473C2739.25,586.169 2736.43,591.111 2733.1,595.31L2733.09,595.319C2729.95,599.309 2726.35,602.482 2722.27,604.797L2722.25,604.807C2718.41,607.025 2714.12,608.077 2709.43,608.077Z" style="fill:rgb(240,242,244);"/>
            <path d="M2850.41,630.922C2864,630.922 2876.05,627.291 2886.57,620.088C2896.82,613.097 2905.42,604.198 2912.42,593.346C2919.29,582.708 2924.52,571.057 2928.11,558.389C2931.7,545.76 2933.47,533.756 2933.47,522.411C2933.47,505.146 2929.39,491.523 2921.59,481.407L2921.59,481.404C2913.44,470.884 2901.24,465.375 2884.73,465.375C2871.17,465.375 2859.13,469.005 2848.57,476.207L2848.57,476.21C2838.35,483.202 2829.72,492.129 2822.72,502.948L2822.72,502.951C2815.85,513.621 2810.62,525.271 2807.03,537.908L2807.03,537.91C2803.45,550.57 2801.67,562.542 2801.67,573.887C2801.67,591.184 2805.75,604.808 2813.55,614.894C2821.7,625.442 2833.93,630.922 2850.41,630.922ZM2850.41,625.362C2835.94,625.362 2825.1,620.758 2817.95,611.493C2810.8,602.255 2807.23,589.73 2807.23,573.887C2807.23,563.019 2808.95,551.552 2812.38,539.426C2815.81,527.33 2820.81,516.177 2827.39,505.967C2833.97,495.786 2842.09,487.379 2851.7,480.801C2861.34,474.224 2872.35,470.935 2884.73,470.935C2899.23,470.935 2910.04,475.568 2917.19,484.805C2924.34,494.071 2927.91,506.596 2927.91,522.411C2927.91,533.278 2926.2,544.774 2922.76,556.871C2919.33,568.996 2914.33,580.149 2907.75,590.33C2901.17,600.54 2893.08,608.919 2883.44,615.496C2873.83,622.074 2862.82,625.362 2850.41,625.362ZM2851.27,613.637C2856.99,613.637 2862.19,612.322 2866.86,609.634C2871.55,606.974 2875.69,603.342 2879.3,598.767C2882.93,594.191 2886.02,588.815 2888.59,582.609C2891.16,576.432 2893.31,569.883 2895.02,563.019C2897.14,554.64 2898.86,547.634 2900.17,542C2901.52,536.395 2902.57,531.676 2903.32,527.844C2904.09,524.041 2904.61,520.895 2904.89,518.407C2905.18,515.948 2905.32,513.546 2905.32,511.258C2905.32,502.678 2903.75,495.786 2900.6,490.524C2897.45,485.291 2891.88,482.66 2883.87,482.66C2878.15,482.66 2872.98,484.004 2868.29,486.664C2863.62,489.352 2859.48,492.955 2855.85,497.531C2852.24,502.106 2849.12,507.511 2846.55,513.689C2843.98,519.894 2841.83,526.414 2840.12,533.278C2838.03,541.686 2836.31,548.692 2834.97,554.297C2833.65,559.931 2832.6,564.65 2831.82,568.453C2831.08,572.285 2830.54,575.431 2830.25,577.89C2829.97,580.378 2829.82,582.752 2829.82,585.04C2829.82,593.619 2831.39,600.54 2834.54,605.773C2837.69,611.035 2843.26,613.637 2851.27,613.637ZM2851.27,608.077C2845.62,608.077 2841.53,606.625 2839.31,602.916L2839.3,602.91C2836.59,598.403 2835.38,592.419 2835.38,585.04C2835.38,582.956 2835.51,580.794 2835.77,578.529C2836.05,576.183 2836.57,573.187 2837.27,569.54C2838.04,565.786 2839.08,561.132 2840.38,555.579C2841.71,549.989 2843.43,543.004 2845.51,534.622C2847.15,528.035 2849.22,521.777 2851.68,515.821C2854.04,510.151 2856.89,505.183 2860.21,500.982C2863.37,496.993 2866.97,493.839 2871.04,491.493C2874.9,489.307 2879.16,488.22 2883.87,488.22C2889.52,488.22 2893.61,489.7 2895.84,493.387C2898.55,497.915 2899.76,503.876 2899.76,511.258C2899.76,513.337 2899.64,515.52 2899.37,517.755L2899.37,517.77C2899.1,520.146 2898.61,523.131 2897.87,526.74L2897.87,526.758C2897.13,530.544 2896.1,535.185 2894.77,540.697L2894.76,540.719C2893.45,546.346 2891.74,553.317 2889.63,561.654L2889.63,561.664C2887.99,568.26 2885.93,574.545 2883.46,580.472L2883.46,580.476C2881.1,586.173 2878.28,591.113 2874.95,595.31L2874.94,595.316C2871.8,599.305 2868.2,602.481 2864.12,604.797L2864.11,604.806C2860.25,607.024 2855.97,608.077 2851.27,608.077Z" style="fill:rgb(240,242,244);"/>
            <path d="M2979.16,598.567L3029.55,397.312L2965.9,410.75L2961.26,431.025L2986.85,431.025C2986.85,431.025 2945.93,594.704 2945.93,594.704L2944.64,601.079C2944.1,603.77 2943.8,606.34 2943.8,608.776C2943.8,614.557 2945.68,619.622 2949.43,623.979C2953.27,628.468 2958.82,630.922 2966.23,630.922C2971.36,630.922 2976.67,629.397 2982.11,626.122C2986.92,623.27 2993.02,617.576 3000.21,608.934C3000.21,608.934 3024.26,580.832 3024.26,580.832L3008.98,568.745L2979.16,598.567ZM2966.23,625.362C2960.71,625.362 2956.51,623.704 2953.65,620.358C2950.79,617.04 2949.36,613.18 2949.36,608.776C2949.36,606.688 2949.62,604.486 2950.08,602.198C2950.56,599.91 2950.99,597.823 2951.36,595.907L2993.97,425.465L2968.23,425.465L2970.52,415.456L3022,404.588L2971.38,606.774L2976.53,609.062L3009.41,576.174L3016.28,581.608L2995.97,605.344C2989.31,613.351 2983.73,618.699 2979.24,621.359C2974.78,624.047 2970.44,625.362 2966.23,625.362Z" style="fill:rgb(240,242,244);"/>
            <path d="M3052.6,630.636C3058.66,630.636 3063.92,628.917 3068.39,625.507C3072.88,622.132 3076.01,617.455 3077.68,611.402L3077.72,611.293C3078.2,609.209 3078.46,607.715 3078.57,606.706C3078.7,605.643 3078.75,604.546 3078.75,603.342C3078.75,598.102 3076.95,593.485 3073.24,589.542C3069.63,585.649 3064.52,583.483 3057.74,583.483C3051.73,583.483 3046.47,585.222 3041.97,588.596L3041.95,588.614C3037.49,592.025 3034.37,596.685 3032.67,602.678L3032.58,603.027C3032.16,604.95 3031.91,606.392 3031.79,607.354L3031.6,610.778C3031.6,616.057 3033.43,620.635 3037.09,624.575L3037.1,624.586C3040.77,628.489 3045.87,630.636 3052.6,630.636ZM3052.6,625.076C3047.65,625.076 3043.85,623.647 3041.16,620.787C3038.5,617.927 3037.16,614.61 3037.16,610.778C3037.16,609.834 3037.21,608.919 3037.3,608.061C3037.41,607.203 3037.64,605.916 3038.01,604.2C3039.36,599.453 3041.79,595.735 3045.3,593.047C3048.85,590.387 3053,589.043 3057.74,589.043C3062.72,589.043 3066.53,590.473 3069.18,593.333C3071.87,596.193 3073.19,599.539 3073.19,603.342C3073.19,604.315 3073.16,605.201 3073.05,606.059C3072.96,606.917 3072.73,608.204 3072.33,609.92C3071.01,614.695 3068.58,618.413 3065.04,621.073C3061.52,623.761 3057.37,625.076 3052.6,625.076ZM3084.37,440.521C3085.93,440.023 3087.63,439.586 3089.47,439.203C3094.64,438.137 3099.78,437.602 3104.93,437.602C3111.39,437.602 3116.57,439.036 3120.33,442.266L3120.34,442.272C3123.89,445.305 3125.39,449.875 3125.39,455.778C3125.39,458.791 3125.02,461.904 3124.27,465.067L3124.26,465.072C3123.41,468.687 3122.81,471.34 3122.41,473.061C3119.52,484.643 3113.36,493.716 3103.92,500.25L3103.92,500.252C3094.14,507.038 3082.57,510.739 3069.19,511.424L3065.07,511.635L3050.93,568.865L3076.67,568.865L3085.36,534.112C3093.52,533.079 3101.62,530.952 3109.7,527.72C3119.14,523.974 3127.66,518.857 3135.28,512.342C3142.98,505.781 3149.21,497.868 3153.91,488.629C3158.71,479.3 3161.11,468.737 3161.11,456.922C3161.11,450.924 3160.13,445.281 3158.19,439.993L3158.19,439.992C3156.18,434.535 3153.14,429.784 3148.98,425.764C3144.92,421.807 3139.67,418.692 3133.17,416.482L3133.16,416.48C3127.06,414.424 3119.75,413.327 3111.22,413.327C3103.9,413.327 3096.41,414.357 3088.78,416.371L3088.77,416.374C3081.12,418.424 3074.15,421.275 3067.83,424.943L3067.82,424.946C3061.28,428.76 3055.93,433.35 3051.8,438.62L3051.79,438.627C3047.26,444.443 3045.04,450.822 3045.04,457.78C3045.04,463.841 3047.01,468.635 3050.67,472.295L3050.67,472.295C3054.35,475.969 3059.21,477.925 3065.47,477.925C3069.61,477.925 3073.14,477.031 3076.08,475.336C3078.87,473.772 3081.22,471.839 3083.15,469.52C3085.14,467.196 3086.61,464.681 3087.57,461.956C3088.57,459.213 3089.04,456.579 3089.04,454.062C3089.04,448.78 3087.72,444.747 3085.45,441.807C3085.11,441.36 3084.75,440.93 3084.37,440.521ZM3069.47,516.977C3083.97,516.234 3096.49,512.173 3107.08,504.823C3117.66,497.502 3124.58,487.35 3127.81,474.367C3128.21,472.651 3128.81,469.991 3129.67,466.359C3130.53,462.756 3130.95,459.21 3130.95,455.778C3130.95,447.971 3128.64,442.051 3123.95,438.048C3119.29,434.044 3112.94,432.042 3104.93,432.042C3099.41,432.042 3093.89,432.614 3088.35,433.758C3082.83,434.902 3078.45,436.532 3075.19,438.62L3074.62,440.621C3077.31,441.594 3079.45,443.109 3081.05,445.197C3082.68,447.313 3083.48,450.259 3083.48,454.062C3083.48,455.978 3083.11,457.98 3082.34,460.068C3081.6,462.184 3080.45,464.129 3078.91,465.93C3077.39,467.761 3075.53,469.276 3073.33,470.506C3071.16,471.764 3068.53,472.365 3065.47,472.365C3060.89,472.365 3057.29,471.049 3054.6,468.361C3051.94,465.702 3050.6,462.184 3050.6,457.78C3050.6,452.061 3052.45,446.827 3056.17,442.051C3059.89,437.304 3064.72,433.186 3070.61,429.754C3076.53,426.323 3083.05,423.663 3090.2,421.747C3097.35,419.86 3104.36,418.887 3111.22,418.887C3119.06,418.887 3125.78,419.86 3131.38,421.747C3137.02,423.663 3141.59,426.323 3145.11,429.754C3148.66,433.186 3151.26,437.247 3152.97,441.908C3154.69,446.598 3155.55,451.603 3155.55,456.922C3155.55,467.789 3153.38,477.512 3148.97,486.092C3144.6,494.671 3138.82,502.021 3131.67,508.112C3124.52,514.232 3116.51,519.036 3107.65,522.554C3098.78,526.1 3089.89,528.245 3080.91,528.988L3072.33,563.305L3058.03,563.305L3069.47,516.977Z" style="fill:rgb(240,242,244);"/>
        </g>
    </g>
</svg>
