<?xml version="1.0" encoding="UTF-8" standalone="no"?>
<!DOCTYPE svg PUBLIC "-//W3C//DTD SVG 1.1//EN" "http://www.w3.org/Graphics/SVG/1.1/DTD/svg11.dtd">
<svg width="100%" height="100%" viewBox="0 0 568 150" version="1.1" xmlns="http://www.w3.org/2000/svg" xmlns:xlink="http://www.w3.org/1999/xlink" xml:space="preserve" xmlns:serif="http://www.serif.com/" style="fill-rule:evenodd;clip-rule:evenodd;stroke-linejoin:round;stroke-miterlimit:2;">
    <rect x="0" y="0" width="568" height="150" style="fill:rgb(230,169,26);"/>
    <g transform="matrix(3.1332,0,0,3.1332,-71.326,-337.018)">
        <g transform="matrix(15,0,0,15,28.0126,125.197)">
            <path d="M0.076,-0L0.076,-0.711L0.24,-0.711C0.29,-0.71 0.334,-0.702 0.373,-0.686C0.412,-0.67 0.445,-0.647 0.471,-0.618C0.498,-0.59 0.519,-0.555 0.533,-0.515C0.547,-0.475 0.554,-0.43 0.555,-0.381L0.555,-0.329C0.554,-0.28 0.547,-0.236 0.533,-0.196C0.519,-0.155 0.498,-0.121 0.471,-0.092C0.445,-0.063 0.412,-0.041 0.373,-0.025C0.334,-0.009 0.29,-0 0.24,-0L0.076,-0ZM0.167,-0.637L0.167,-0.074L0.24,-0.074C0.279,-0.074 0.312,-0.081 0.34,-0.094C0.368,-0.107 0.391,-0.125 0.409,-0.148C0.428,-0.171 0.441,-0.198 0.45,-0.229C0.459,-0.259 0.464,-0.293 0.464,-0.329L0.464,-0.382C0.464,-0.418 0.459,-0.452 0.45,-0.483C0.441,-0.513 0.427,-0.54 0.409,-0.563C0.391,-0.585 0.368,-0.603 0.34,-0.616C0.312,-0.629 0.279,-0.636 0.24,-0.637L0.167,-0.637Z" style="fill:rgb(235,235,235);fill-rule:nonzero;"/>
        </g>
        <g transform="matrix(15,0,0,15,37.0141,125.197)">
            <path d="M0.318,0.01C0.281,0.01 0.247,0.003 0.216,-0.009C0.185,-0.022 0.158,-0.04 0.136,-0.063C0.114,-0.085 0.097,-0.112 0.084,-0.144C0.072,-0.175 0.066,-0.209 0.066,-0.246L0.066,-0.266C0.066,-0.309 0.073,-0.347 0.086,-0.381C0.1,-0.414 0.118,-0.443 0.141,-0.466C0.163,-0.489 0.189,-0.507 0.218,-0.52C0.247,-0.532 0.276,-0.538 0.307,-0.538C0.345,-0.538 0.378,-0.531 0.406,-0.518C0.435,-0.505 0.459,-0.487 0.478,-0.464C0.496,-0.44 0.51,-0.413 0.52,-0.381C0.529,-0.35 0.534,-0.316 0.534,-0.279L0.534,-0.238L0.156,-0.238C0.157,-0.214 0.162,-0.192 0.17,-0.17C0.178,-0.149 0.19,-0.131 0.204,-0.115C0.219,-0.099 0.236,-0.087 0.256,-0.078C0.277,-0.069 0.299,-0.064 0.323,-0.064C0.355,-0.064 0.384,-0.07 0.409,-0.083C0.434,-0.097 0.455,-0.114 0.472,-0.135L0.527,-0.092C0.518,-0.079 0.507,-0.066 0.494,-0.054C0.481,-0.042 0.465,-0.031 0.448,-0.021C0.431,-0.012 0.411,-0.004 0.39,0.001C0.368,0.007 0.344,0.01 0.318,0.01ZM0.307,-0.464C0.288,-0.464 0.271,-0.461 0.255,-0.454C0.239,-0.447 0.224,-0.437 0.211,-0.425C0.198,-0.412 0.187,-0.396 0.178,-0.377C0.169,-0.358 0.163,-0.337 0.159,-0.313L0.443,-0.313L0.443,-0.319C0.442,-0.337 0.439,-0.354 0.433,-0.372C0.428,-0.389 0.419,-0.404 0.408,-0.418C0.397,-0.432 0.383,-0.443 0.366,-0.451C0.35,-0.46 0.33,-0.464 0.307,-0.464Z" style="fill:rgb(235,235,235);fill-rule:nonzero;"/>
        </g>
        <g transform="matrix(15,0,0,15,46.0156,125.197)">
            <path d="M0.436,-0.14C0.436,-0.151 0.434,-0.161 0.43,-0.169C0.425,-0.178 0.418,-0.186 0.408,-0.193C0.398,-0.2 0.385,-0.207 0.368,-0.213C0.352,-0.219 0.331,-0.224 0.306,-0.229C0.276,-0.235 0.248,-0.243 0.223,-0.251C0.198,-0.26 0.177,-0.271 0.159,-0.283C0.142,-0.295 0.128,-0.309 0.118,-0.326C0.108,-0.342 0.104,-0.361 0.104,-0.383C0.104,-0.405 0.109,-0.425 0.119,-0.444C0.129,-0.462 0.143,-0.479 0.161,-0.493C0.179,-0.507 0.201,-0.518 0.226,-0.526C0.252,-0.534 0.279,-0.538 0.31,-0.538C0.342,-0.538 0.371,-0.534 0.397,-0.525C0.424,-0.517 0.446,-0.505 0.464,-0.49C0.482,-0.475 0.496,-0.458 0.506,-0.438C0.516,-0.418 0.521,-0.396 0.521,-0.373L0.431,-0.373C0.431,-0.384 0.428,-0.396 0.422,-0.406C0.416,-0.417 0.408,-0.427 0.397,-0.436C0.387,-0.444 0.374,-0.451 0.36,-0.456C0.345,-0.461 0.328,-0.464 0.31,-0.464C0.29,-0.464 0.274,-0.462 0.259,-0.458C0.245,-0.453 0.233,-0.448 0.223,-0.44C0.213,-0.433 0.206,-0.425 0.201,-0.416C0.196,-0.406 0.194,-0.396 0.194,-0.386C0.194,-0.376 0.196,-0.367 0.2,-0.358C0.204,-0.35 0.21,-0.343 0.22,-0.336C0.23,-0.33 0.242,-0.324 0.259,-0.319C0.275,-0.314 0.295,-0.309 0.32,-0.304C0.352,-0.297 0.382,-0.289 0.407,-0.28C0.433,-0.271 0.455,-0.26 0.472,-0.248C0.49,-0.235 0.503,-0.221 0.512,-0.204C0.522,-0.188 0.526,-0.168 0.526,-0.146C0.526,-0.123 0.521,-0.102 0.51,-0.083C0.5,-0.063 0.485,-0.047 0.466,-0.033C0.447,-0.02 0.425,-0.009 0.398,-0.001C0.372,0.006 0.343,0.01 0.312,0.01C0.276,0.01 0.244,0.005 0.216,-0.005C0.188,-0.014 0.165,-0.027 0.145,-0.043C0.126,-0.059 0.111,-0.077 0.101,-0.098C0.091,-0.118 0.085,-0.14 0.085,-0.163L0.176,-0.163C0.177,-0.144 0.182,-0.128 0.191,-0.116C0.199,-0.103 0.21,-0.093 0.223,-0.085C0.236,-0.077 0.25,-0.072 0.266,-0.068C0.281,-0.065 0.297,-0.063 0.312,-0.063C0.35,-0.063 0.38,-0.07 0.402,-0.084C0.424,-0.098 0.436,-0.117 0.436,-0.14Z" style="fill:rgb(235,235,235);fill-rule:nonzero;"/>
        </g>
        <g transform="matrix(15,0,0,15,55.017,125.197)">
            <path d="M0.099,-0.528L0.369,-0.528L0.369,-0.078L0.542,-0.078L0.542,-0L0.099,-0L0.099,-0.078L0.279,-0.078L0.279,-0.45L0.099,-0.45L0.099,-0.528ZM0.267,-0.667C0.267,-0.682 0.272,-0.695 0.281,-0.705C0.289,-0.715 0.303,-0.72 0.321,-0.72C0.339,-0.72 0.353,-0.715 0.362,-0.705C0.371,-0.695 0.375,-0.682 0.375,-0.667C0.375,-0.652 0.371,-0.64 0.362,-0.63C0.353,-0.621 0.339,-0.616 0.321,-0.616C0.303,-0.616 0.289,-0.621 0.281,-0.63C0.272,-0.64 0.267,-0.652 0.267,-0.667Z" style="fill:rgb(235,235,235);fill-rule:nonzero;"/>
        </g>
        <g transform="matrix(15,0,0,15,64.0185,125.197)">
            <path d="M0.068,-0.269C0.068,-0.308 0.073,-0.344 0.083,-0.377C0.092,-0.41 0.106,-0.439 0.125,-0.462C0.143,-0.486 0.165,-0.505 0.191,-0.518C0.217,-0.531 0.246,-0.538 0.279,-0.538C0.312,-0.538 0.34,-0.532 0.365,-0.521C0.39,-0.509 0.41,-0.493 0.428,-0.471L0.432,-0.528L0.514,-0.528L0.514,-0.011C0.514,0.024 0.509,0.055 0.498,0.082C0.487,0.109 0.472,0.132 0.452,0.15C0.432,0.169 0.409,0.184 0.381,0.193C0.354,0.203 0.324,0.208 0.291,0.208C0.277,0.208 0.261,0.206 0.244,0.203C0.226,0.2 0.208,0.195 0.19,0.188C0.172,0.181 0.155,0.172 0.138,0.16C0.121,0.148 0.107,0.134 0.095,0.117L0.142,0.063C0.153,0.076 0.164,0.087 0.176,0.096C0.188,0.106 0.199,0.113 0.211,0.119C0.223,0.124 0.236,0.128 0.248,0.131C0.26,0.133 0.272,0.134 0.284,0.134C0.305,0.134 0.325,0.131 0.342,0.125C0.359,0.119 0.374,0.11 0.386,0.098C0.398,0.086 0.408,0.071 0.414,0.054C0.421,0.036 0.424,0.016 0.424,-0.007L0.424,-0.052C0.406,-0.032 0.385,-0.017 0.362,-0.006C0.338,0.004 0.31,0.01 0.278,0.01C0.246,0.01 0.217,0.003 0.191,-0.011C0.165,-0.024 0.143,-0.043 0.125,-0.067C0.107,-0.091 0.093,-0.12 0.083,-0.153C0.073,-0.185 0.068,-0.221 0.068,-0.258L0.068,-0.269ZM0.159,-0.258C0.159,-0.233 0.161,-0.208 0.167,-0.185C0.172,-0.162 0.181,-0.142 0.192,-0.124C0.204,-0.106 0.218,-0.093 0.236,-0.082C0.254,-0.072 0.276,-0.067 0.301,-0.067C0.316,-0.067 0.33,-0.069 0.343,-0.073C0.356,-0.076 0.367,-0.082 0.377,-0.088C0.387,-0.095 0.396,-0.103 0.403,-0.113C0.411,-0.122 0.418,-0.133 0.424,-0.144L0.424,-0.386C0.418,-0.397 0.411,-0.407 0.403,-0.417C0.396,-0.426 0.387,-0.434 0.376,-0.44C0.366,-0.447 0.355,-0.452 0.343,-0.456C0.33,-0.46 0.317,-0.461 0.302,-0.461C0.276,-0.461 0.255,-0.456 0.237,-0.446C0.219,-0.435 0.204,-0.421 0.192,-0.404C0.181,-0.386 0.172,-0.365 0.167,-0.342C0.161,-0.319 0.159,-0.294 0.159,-0.269L0.159,-0.258Z" style="fill:rgb(235,235,235);fill-rule:nonzero;"/>
        </g>
        <g transform="matrix(15,0,0,15,73.0199,125.197)">
            <path d="M0.166,-0.528L0.172,-0.45C0.192,-0.478 0.215,-0.499 0.243,-0.514C0.271,-0.53 0.302,-0.538 0.337,-0.538C0.365,-0.538 0.39,-0.534 0.412,-0.526C0.435,-0.519 0.454,-0.506 0.47,-0.49C0.486,-0.473 0.498,-0.452 0.507,-0.427C0.516,-0.401 0.52,-0.371 0.52,-0.335L0.52,-0L0.43,-0L0.43,-0.333C0.43,-0.357 0.427,-0.377 0.422,-0.393C0.417,-0.409 0.409,-0.423 0.399,-0.433C0.388,-0.443 0.376,-0.45 0.361,-0.455C0.346,-0.459 0.329,-0.461 0.31,-0.461C0.28,-0.461 0.253,-0.454 0.23,-0.439C0.207,-0.424 0.189,-0.404 0.175,-0.379L0.175,-0L0.085,-0L0.085,-0.528L0.166,-0.528Z" style="fill:rgb(235,235,235);fill-rule:nonzero;"/>
        </g>
        <g transform="matrix(15,0,0,15,82.0214,125.197)">
            <path d="M0.165,-0.191L0.176,-0.116L0.189,-0.191L0.273,-0.528L0.332,-0.528L0.416,-0.191L0.43,-0.108L0.443,-0.191L0.501,-0.528L0.582,-0.528L0.469,-0L0.398,-0L0.315,-0.324L0.302,-0.406L0.289,-0.324L0.207,-0L0.136,-0L0.023,-0.528L0.104,-0.528L0.165,-0.191Z" style="fill:rgb(235,235,235);fill-rule:nonzero;"/>
        </g>
        <g transform="matrix(15,0,0,15,91.0229,125.197)">
            <path d="M0.432,-0C0.429,-0.007 0.426,-0.015 0.424,-0.026C0.421,-0.036 0.42,-0.047 0.419,-0.058C0.41,-0.049 0.4,-0.04 0.388,-0.032C0.377,-0.024 0.365,-0.016 0.351,-0.01C0.338,-0.004 0.323,0.001 0.308,0.004C0.293,0.008 0.277,0.01 0.259,0.01C0.231,0.01 0.206,0.006 0.183,-0.002C0.161,-0.011 0.142,-0.022 0.126,-0.035C0.11,-0.049 0.098,-0.066 0.089,-0.085C0.08,-0.104 0.076,-0.124 0.076,-0.146C0.076,-0.175 0.082,-0.201 0.094,-0.223C0.105,-0.244 0.121,-0.263 0.143,-0.277C0.164,-0.292 0.189,-0.302 0.219,-0.31C0.249,-0.317 0.282,-0.32 0.319,-0.32L0.417,-0.32L0.417,-0.362C0.417,-0.378 0.415,-0.392 0.409,-0.405C0.403,-0.417 0.395,-0.428 0.384,-0.437C0.373,-0.446 0.36,-0.453 0.344,-0.458C0.329,-0.463 0.312,-0.465 0.292,-0.465C0.275,-0.465 0.259,-0.463 0.244,-0.458C0.23,-0.454 0.218,-0.448 0.208,-0.44C0.199,-0.433 0.191,-0.424 0.186,-0.414C0.18,-0.404 0.178,-0.393 0.178,-0.382L0.087,-0.382C0.087,-0.401 0.092,-0.42 0.102,-0.438C0.111,-0.457 0.125,-0.474 0.143,-0.489C0.161,-0.503 0.183,-0.515 0.209,-0.524C0.235,-0.534 0.264,-0.538 0.297,-0.538C0.327,-0.538 0.355,-0.534 0.381,-0.527C0.407,-0.52 0.429,-0.509 0.448,-0.494C0.466,-0.479 0.481,-0.461 0.492,-0.438C0.502,-0.416 0.508,-0.39 0.508,-0.361L0.508,-0.115C0.508,-0.098 0.509,-0.079 0.513,-0.059C0.516,-0.04 0.521,-0.022 0.526,-0.008L0.526,-0L0.432,-0ZM0.272,-0.069C0.29,-0.069 0.306,-0.071 0.322,-0.076C0.337,-0.08 0.351,-0.086 0.364,-0.094C0.376,-0.101 0.387,-0.11 0.396,-0.119C0.405,-0.129 0.412,-0.139 0.417,-0.149L0.417,-0.256L0.333,-0.256C0.281,-0.256 0.24,-0.249 0.21,-0.233C0.181,-0.217 0.167,-0.193 0.167,-0.159C0.167,-0.146 0.169,-0.134 0.173,-0.123C0.177,-0.112 0.184,-0.102 0.193,-0.094C0.202,-0.087 0.213,-0.08 0.226,-0.076C0.239,-0.071 0.255,-0.069 0.272,-0.069Z" style="fill:rgb(235,235,235);fill-rule:nonzero;"/>
        </g>
        <g transform="matrix(15,0,0,15,100.024,125.197)">
            <path d="M0.299,-0.656L0.299,-0.528L0.5,-0.528L0.5,-0.458L0.299,-0.458L0.299,-0.171C0.299,-0.151 0.301,-0.134 0.307,-0.121C0.312,-0.107 0.319,-0.097 0.328,-0.089C0.337,-0.081 0.348,-0.075 0.36,-0.072C0.372,-0.069 0.384,-0.067 0.397,-0.067C0.407,-0.067 0.417,-0.067 0.428,-0.069C0.438,-0.07 0.448,-0.071 0.458,-0.073C0.468,-0.074 0.477,-0.076 0.486,-0.078C0.495,-0.08 0.502,-0.081 0.507,-0.083L0.52,-0.019C0.513,-0.014 0.503,-0.01 0.493,-0.007C0.482,-0.003 0.47,-0 0.458,0.002C0.445,0.005 0.431,0.007 0.417,0.008C0.403,0.009 0.389,0.01 0.375,0.01C0.352,0.01 0.33,0.006 0.309,-0C0.289,-0.007 0.271,-0.017 0.256,-0.032C0.241,-0.046 0.23,-0.065 0.221,-0.088C0.212,-0.111 0.208,-0.139 0.208,-0.171L0.208,-0.458L0.069,-0.458L0.069,-0.528L0.208,-0.528L0.208,-0.656L0.299,-0.656Z" style="fill:rgb(235,235,235);fill-rule:nonzero;"/>
        </g>
        <g transform="matrix(15,0,0,15,109.026,125.197)">
            <path d="M0.31,-0.063C0.326,-0.063 0.342,-0.066 0.358,-0.071C0.373,-0.076 0.387,-0.084 0.399,-0.093C0.411,-0.102 0.421,-0.113 0.428,-0.126C0.435,-0.138 0.439,-0.152 0.439,-0.167L0.525,-0.167C0.525,-0.143 0.518,-0.121 0.507,-0.099C0.495,-0.078 0.479,-0.059 0.459,-0.043C0.439,-0.027 0.416,-0.014 0.391,-0.005C0.365,0.005 0.338,0.01 0.31,0.01C0.27,0.01 0.235,0.003 0.205,-0.012C0.175,-0.026 0.15,-0.045 0.13,-0.07C0.11,-0.094 0.095,-0.122 0.085,-0.154C0.075,-0.185 0.07,-0.219 0.07,-0.254L0.07,-0.274C0.07,-0.309 0.075,-0.343 0.085,-0.375C0.095,-0.406 0.11,-0.434 0.13,-0.459C0.15,-0.483 0.175,-0.502 0.205,-0.517C0.235,-0.531 0.27,-0.538 0.31,-0.538C0.341,-0.538 0.37,-0.533 0.396,-0.523C0.422,-0.513 0.445,-0.5 0.464,-0.483C0.483,-0.466 0.498,-0.445 0.509,-0.422C0.52,-0.398 0.525,-0.373 0.525,-0.347L0.439,-0.347C0.439,-0.363 0.436,-0.378 0.429,-0.392C0.422,-0.406 0.413,-0.418 0.402,-0.429C0.39,-0.44 0.377,-0.448 0.361,-0.455C0.345,-0.461 0.328,-0.464 0.31,-0.464C0.282,-0.464 0.259,-0.458 0.24,-0.447C0.22,-0.436 0.205,-0.421 0.193,-0.403C0.182,-0.385 0.173,-0.365 0.168,-0.342C0.163,-0.32 0.161,-0.297 0.161,-0.274L0.161,-0.254C0.161,-0.231 0.163,-0.208 0.168,-0.185C0.173,-0.163 0.182,-0.142 0.193,-0.124C0.205,-0.106 0.22,-0.092 0.239,-0.08C0.258,-0.069 0.282,-0.063 0.31,-0.063Z" style="fill:rgb(235,235,235);fill-rule:nonzero;"/>
        </g>
        <g transform="matrix(15,0,0,15,118.027,125.197)">
            <path d="M0.175,-0.45C0.194,-0.477 0.217,-0.499 0.245,-0.514C0.273,-0.53 0.304,-0.538 0.338,-0.538C0.366,-0.538 0.391,-0.534 0.414,-0.526C0.436,-0.518 0.456,-0.506 0.472,-0.489C0.488,-0.472 0.5,-0.45 0.509,-0.425C0.517,-0.399 0.521,-0.368 0.521,-0.333L0.521,-0L0.431,-0L0.431,-0.333C0.431,-0.377 0.421,-0.409 0.4,-0.43C0.379,-0.451 0.35,-0.462 0.312,-0.461C0.283,-0.461 0.256,-0.454 0.233,-0.44C0.209,-0.426 0.19,-0.407 0.175,-0.384L0.175,-0L0.085,-0L0.085,-0.75L0.175,-0.75L0.175,-0.45Z" style="fill:rgb(235,235,235);fill-rule:nonzero;"/>
        </g>
        <g transform="matrix(15,0,0,15,127.029,125.197)">
            <path d="M0.242,-0.059C0.242,-0.068 0.244,-0.077 0.247,-0.086C0.25,-0.094 0.254,-0.102 0.26,-0.108C0.266,-0.115 0.273,-0.119 0.282,-0.123C0.291,-0.127 0.301,-0.128 0.313,-0.128C0.325,-0.128 0.335,-0.127 0.344,-0.123C0.353,-0.119 0.36,-0.115 0.366,-0.108C0.372,-0.102 0.377,-0.094 0.38,-0.086C0.383,-0.077 0.385,-0.068 0.385,-0.059C0.385,-0.049 0.383,-0.04 0.38,-0.032C0.377,-0.024 0.372,-0.016 0.366,-0.01C0.36,-0.004 0.353,0.001 0.344,0.004C0.335,0.008 0.325,0.009 0.313,0.009C0.301,0.009 0.291,0.008 0.282,0.004C0.273,0.001 0.266,-0.004 0.26,-0.01C0.254,-0.016 0.25,-0.024 0.247,-0.032C0.244,-0.04 0.242,-0.049 0.242,-0.059Z" style="fill:rgb(235,235,235);fill-rule:nonzero;"/>
        </g>
        <g transform="matrix(15,0,0,15,136.03,125.197)">
            <path d="M0.533,-0.258C0.533,-0.221 0.528,-0.185 0.519,-0.153C0.51,-0.12 0.497,-0.091 0.479,-0.067C0.461,-0.043 0.44,-0.024 0.414,-0.011C0.388,0.003 0.358,0.01 0.325,0.01C0.291,0.01 0.261,0.004 0.237,-0.008C0.212,-0.02 0.19,-0.038 0.173,-0.06L0.168,-0L0.085,-0L0.085,-0.75L0.176,-0.75L0.176,-0.472C0.193,-0.493 0.214,-0.51 0.238,-0.521C0.263,-0.532 0.291,-0.538 0.324,-0.538C0.358,-0.538 0.388,-0.531 0.414,-0.518C0.44,-0.505 0.461,-0.486 0.479,-0.462C0.497,-0.439 0.51,-0.41 0.519,-0.377C0.528,-0.344 0.533,-0.308 0.533,-0.269L0.533,-0.258ZM0.442,-0.269C0.442,-0.294 0.44,-0.319 0.435,-0.342C0.43,-0.365 0.422,-0.386 0.411,-0.404C0.4,-0.421 0.385,-0.435 0.367,-0.446C0.349,-0.456 0.327,-0.461 0.301,-0.461C0.286,-0.461 0.271,-0.459 0.258,-0.455C0.245,-0.451 0.234,-0.446 0.223,-0.438C0.213,-0.431 0.204,-0.422 0.196,-0.412C0.188,-0.402 0.181,-0.392 0.176,-0.38L0.176,-0.149C0.182,-0.137 0.189,-0.126 0.197,-0.116C0.205,-0.107 0.214,-0.098 0.224,-0.09C0.235,-0.083 0.246,-0.077 0.259,-0.073C0.272,-0.069 0.287,-0.067 0.302,-0.067C0.327,-0.067 0.348,-0.072 0.366,-0.082C0.384,-0.093 0.398,-0.106 0.409,-0.124C0.421,-0.142 0.429,-0.162 0.434,-0.185C0.44,-0.208 0.442,-0.233 0.442,-0.258L0.442,-0.269Z" style="fill:rgb(235,235,235);fill-rule:nonzero;"/>
        </g>
        <g transform="matrix(15,0,0,15,145.032,125.197)">
            <path d="M0.099,-0.75L0.369,-0.75L0.369,-0.078L0.542,-0.078L0.542,-0L0.099,-0L0.099,-0.078L0.279,-0.078L0.279,-0.671L0.099,-0.671L0.099,-0.75Z" style="fill:rgb(235,235,235);fill-rule:nonzero;"/>
        </g>
        <g transform="matrix(15,0,0,15,154.033,125.197)">
            <path d="M0.06,-0.269C0.06,-0.307 0.065,-0.343 0.076,-0.375C0.087,-0.408 0.103,-0.436 0.124,-0.46C0.144,-0.485 0.17,-0.503 0.199,-0.517C0.229,-0.531 0.262,-0.538 0.299,-0.538C0.337,-0.538 0.37,-0.531 0.4,-0.517C0.43,-0.503 0.455,-0.485 0.476,-0.46C0.497,-0.436 0.512,-0.408 0.523,-0.375C0.535,-0.343 0.54,-0.307 0.54,-0.269L0.54,-0.258C0.54,-0.22 0.535,-0.185 0.523,-0.152C0.512,-0.12 0.497,-0.091 0.476,-0.067C0.455,-0.043 0.43,-0.024 0.4,-0.011C0.371,0.003 0.337,0.01 0.3,0.01C0.263,0.01 0.229,0.003 0.199,-0.011C0.17,-0.024 0.144,-0.043 0.124,-0.067C0.103,-0.091 0.087,-0.12 0.076,-0.152C0.065,-0.185 0.06,-0.22 0.06,-0.258L0.06,-0.269ZM0.15,-0.258C0.15,-0.232 0.153,-0.207 0.159,-0.184C0.165,-0.16 0.175,-0.139 0.187,-0.122C0.2,-0.104 0.215,-0.09 0.234,-0.079C0.253,-0.069 0.275,-0.063 0.3,-0.063C0.325,-0.063 0.347,-0.069 0.365,-0.079C0.384,-0.09 0.4,-0.104 0.412,-0.122C0.425,-0.139 0.434,-0.16 0.44,-0.184C0.447,-0.207 0.45,-0.232 0.45,-0.258L0.45,-0.269C0.45,-0.295 0.447,-0.319 0.44,-0.343C0.434,-0.367 0.424,-0.387 0.412,-0.405C0.399,-0.423 0.384,-0.437 0.365,-0.448C0.346,-0.459 0.324,-0.464 0.299,-0.464C0.274,-0.464 0.252,-0.459 0.234,-0.448C0.215,-0.437 0.2,-0.423 0.187,-0.405C0.175,-0.387 0.165,-0.367 0.159,-0.343C0.153,-0.319 0.15,-0.295 0.15,-0.269L0.15,-0.258Z" style="fill:rgb(235,235,235);fill-rule:nonzero;"/>
        </g>
        <g transform="matrix(15,0,0,15,163.035,125.197)">
            <path d="M0.068,-0.269C0.068,-0.308 0.073,-0.344 0.083,-0.377C0.092,-0.41 0.106,-0.439 0.125,-0.462C0.143,-0.486 0.165,-0.505 0.191,-0.518C0.217,-0.531 0.246,-0.538 0.279,-0.538C0.312,-0.538 0.34,-0.532 0.365,-0.521C0.39,-0.509 0.41,-0.493 0.428,-0.471L0.432,-0.528L0.514,-0.528L0.514,-0.011C0.514,0.024 0.509,0.055 0.498,0.082C0.487,0.109 0.472,0.132 0.452,0.15C0.432,0.169 0.409,0.184 0.381,0.193C0.354,0.203 0.324,0.208 0.291,0.208C0.277,0.208 0.261,0.206 0.244,0.203C0.226,0.2 0.208,0.195 0.19,0.188C0.172,0.181 0.155,0.172 0.138,0.16C0.121,0.148 0.107,0.134 0.095,0.117L0.142,0.063C0.153,0.076 0.164,0.087 0.176,0.096C0.188,0.106 0.199,0.113 0.211,0.119C0.223,0.124 0.236,0.128 0.248,0.131C0.26,0.133 0.272,0.134 0.284,0.134C0.305,0.134 0.325,0.131 0.342,0.125C0.359,0.119 0.374,0.11 0.386,0.098C0.398,0.086 0.408,0.071 0.414,0.054C0.421,0.036 0.424,0.016 0.424,-0.007L0.424,-0.052C0.406,-0.032 0.385,-0.017 0.362,-0.006C0.338,0.004 0.31,0.01 0.278,0.01C0.246,0.01 0.217,0.003 0.191,-0.011C0.165,-0.024 0.143,-0.043 0.125,-0.067C0.107,-0.091 0.093,-0.12 0.083,-0.153C0.073,-0.185 0.068,-0.221 0.068,-0.258L0.068,-0.269ZM0.159,-0.258C0.159,-0.233 0.161,-0.208 0.167,-0.185C0.172,-0.162 0.181,-0.142 0.192,-0.124C0.204,-0.106 0.218,-0.093 0.236,-0.082C0.254,-0.072 0.276,-0.067 0.301,-0.067C0.316,-0.067 0.33,-0.069 0.343,-0.073C0.356,-0.076 0.367,-0.082 0.377,-0.088C0.387,-0.095 0.396,-0.103 0.403,-0.113C0.411,-0.122 0.418,-0.133 0.424,-0.144L0.424,-0.386C0.418,-0.397 0.411,-0.407 0.403,-0.417C0.396,-0.426 0.387,-0.434 0.376,-0.44C0.366,-0.447 0.355,-0.452 0.343,-0.456C0.33,-0.46 0.317,-0.461 0.302,-0.461C0.276,-0.461 0.255,-0.456 0.237,-0.446C0.219,-0.435 0.204,-0.421 0.192,-0.404C0.181,-0.386 0.172,-0.365 0.167,-0.342C0.161,-0.319 0.159,-0.294 0.159,-0.269L0.159,-0.258Z" style="fill:rgb(235,235,235);fill-rule:nonzero;"/>
        </g>
    </g>
</svg>
