<?xml version="1.0" encoding="UTF-8" standalone="no"?>
<!DOCTYPE svg PUBLIC "-//W3C//DTD SVG 1.1//EN" "http://www.w3.org/Graphics/SVG/1.1/DTD/svg11.dtd">
<svg width="100%" height="100%" viewBox="0 0 568 150" version="1.1" xmlns="http://www.w3.org/2000/svg" xmlns:xlink="http://www.w3.org/1999/xlink" xml:space="preserve" xmlns:serif="http://www.serif.com/" style="fill-rule:evenodd;clip-rule:evenodd;stroke-linecap:round;stroke-linejoin:round;stroke-miterlimit:1.5;">
    <g transform="matrix(0.179975,0,0,0.179856,0,0)">
        <g transform="matrix(1,0,0,1,55.5634,117.01)">
            <g>
                <path d="M10.278,380.277L34.722,380.277L34.722,314.721L60,286.388L130.278,380.277L159.722,380.277L75,269.444L159.722,178.333L127.778,178.333L37.222,278.61L34.722,278.61L34.722,178.333L10.278,178.333L10.278,380.277Z" style="fill:rgb(0,0,255);fill-rule:nonzero;"/>
            </g>
            <g>
                <path d="M232.774,383.888C259.163,383.888 273.052,369.721 277.774,359.721L278.885,359.721L278.885,380.277L302.219,380.277L302.219,280.555C302.219,232.221 265.552,226.666 246.385,226.666C223.33,226.666 197.219,234.721 185.552,262.221L207.497,270.277C212.774,259.166 224.719,247.221 246.941,247.221C268.33,247.221 278.885,258.61 278.885,278.055L278.885,278.888C278.885,289.999 267.497,289.166 239.997,292.777C211.941,296.388 181.108,302.499 181.108,337.221C181.108,366.944 204.163,383.888 232.774,383.888ZM236.385,363.055C217.774,363.055 204.441,354.721 204.441,338.333C204.441,320.833 220.552,315.277 238.885,312.777C248.608,311.666 274.997,308.888 278.885,304.166L278.885,325.555C278.885,344.444 263.885,363.055 236.385,363.055Z" style="fill:rgb(0,0,255);fill-rule:nonzero;"/>
            </g>
            <g>
                <path d="M368.308,289.166C368.308,262.777 384.419,247.777 406.919,247.777C428.308,247.777 441.642,261.944 441.642,285.555L441.642,380.277L464.975,380.277L464.975,283.888C464.975,245.277 444.142,226.666 413.586,226.666C390.53,226.666 376.364,236.944 369.419,252.499L367.475,252.499L367.475,228.888L344.975,228.888L344.975,380.277L368.308,380.277L368.308,289.166Z" style="fill:rgb(0,0,255);fill-rule:nonzero;"/>
            </g>
            <g>
                <path d="M530.871,289.166C530.871,262.777 546.982,247.777 569.482,247.777C590.871,247.777 604.204,261.944 604.204,285.555L604.204,380.277L627.538,380.277L627.538,283.888C627.538,245.277 606.704,226.666 576.149,226.666C553.093,226.666 538.927,236.944 531.982,252.499L530.038,252.499L530.038,228.888L507.538,228.888L507.538,380.277L530.871,380.277L530.871,289.166Z" style="fill:rgb(0,0,255);fill-rule:nonzero;"/>
            </g>
            <g>
                <path d="M813.502,380.277C875.168,380.277 909.89,341.944 909.89,278.888C909.89,216.11 875.168,178.333 816.279,178.333L751.279,178.333L751.279,380.277L813.502,380.277ZM775.724,358.61L775.724,199.999L814.89,199.999C862.113,199.999 886.279,229.999 886.279,278.888C886.279,328.333 862.113,358.61 812.113,358.61L775.724,358.61Z" style="fill:rgb(0,0,255);fill-rule:nonzero;"/>
            </g>
            <g>
                <path d="M1011.21,383.333C1042.05,383.333 1064.55,368.055 1071.77,345.277L1049.27,338.888C1043.16,354.721 1029.55,362.499 1011.21,362.499C983.99,362.499 965.102,344.999 963.99,312.499L1073.99,312.499L1073.99,302.499C1073.99,246.11 1040.66,226.666 1008.99,226.666C967.879,226.666 940.657,259.166 940.657,305.833C940.657,352.221 967.602,383.333 1011.21,383.333ZM963.99,292.221C965.657,268.61 982.324,247.777 1008.99,247.777C1034.27,247.777 1050.38,266.666 1050.38,292.221L963.99,292.221Z" style="fill:rgb(0,0,255);fill-rule:nonzero;"/>
            </g>
            <g>
                <path d="M1216.87,262.777C1209.65,241.11 1193.26,226.666 1163.26,226.666C1131.32,226.666 1107.71,244.999 1107.71,270.555C1107.71,291.388 1119.93,305.555 1147.71,311.944L1172.99,318.055C1188.26,321.388 1195.49,328.888 1195.49,339.166C1195.49,352.221 1181.87,363.055 1160.21,363.055C1141.04,363.055 1129.1,354.721 1124.93,338.333L1102.99,343.888C1108.26,369.721 1129.37,383.333 1160.49,383.333C1195.76,383.333 1219.65,364.166 1219.65,338.055C1219.65,316.944 1206.32,303.61 1179.37,296.944L1156.87,291.388C1139.1,286.944 1130.76,281.11 1130.76,269.444C1130.76,256.388 1144.65,246.944 1163.26,246.944C1183.54,246.944 1191.87,258.055 1196.04,268.61L1216.87,262.777Z" style="fill:rgb(0,0,255);fill-rule:nonzero;"/>
            </g>
            <g>
                <path d="M1254.86,380.277L1278.19,380.277L1278.19,228.888L1254.86,228.888L1254.86,380.277ZM1266.52,203.61C1275.69,203.61 1283.19,196.388 1283.19,187.777C1283.19,179.166 1275.69,171.944 1266.52,171.944C1257.63,171.944 1250.13,179.166 1250.13,187.777C1250.13,196.388 1257.63,203.61 1266.52,203.61Z" style="fill:rgb(0,0,255);fill-rule:nonzero;"/>
            </g>
            <g>
                <path d="M1381.86,440.277C1418.25,440.277 1447.41,423.61 1447.41,384.721L1447.41,228.888L1424.91,228.888L1424.91,252.777L1422.41,252.777C1417.41,244.999 1407.97,226.666 1378.25,226.666C1339.91,226.666 1313.52,257.221 1313.52,303.61C1313.52,351.11 1341.3,377.777 1377.97,377.777C1407.41,377.777 1416.86,360.555 1422.13,352.221L1424.08,352.221L1424.08,383.055C1424.08,408.333 1406.3,419.721 1381.86,419.721C1354.36,419.721 1344.63,405.277 1338.52,396.944L1319.91,409.999C1329.36,425.833 1347.97,440.277 1381.86,440.277ZM1381.02,356.944C1351.86,356.944 1336.86,334.999 1336.86,303.333C1336.86,272.499 1351.3,247.777 1381.02,247.777C1409.36,247.777 1424.36,270.555 1424.36,303.333C1424.36,336.944 1409.08,356.944 1381.02,356.944Z" style="fill:rgb(0,0,255);fill-rule:nonzero;"/>
            </g>
            <g>
                <path d="M1513.35,289.166C1513.35,262.777 1529.46,247.777 1551.96,247.777C1573.35,247.777 1586.68,261.944 1586.68,285.555L1586.68,380.277L1610.02,380.277L1610.02,283.888C1610.02,245.277 1589.18,226.666 1558.63,226.666C1535.57,226.666 1521.41,236.944 1514.46,252.499L1512.52,252.499L1512.52,228.888L1490.02,228.888L1490.02,380.277L1513.35,380.277L1513.35,289.166Z" style="fill:rgb(0,0,255);fill-rule:nonzero;"/>
            </g>
            <g>
                <path d="M64.444,661.112C93.611,661.112 103.333,643.056 108.611,634.723L111.389,634.723L111.389,658.056L133.889,658.056L133.889,456.112L110.556,456.112L110.556,530.556L108.611,530.556C103.333,522.779 94.444,504.445 64.722,504.445C26.389,504.445 -0,535.001 -0,582.779C-0,630.834 26.389,661.112 64.444,661.112ZM67.5,640.279C38.333,640.279 23.333,614.723 23.333,582.223C23.333,550.279 37.778,525.556 67.5,525.556C95.833,525.556 110.833,548.334 110.833,582.223C110.833,616.668 95.556,640.279 67.5,640.279Z" style="fill:rgb(0,0,255);fill-rule:nonzero;"/>
            </g>
            <g>
                <path d="M179.649,658.056L202.983,658.056L202.983,506.668L179.649,506.668L179.649,658.056ZM191.316,481.39C200.483,481.39 207.983,474.168 207.983,465.556C207.983,456.945 200.483,449.723 191.316,449.723C182.427,449.723 174.927,456.945 174.927,465.556C174.927,474.168 182.427,481.39 191.316,481.39Z" style="fill:rgb(0,0,255);fill-rule:nonzero;"/>
            </g>
            <g>
                <path d="M308.876,661.112C339.709,661.112 362.209,645.834 369.432,623.056L346.932,616.668C340.82,632.501 327.209,640.279 308.876,640.279C281.654,640.279 262.765,622.779 261.654,590.279L371.654,590.279L371.654,580.279C371.654,523.89 338.32,504.445 306.654,504.445C265.543,504.445 238.32,536.945 238.32,583.612C238.32,630.001 265.265,661.112 308.876,661.112ZM261.654,570.001C263.32,546.39 279.987,525.556 306.654,525.556C331.932,525.556 348.043,544.445 348.043,570.001L261.654,570.001Z" style="fill:rgb(0,0,255);fill-rule:nonzero;"/>
            </g>
            <g>
                <path d="M525.164,658.056L550.442,658.056L595.164,496.945L596.553,496.945L641.275,658.056L666.553,658.056L721.831,456.112L696.831,456.112L654.609,620.556L652.664,620.556L609.609,456.112L582.109,456.112L539.053,620.556L537.109,620.556L494.887,456.112L469.887,456.112L525.164,658.056Z" style="fill:rgb(0,0,255);fill-rule:nonzero;"/>
            </g>
            <g>
                <path d="M798.146,661.112C828.979,661.112 851.479,645.834 858.702,623.056L836.202,616.668C830.09,632.501 816.479,640.279 798.146,640.279C770.924,640.279 752.035,622.779 750.924,590.279L860.924,590.279L860.924,580.279C860.924,523.89 827.59,504.445 795.924,504.445C754.813,504.445 727.59,536.945 727.59,583.612C727.59,630.001 754.535,661.112 798.146,661.112ZM750.924,570.001C752.59,546.39 769.257,525.556 795.924,525.556C821.202,525.556 837.313,544.445 837.313,570.001L750.924,570.001Z" style="fill:rgb(0,0,255);fill-rule:nonzero;"/>
            </g>
            <g>
                <rect x="896.585" y="456.112" width="23.333" height="201.944" style="fill:rgb(0,0,255);"/>
            </g>
            <g>
                <path d="M1028.31,506.668L995.813,506.668L995.813,470.279L972.757,470.279L972.757,506.668L949.702,506.668L949.702,526.39L972.757,526.39L972.757,620.834C972.757,647.501 993.868,660.001 1013.59,660.001C1022.48,660.001 1027.76,658.334 1031.09,657.223L1026.37,636.39C1024.42,636.668 1021.09,637.501 1016.09,637.501C1005.81,637.501 995.813,634.445 995.813,614.723L995.813,526.39L1028.31,526.39L1028.31,506.668Z" style="fill:rgb(0,0,255);fill-rule:nonzero;"/>
            </g>
            <g>
                <path d="M1273.28,506.668L1253.56,506.668L1187.17,635.001L1185.78,635.001L1162.17,506.668L1143.84,506.668L1174.11,658.056L1192.72,658.056L1273.28,506.668Z" style="fill:rgb(0,0,255);fill-rule:nonzero;"/>
            </g>
            <g>
                <path d="M1337.6,661.112C1368.16,661.112 1391.21,644.723 1401.21,625.834L1385.38,620.279C1377.32,633.89 1361.77,645.001 1340.1,645.001C1307.88,645.001 1292.32,625.556 1298.43,587.501L1411.21,587.501L1412.6,578.89C1421.21,528.334 1393.99,504.445 1360.93,504.445C1321.77,504.445 1289.27,537.223 1281.49,583.056C1273.99,629.168 1295.1,661.112 1337.6,661.112ZM1300.93,571.945C1307.32,545.001 1331.77,520.556 1358.71,520.556C1385.93,520.556 1400.93,542.779 1395.93,571.945L1300.93,571.945Z" style="fill:rgb(0,0,255);fill-rule:nonzero;"/>
            </g>
            <g>
                <path d="M1438.25,658.056L1455.75,658.056L1471.86,560.279C1475.75,537.779 1495.75,521.39 1519.36,521.39C1524.09,521.39 1528.25,522.223 1529.92,522.501L1532.97,504.445C1530.47,504.168 1526.59,504.168 1523.81,504.168C1504.64,504.168 1486.31,514.445 1477.97,529.723L1476.59,529.723L1480.47,506.668L1463.53,506.668L1438.25,658.056Z" style="fill:rgb(0,0,255);fill-rule:nonzero;"/>
            </g>
            <g>
                <path d="M1579.52,661.39C1604.8,661.39 1622.58,647.501 1630.91,634.168L1632.02,634.168L1627.86,658.056L1645.36,658.056L1662.58,555.279C1669.25,514.445 1640.63,504.445 1617.3,504.445C1594.25,504.445 1568.69,513.612 1554.25,538.334L1569.8,544.445C1577.58,531.39 1594.25,520.279 1616.19,520.279C1638.97,520.279 1648.69,533.056 1645.36,553.612L1644.8,557.223C1642.86,568.612 1628.41,568.89 1602.58,571.945C1567.58,576.112 1542.02,585.834 1537.02,615.834C1532.58,645.001 1552.02,661.39 1579.52,661.39ZM1583.97,645.556C1564.25,645.556 1551.47,635.001 1554.52,616.39C1557.58,598.056 1573.97,590.556 1600.36,587.223C1612.58,585.834 1635.36,583.056 1641.19,578.056L1637.58,600.001C1633.41,624.723 1612.02,645.556 1583.97,645.556ZM1648.97,480.556C1655.91,480.556 1661.47,475.279 1662.58,469.168C1663.97,461.39 1658.69,455.279 1650.91,455.279C1644.8,455.279 1638.69,460.001 1637.58,466.668C1636.19,474.168 1642.02,480.556 1648.97,480.556ZM1598.41,480.556C1605.36,480.556 1611.19,475.001 1612.02,469.168C1613.41,461.39 1608.41,455.279 1600.36,455.279C1594.52,455.279 1588.13,460.001 1587.02,466.668C1585.91,473.89 1591.47,480.556 1598.41,480.556Z" style="fill:rgb(0,0,255);fill-rule:nonzero;"/>
            </g>
            <g>
                <path d="M1725.49,563.334C1729.93,536.945 1750.21,520.556 1774.1,520.556C1797.43,520.556 1809.38,536.112 1805.49,561.112L1789.1,658.056L1806.88,658.056L1823.27,560.001C1829.1,523.89 1811.32,504.445 1781.05,504.445C1758.82,504.445 1741.6,514.723 1732.16,530.279L1730.49,530.279L1734.38,506.668L1717.43,506.668L1692.16,658.056L1709.66,658.056L1725.49,563.334Z" style="fill:rgb(0,0,255);fill-rule:nonzero;"/>
            </g>
            <g>
                <path d="M1907.59,661.112C1935.09,661.112 1950.92,643.89 1959.25,630.001L1961.47,630.001L1956.75,658.056L1973.7,658.056L2007.31,456.112L1989.53,456.112L1976.47,535.556L1974.81,535.556C1971.2,521.945 1961.47,504.445 1933.7,504.445C1896.47,504.445 1865.92,536.112 1858.14,582.779C1850.36,629.723 1870.09,661.112 1907.59,661.112ZM1911.47,645.001C1881.2,645.001 1869.81,617.779 1875.92,582.501C1881.47,547.501 1902.31,520.556 1932.59,520.556C1962.31,520.556 1975.09,546.112 1968.97,582.501C1962.86,618.89 1940.64,645.001 1911.47,645.001Z" style="fill:rgb(0,0,255);fill-rule:nonzero;"/>
            </g>
            <g>
                <path d="M2084.52,661.112C2115.08,661.112 2138.14,644.723 2148.14,625.834L2132.3,620.279C2124.25,633.89 2108.69,645.001 2087.02,645.001C2054.8,645.001 2039.25,625.556 2045.36,587.501L2158.14,587.501L2159.52,578.89C2168.14,528.334 2140.91,504.445 2107.86,504.445C2068.69,504.445 2036.19,537.223 2028.41,583.056C2020.91,629.168 2042.02,661.112 2084.52,661.112ZM2047.86,571.945C2054.25,545.001 2078.69,520.556 2105.64,520.556C2132.86,520.556 2147.86,542.779 2142.86,571.945L2047.86,571.945Z" style="fill:rgb(0,0,255);fill-rule:nonzero;"/>
            </g>
            <g>
                <path d="M2185.17,658.056L2202.67,658.056L2218.78,560.279C2222.67,537.779 2242.67,521.39 2266.28,521.39C2271.01,521.39 2275.17,522.223 2276.84,522.501L2279.9,504.445C2277.4,504.168 2273.51,504.168 2270.73,504.168C2251.56,504.168 2233.23,514.445 2224.9,529.723L2223.51,529.723L2227.4,506.668L2210.45,506.668L2185.17,658.056Z" style="fill:rgb(0,0,255);fill-rule:nonzero;"/>
            </g>
            <g>
                <path d="M2317.84,563.334C2322.28,536.945 2342.56,520.556 2366.45,520.556C2389.78,520.556 2401.73,536.112 2397.84,561.112L2381.45,658.056L2399.23,658.056L2415.62,560.001C2421.45,523.89 2403.67,504.445 2373.4,504.445C2351.17,504.445 2333.95,514.723 2324.51,530.279L2322.84,530.279L2326.73,506.668L2309.78,506.668L2284.51,658.056L2302.01,658.056L2317.84,563.334Z" style="fill:rgb(0,0,255);fill-rule:nonzero;"/>
            </g>
            <g>
                <path d="M2485.77,600.279L2503.55,600.279L2504.66,594.168C2508.55,572.779 2516.05,562.779 2535.77,551.39C2556.32,539.445 2568.27,526.668 2571.6,505.279C2576.32,475.556 2557.71,453.334 2524.93,453.334C2493.55,453.334 2465.77,473.89 2459.38,506.668L2477.99,506.668C2482.71,482.501 2502.71,469.168 2522.71,469.168C2543.55,469.168 2556.88,483.056 2553.82,504.445C2551.32,520.834 2540.77,530.556 2525.21,539.723C2504.1,552.223 2492.16,563.334 2486.6,594.168L2485.77,600.279ZM2487.43,659.445C2495.21,659.445 2501.6,653.334 2501.88,645.279C2502.43,637.501 2495.77,631.39 2487.99,631.39C2480.21,631.39 2473.55,637.501 2473.55,645.279C2473.55,653.334 2479.66,659.445 2487.43,659.445Z" style="fill:rgb(0,0,255);fill-rule:nonzero;"/>
            </g>
        </g>
        <g transform="matrix(7.18862,0,0,5.56,0,0)">
            <rect x="0" y="0" width="439.027" height="150" style="fill:none;stroke:rgb(0,0,255);stroke-width:0.72px;"/>
        </g>
    </g>
</svg>
