<?xml version="1.0" encoding="UTF-8" standalone="no"?>
<!DOCTYPE svg PUBLIC "-//W3C//DTD SVG 1.1//EN" "http://www.w3.org/Graphics/SVG/1.1/DTD/svg11.dtd">
<svg width="100%" height="100%" viewBox="0 0 568 150" version="1.1" xmlns="http://www.w3.org/2000/svg" xmlns:xlink="http://www.w3.org/1999/xlink" xml:space="preserve" xmlns:serif="http://www.serif.com/" style="fill-rule:evenodd;clip-rule:evenodd;stroke-miterlimit:10;">
    <path d="M568,30C568,13.443 554.557,0 538,0L30,0C13.443,0 0,13.443 0,30L0,120C0,136.557 13.443,150 30,150L538,150C554.557,150 568,136.557 568,120L568,30Z" style="fill:white;"/>
    <path d="M568,30C568,13.443 554.557,0 538,0L30,0C13.443,0 0,13.443 0,30L0,120C0,136.557 13.443,150 30,150L538,150C554.557,150 568,136.557 568,120L568,30ZM567.5,30L567.5,120C567.5,136.281 554.281,149.5 538,149.5C538,149.5 30,149.5 30,149.5C13.719,149.5 0.5,136.281 0.5,120L0.5,30C0.5,13.719 13.719,0.5 30,0.5L538,0.5C554.281,0.5 567.5,13.719 567.5,30Z"/>
    <g transform="matrix(0.49033,0,0,0.49033,-324.087,-128.265)">
        <g transform="matrix(1,0,0,1,472.869,-877.772)">
            <path d="M332.551,1298.41C366.629,1291.8 404.012,1288.08 404.012,1249.05C404.012,1219.51 387.695,1201.54 334.203,1201.54C273.689,1201.54 254.895,1220.55 254.895,1258.96L275.548,1258.96C275.548,1230.46 290.212,1221.16 334.203,1221.16C371.999,1221.16 383.358,1229.43 383.358,1247.6C383.358,1273.01 354.237,1274.86 319.953,1280.85C260.884,1291.39 252.829,1313.28 252.829,1349.21L252.829,1368.84L404.012,1368.84L404.012,1349.21L273.483,1349.21C273.483,1318.44 279.059,1308.74 332.551,1298.41Z" style="fill-rule:nonzero;"/>
        </g>
        <g transform="matrix(1,0,0,1,603.164,-877.772)">
            <path d="M465.145,1249.67C461.841,1242.23 454.612,1232.52 439.948,1232.52C420.947,1232.52 414.338,1245.33 414.338,1274.45L414.338,1328.98C414.338,1358.1 420.947,1370.9 439.948,1370.9C454.612,1370.9 461.841,1361.19 465.145,1353.76L465.145,1365.12C465.145,1383.29 461.015,1391.56 445.938,1391.56L419.502,1391.56L419.502,1410.14L449.036,1410.14C480.222,1410.14 485.799,1395.27 485.799,1365.12L485.799,1234.59L465.145,1234.59L465.145,1249.67ZM449.036,1352.31C438.709,1352.31 434.992,1345.09 434.992,1332.07L434.992,1271.35C434.992,1258.34 438.709,1251.11 449.036,1251.11C460.395,1251.11 465.145,1260.41 465.145,1272.38L465.145,1331.04C465.145,1343.02 460.395,1352.31 449.036,1352.31Z" style="fill-rule:nonzero;"/>
        </g>
        <g transform="matrix(1,0,0,1,603.164,-877.772)">
            <path d="M543.215,1232.52C528.138,1232.52 520.496,1242.85 516.779,1251.11L516.779,1234.59L496.125,1234.59L496.125,1368.84L516.779,1368.84L516.779,1275.9C516.779,1264.12 523.388,1251.11 533.714,1251.11C543.215,1251.11 544.867,1258.55 544.867,1270.32L544.867,1279.61L565.52,1279.61L565.52,1273.42C565.52,1246.36 561.803,1232.52 543.215,1232.52Z" style="fill-rule:nonzero;"/>
        </g>
        <g transform="matrix(1,0,-0.351122,1,1038.71,-877.772)">
            <path d="M591.957,1219.93C596.5,1219.93 600.631,1216.41 600.631,1211.25C600.631,1205.67 596.5,1202.37 591.957,1202.37C587.206,1202.37 583.076,1205.67 583.076,1211.25C583.076,1216.41 587.206,1219.93 591.957,1219.93ZM625.002,1219.93C629.546,1219.93 633.676,1216.41 633.676,1211.25C633.676,1205.67 629.546,1202.37 625.002,1202.37C620.252,1202.37 616.121,1205.67 616.121,1211.25C616.121,1216.41 620.252,1219.93 625.002,1219.93ZM572.749,1322.78C572.749,1356.03 583.489,1370.9 608.479,1370.9C633.47,1370.9 644.21,1356.03 644.21,1322.78L644.21,1280.65C644.21,1247.39 633.47,1232.52 608.479,1232.52C583.489,1232.52 572.749,1247.39 572.749,1280.65L572.749,1322.78ZM593.402,1277.55C593.402,1256.28 598.566,1251.11 608.479,1251.11C618.186,1251.11 623.556,1256.28 623.556,1277.55L623.556,1325.88C623.556,1347.15 618.393,1352.31 608.479,1352.31C598.566,1352.31 593.402,1347.15 593.402,1325.88L593.402,1277.55Z" style="fill-rule:nonzero;"/>
        </g>
        <g transform="matrix(1,0,0,1,593.164,-877.772)">
            <path d="M711.333,1282.3C720.42,1276.31 725.997,1264.54 725.997,1243.47C725.997,1219.51 716.703,1201.54 690.679,1201.54C662.591,1201.54 654.536,1219.51 654.536,1252.76L654.536,1368.84L675.189,1368.84L675.189,1252.76C675.189,1228.39 679.733,1220.13 690.679,1220.13C701.626,1220.13 705.343,1228.39 705.343,1248.63C705.343,1261.23 703.691,1273.62 689.647,1273.62L682.005,1273.62L682.005,1292.21L689.647,1292.21C704.724,1292.21 709.474,1304.6 709.474,1320.71C709.474,1337.86 706.789,1350.25 691.712,1350.25L682.005,1350.25L682.005,1368.84L691.712,1368.84C719.801,1368.84 730.127,1357.06 730.127,1324.84C730.127,1301.71 723.105,1288.5 711.333,1282.3Z" style="fill-rule:nonzero;"/>
        </g>
        <g transform="matrix(1,0,0,1,593.164,-877.772)">
            <path d="M776.597,1232.52C751.607,1232.52 740.454,1247.39 740.454,1280.65L740.454,1322.78C740.454,1356.03 751.607,1370.9 776.597,1370.9C801.588,1370.9 811.914,1356.03 811.914,1322.78L811.914,1316.17L791.261,1316.17L791.261,1325.88C791.261,1347.15 786.511,1352.31 776.597,1352.31C766.684,1352.31 761.107,1347.15 761.107,1325.88L761.107,1304.81L811.914,1304.81L811.914,1280.65C811.914,1247.39 801.588,1232.52 776.597,1232.52ZM791.261,1290.35L761.107,1290.35L761.107,1277.55C761.107,1256.28 766.684,1251.11 776.597,1251.11C786.304,1251.11 791.261,1256.28 791.261,1277.55L791.261,1290.35Z" style="fill-rule:nonzero;"/>
        </g>
        <g transform="matrix(1,0,0,1,593.164,-877.772)">
            <path d="M869.331,1232.52C854.254,1232.52 846.612,1242.85 842.894,1251.11L842.894,1234.59L822.241,1234.59L822.241,1368.84L842.894,1368.84L842.894,1275.9C842.894,1264.12 849.503,1251.11 859.83,1251.11C869.331,1251.11 870.983,1258.55 870.983,1270.32L870.983,1279.61L891.636,1279.61L891.636,1273.42C891.636,1246.36 887.919,1232.52 869.331,1232.52Z" style="fill-rule:nonzero;"/>
        </g>
        <g transform="matrix(1,0,0,1,593.164,-877.772)">
            <path d="M957.933,1203.61L937.28,1203.61L901.963,1313.69L901.963,1334.35L937.28,1334.35L937.28,1368.84L957.933,1368.84L957.933,1334.35L972.391,1334.35L972.391,1313.69L957.933,1313.69L957.933,1203.61ZM937.28,1313.69L915.594,1313.69L937.28,1245.95L937.28,1313.69Z" style="fill-rule:nonzero;"/>
        </g>
        <g transform="matrix(0.848031,0,0,0.848031,496.799,-1177.17)">
            <path d="M562.689,1738.02L566.489,1738.78L555.918,1791.92L586.023,1746.87L589.245,1749.02L559.14,1794.08L604.195,1763.97L606.348,1767.19L561.292,1797.3L614.439,1786.73L615.195,1790.53L562.048,1801.1L615.195,1811.67L614.439,1815.47L561.292,1804.9L606.348,1835.01L604.195,1838.23L559.14,1808.12L589.245,1853.18L586.023,1855.33L555.918,1810.28L566.489,1863.42L562.689,1864.18L552.118,1811.03L541.546,1864.18L537.746,1863.42L548.317,1810.28L518.212,1855.33L514.99,1853.18L545.095,1808.12L500.04,1838.23L497.887,1835.01L542.943,1804.9L489.796,1815.47L489.04,1811.67L542.187,1801.1L489.04,1790.53L489.796,1786.73L542.943,1797.3L497.887,1767.19L500.04,1763.97L545.095,1794.08L514.99,1749.02L518.212,1746.87L548.317,1791.92L537.746,1738.78L541.546,1738.02L552.118,1791.17L562.689,1738.02Z"/>
        </g>
        <g transform="matrix(0.848031,0,0,0.848031,470.181,-1062.79)">
            <path d="M562.56,1738L566.618,1738.8L556.176,1791.3L585.914,1746.8L589.354,1749.1L559.616,1793.6L604.122,1763.86L606.421,1767.3L561.914,1797.04L614.413,1786.6L615.22,1790.66L562.722,1801.1L615.22,1811.54L614.413,1815.6L561.914,1805.16L606.421,1834.9L604.122,1838.34L559.616,1808.6L589.354,1853.1L585.914,1855.4L556.176,1810.9L566.618,1863.39L562.56,1864.2L552.118,1811.7L541.675,1864.2L537.617,1863.39L548.059,1810.9L518.321,1855.4L514.881,1853.1L544.619,1808.6L500.113,1838.34L497.814,1834.9L542.321,1805.16L489.822,1815.6L489.015,1811.54L541.513,1801.1L489.015,1790.66L489.822,1786.6L542.321,1797.04L497.814,1767.3L500.113,1763.86L544.619,1793.6L514.881,1749.1L518.321,1746.8L548.059,1791.3L537.617,1738.8L541.675,1738L552.118,1790.5L562.56,1738Z"/>
        </g>
        <g transform="matrix(1.20829,2.27656e-17,-1.5194e-16,1.03768,-1235.13,-1428.21)">
            <path d="M2373.36,1690.35C2372.02,1690.35 2370.69,1690.5 2369.38,1690.79C2367.86,1691.13 2366.38,1691.68 2364.98,1692.37L2364.83,1692.44L2364.83,1692.44L2364.83,1692.44C2354.59,1697.65 2347.22,1711.97 2347.22,1728.81C2347.22,1745.64 2354.59,1759.97 2364.83,1765.17L2364.83,1765.17L2364.83,1765.17C2367.51,1766.53 2370.38,1767.27 2373.36,1767.27L2356.3,1767.27C2341.87,1767.27 2330.16,1750.04 2330.16,1728.81C2330.16,1707.58 2341.87,1690.35 2356.3,1690.35L2373.36,1690.35Z"/>
        </g>
        <g transform="matrix(-1.20829,6.02188e-17,-7.71898e-17,-1.01123,4479.66,2113.97)">
            <path d="M2356.3,1767.27C2341.87,1767.27 2330.16,1750.04 2330.16,1728.81C2330.16,1707.58 2341.87,1690.35 2356.3,1690.35" style="fill:none;stroke:black;stroke-width:1.87px;"/>
        </g>
        <g transform="matrix(0.112427,2.07974e-18,-1.40902e-17,0.0959236,1367.66,199.914)">
            <path d="M2356.3,1690.35C2370.73,1690.35 2382.45,1707.58 2382.45,1728.81C2382.45,1750.04 2370.73,1767.27 2356.3,1767.27C2341.87,1767.27 2330.16,1750.04 2330.16,1728.81C2330.16,1707.58 2341.87,1690.35 2356.3,1690.35" style="fill:none;stroke:black;stroke-width:19.94px;"/>
        </g>
        <g transform="matrix(1.20829,2.27656e-17,-1.5194e-16,1.03768,-1144.68,-1428.21)">
            <path d="M2373.36,1690.35C2372.02,1690.35 2370.69,1690.5 2369.38,1690.79C2367.86,1691.13 2366.38,1691.68 2364.98,1692.37L2364.83,1692.44L2364.83,1692.44L2364.83,1692.44C2354.59,1697.65 2347.22,1711.97 2347.22,1728.81C2347.22,1745.64 2354.59,1759.97 2364.83,1765.17L2364.83,1765.17L2364.83,1765.17C2367.51,1766.53 2370.38,1767.27 2373.36,1767.27L2356.3,1767.27C2341.87,1767.27 2330.16,1750.04 2330.16,1728.81C2330.16,1707.58 2341.87,1690.35 2356.3,1690.35L2373.36,1690.35Z"/>
        </g>
        <g transform="matrix(-1.20829,6.02188e-17,-7.71898e-17,-1.01123,4570.11,2113.97)">
            <path d="M2356.3,1767.27C2341.87,1767.27 2330.16,1750.04 2330.16,1728.81C2330.16,1707.58 2341.87,1690.35 2356.3,1690.35" style="fill:none;stroke:black;stroke-width:1.87px;"/>
        </g>
        <g transform="matrix(0.112427,2.07974e-18,-1.40902e-17,0.0959236,1458.11,199.914)">
            <path d="M2356.3,1690.35C2370.73,1690.35 2382.45,1707.58 2382.45,1728.81C2382.45,1750.04 2370.73,1767.27 2356.3,1767.27C2341.87,1767.27 2330.16,1750.04 2330.16,1728.81C2330.16,1707.58 2341.87,1690.35 2356.3,1690.35" style="fill:none;stroke:black;stroke-width:19.94px;"/>
        </g>
        <g transform="matrix(1.20829,2.27656e-17,-1.5194e-16,1.03768,-1144.68,-1342.8)">
            <path d="M2373.36,1690.35C2372.02,1690.35 2370.69,1690.5 2369.38,1690.79C2367.86,1691.13 2366.38,1691.68 2364.98,1692.37L2364.83,1692.44L2364.83,1692.44L2364.83,1692.44C2354.59,1697.65 2347.22,1711.97 2347.22,1728.81C2347.22,1745.64 2354.59,1759.97 2364.83,1765.17L2364.83,1765.17L2364.83,1765.17C2367.51,1766.53 2370.38,1767.27 2373.36,1767.27L2356.3,1767.27C2341.87,1767.27 2330.16,1750.04 2330.16,1728.81C2330.16,1707.58 2341.87,1690.35 2356.3,1690.35L2373.36,1690.35Z"/>
        </g>
        <g transform="matrix(-1.20829,6.03362e-17,-7.7024e-17,-1.00987,4570.11,2197.03)">
            <path d="M2356.3,1767.27C2341.87,1767.27 2330.16,1750.04 2330.16,1728.81C2330.16,1707.58 2341.87,1690.35 2356.3,1690.35" style="fill:none;stroke:black;stroke-width:1.87px;"/>
        </g>
        <g transform="matrix(0.112427,2.07974e-18,-1.40902e-17,0.0959236,1458.11,285.321)">
            <path d="M2356.3,1690.35C2370.73,1690.35 2382.45,1707.58 2382.45,1728.81C2382.45,1750.04 2370.73,1767.27 2356.3,1767.27C2341.87,1767.27 2330.16,1750.04 2330.16,1728.81C2330.16,1707.58 2341.87,1690.35 2356.3,1690.35" style="fill:none;stroke:black;stroke-width:19.94px;"/>
        </g>
        <g transform="matrix(1.20829,2.27656e-17,-1.5194e-16,1.03768,-1235.13,-1342.8)">
            <path d="M2373.36,1690.35C2372.02,1690.35 2370.69,1690.5 2369.38,1690.79C2367.86,1691.13 2366.38,1691.68 2364.98,1692.37L2364.83,1692.44L2364.83,1692.44L2364.83,1692.44C2354.59,1697.65 2347.22,1711.97 2347.22,1728.81C2347.22,1745.64 2354.59,1759.97 2364.83,1765.17L2364.83,1765.17L2364.83,1765.17C2367.51,1766.53 2370.38,1767.27 2373.36,1767.27L2356.3,1767.27C2341.87,1767.27 2330.16,1750.04 2330.16,1728.81C2330.16,1707.58 2341.87,1690.35 2356.3,1690.35L2373.36,1690.35Z"/>
        </g>
        <g transform="matrix(-1.20829,6.03362e-17,-7.7024e-17,-1.00987,4479.66,2197.03)">
            <path d="M2356.3,1767.27C2341.87,1767.27 2330.16,1750.04 2330.16,1728.81C2330.16,1707.58 2341.87,1690.35 2356.3,1690.35" style="fill:none;stroke:black;stroke-width:1.87px;"/>
        </g>
        <g transform="matrix(0.112427,2.07974e-18,-1.40902e-17,0.0959236,1367.66,285.321)">
            <path d="M2356.3,1690.35C2370.73,1690.35 2382.45,1707.58 2382.45,1728.81C2382.45,1750.04 2370.73,1767.27 2356.3,1767.27C2341.87,1767.27 2330.16,1750.04 2330.16,1728.81C2330.16,1707.58 2341.87,1690.35 2356.3,1690.35" style="fill:none;stroke:black;stroke-width:19.94px;"/>
        </g>
    </g>
</svg>
