<?xml version="1.0" encoding="UTF-8" standalone="no"?>
<!DOCTYPE svg PUBLIC "-//W3C//DTD SVG 1.1//EN" "http://www.w3.org/Graphics/SVG/1.1/DTD/svg11.dtd">
<svg width="100%" height="100%" viewBox="0 0 48 48" version="1.1" xmlns="http://www.w3.org/2000/svg" xmlns:xlink="http://www.w3.org/1999/xlink" xml:space="preserve" xmlns:serif="http://www.serif.com/" style="fill-rule:evenodd;clip-rule:evenodd;stroke-linejoin:round;stroke-miterlimit:2;">
    <g transform="matrix(1,0,0,1,8.20788,16.191)">
        <g transform="matrix(29.0922,0,0,29.0922,-0.944741,13.8666)">
            <path d="M0.201,-0.161C0.229,-0.226 0.254,-0.293 0.281,-0.358C0.292,-0.385 0.427,-0.723 0.276,-0.74C0.192,-0.75 0.13,-0.683 0.103,-0.61C0.029,-0.41 0.005,-0.209 -0.012,0.003C-0.016,0.044 -0.019,0.137 0.03,0.164C0.093,0.199 0.186,0.156 0.241,0.134C0.331,0.098 0.444,0.055 0.504,-0.029C0.561,-0.106 0.539,-0.224 0.438,-0.249C0.356,-0.269 0.259,-0.203 0.201,-0.161Z" style="fill-rule:nonzero;"/>
        </g>
        <g transform="matrix(34.0852,0,-10.7489,32.346,6.05899,22.0163)">
            <path d="M0.047,-0C0.088,0.07 0.29,0.034 0.389,-0C0.489,-0.034 0.63,-0.143 0.645,-0.206C0.659,-0.269 0.476,-0.379 0.476,-0.379C0.476,-0.379 0.635,-0.487 0.616,-0.545C0.598,-0.603 0.457,-0.697 0.362,-0.727C0.267,-0.758 0.089,-0.824 0.047,-0.727C0.024,-0.674 0.047,-0.555 0.14,-0.418C0.275,-0.218 0.005,-0.07 0.047,-0ZM0.244,-0.158C0.229,-0.183 0.228,-0.286 0.244,-0.311C0.26,-0.337 0.31,-0.323 0.339,-0.311C0.371,-0.298 0.437,-0.257 0.436,-0.232C0.436,-0.206 0.369,-0.17 0.337,-0.158C0.308,-0.147 0.26,-0.132 0.244,-0.158ZM0.244,-0.433C0.224,-0.46 0.19,-0.569 0.204,-0.592C0.218,-0.615 0.293,-0.587 0.328,-0.572C0.362,-0.558 0.414,-0.526 0.413,-0.503C0.413,-0.48 0.353,-0.445 0.325,-0.433C0.3,-0.423 0.261,-0.412 0.244,-0.433Z" style="fill-rule:nonzero;"/>
        </g>
    </g>
</svg>
